<?xml version="1.0" encoding="UTF-8" standalone="no"?>
<!DOCTYPE svg PUBLIC "-//W3C//DTD SVG 1.1//EN"
 "http://www.w3.org/Graphics/SVG/1.1/DTD/svg11.dtd">
<!-- Generated by graphviz version 2.38.0 (20140413.2041)
 -->
<!-- Title: %3 Pages: 1 -->
<svg width="856pt" height="580pt"
 viewBox="0.00 0.00 856.04 580.00" xmlns="http://www.w3.org/2000/svg" xmlns:xlink="http://www.w3.org/1999/xlink">
<g id="graph0" class="graph" transform="scale(1 1) rotate(0) translate(4 576)">
<title>%3</title>
<polygon fill="#333333" stroke="none" points="-4,4 -4,-576 852.04,-576 852.04,4 -4,4"/>
<text text-anchor="middle" x="424.02" y="-9.2" font-family="Times,serif" font-size="16.00" fill="yellow">Archetype Workshop</text>
<!-- A -->
<g id="node1" class="node"><title>A</title>
<polygon fill="green" stroke="white" points="303.54,-487 202.54,-487 202.54,-451 303.54,-451 303.54,-487"/>
<text text-anchor="middle" x="253.04" y="-465.3" font-family="Helvetica,sans-Serif" font-size="14.00" fill="white">New Decklists</text>
</g>
<!-- C -->
<g id="node3" class="node"><title>C</title>
<ellipse fill="blue" stroke="white" cx="296.04" cy="-384" rx="97.4827" ry="18"/>
<text text-anchor="middle" x="296.04" y="-380.3" font-family="Helvetica,sans-Serif" font-size="14.00" fill="white">Parameters Converter</text>
</g>
<!-- A&#45;&gt;C -->
<g id="edge1" class="edge"><title>A&#45;&gt;C</title>
<path fill="none" stroke="white" d="M251.935,-450.737C252.019,-441.211 253.305,-429.435 258.04,-420 259.986,-416.122 262.553,-412.46 265.438,-409.071"/>
<polygon fill="white" stroke="white" points="272.601,-401.684 268.87,-411.996 269.12,-405.273 265.64,-408.863 265.64,-408.863 265.64,-408.863 269.12,-405.273 262.409,-405.73 272.601,-401.684 272.601,-401.684"/>
<text text-anchor="middle" x="292.04" y="-423.4" font-family="Courier,monospace" font-size="12.00" fill="white">new decks</text>
</g>
<!-- B -->
<g id="node2" class="node"><title>B</title>
<polygon fill="green" stroke="white" points="663.04,-572 533.04,-572 533.04,-536 663.04,-536 663.04,-572"/>
<text text-anchor="middle" x="598.04" y="-550.3" font-family="Helvetica,sans-Serif" font-size="14.00" fill="white">Historical Decklists</text>
</g>
<!-- D -->
<g id="node4" class="node"><title>D</title>
<ellipse fill="blue" stroke="white" cx="598.04" cy="-469" rx="97.4827" ry="18"/>
<text text-anchor="middle" x="598.04" y="-465.3" font-family="Helvetica,sans-Serif" font-size="14.00" fill="white">Parameters Converter</text>
</g>
<!-- B&#45;&gt;D -->
<g id="edge2" class="edge"><title>B&#45;&gt;D</title>
<path fill="none" stroke="white" d="M598.04,-535.802C598.04,-524.674 598.04,-509.945 598.04,-497.244"/>
<polygon fill="white" stroke="white" points="598.04,-487.176 602.54,-497.176 598.04,-492.176 598.04,-497.176 598.04,-497.176 598.04,-497.176 598.04,-492.176 593.54,-497.176 598.04,-487.176 598.04,-487.176"/>
<text text-anchor="middle" x="632.04" y="-508.4" font-family="Courier,monospace" font-size="12.00" fill="white">old decks</text>
</g>
<!-- L -->
<g id="node11" class="node"><title>L</title>
<ellipse fill="blue" stroke="white" cx="296.04" cy="-299" rx="103.182" ry="18"/>
<text text-anchor="middle" x="296.04" y="-295.3" font-family="Helvetica,sans-Serif" font-size="14.00" fill="white">New Decks Parameters</text>
</g>
<!-- C&#45;&gt;L -->
<g id="edge3" class="edge"><title>C&#45;&gt;L</title>
<path fill="none" stroke="white" d="M296.04,-365.802C296.04,-354.674 296.04,-339.945 296.04,-327.244"/>
<polygon fill="white" stroke="white" points="296.04,-317.176 300.54,-327.176 296.04,-322.176 296.04,-327.176 296.04,-327.176 296.04,-327.176 296.04,-322.176 291.54,-327.176 296.04,-317.176 296.04,-317.176"/>
<text text-anchor="middle" x="337.54" y="-338.4" font-family="Courier,monospace" font-size="12.00" fill="white">converts to</text>
</g>
<!-- K -->
<g id="node10" class="node"><title>K</title>
<ellipse fill="pink" stroke="white" cx="598.04" cy="-384" rx="74.187" ry="18"/>
<text text-anchor="middle" x="598.04" y="-380.3" font-family="Helvetica,sans-Serif" font-size="14.00" fill="white">Comparison Set</text>
</g>
<!-- D&#45;&gt;K -->
<g id="edge4" class="edge"><title>D&#45;&gt;K</title>
<path fill="none" stroke="white" d="M598.04,-450.802C598.04,-439.674 598.04,-424.945 598.04,-412.244"/>
<polygon fill="white" stroke="white" points="598.04,-402.176 602.54,-412.176 598.04,-407.176 598.04,-412.176 598.04,-412.176 598.04,-412.176 598.04,-407.176 593.54,-412.176 598.04,-402.176 598.04,-402.176"/>
<text text-anchor="middle" x="658.54" y="-423.4" font-family="Courier,monospace" font-size="12.00" fill="white">is used to build</text>
</g>
<!-- E -->
<g id="node5" class="node"><title>E</title>
<ellipse fill="blue" stroke="white" cx="69.0398" cy="-129" rx="51.9908" ry="18"/>
<text text-anchor="middle" x="69.0398" y="-125.3" font-family="Helvetica,sans-Serif" font-size="14.00" fill="white">Results #1</text>
</g>
<!-- R -->
<g id="node16" class="node"><title>R</title>
<ellipse fill="red" stroke="white" cx="403.04" cy="-44" rx="90.9839" ry="18"/>
<text text-anchor="middle" x="403.04" y="-40.3" font-family="Helvetica,sans-Serif" font-size="14.00" fill="white">Deck Style Classifier</text>
</g>
<!-- E&#45;&gt;R -->
<g id="edge20" class="edge"><title>E&#45;&gt;R</title>
<path fill="none" stroke="white" d="M108.035,-116.916C115.336,-114.903 122.911,-112.854 130.04,-111 200.121,-92.769 280.764,-73.4794 336.131,-60.4945"/>
<polygon fill="white" stroke="white" points="346.166,-58.1449 337.455,-64.806 341.298,-59.2847 336.43,-60.4245 336.43,-60.4245 336.43,-60.4245 341.298,-59.2847 335.404,-56.043 346.166,-58.1449 346.166,-58.1449"/>
<text text-anchor="middle" x="288.04" y="-83.4" font-family="Courier,monospace" font-size="12.00" fill="white">is used by</text>
</g>
<!-- F -->
<g id="node6" class="node"><title>F</title>
<ellipse fill="pink" stroke="white" cx="115.04" cy="-214" rx="115.08" ry="18"/>
<text text-anchor="middle" x="115.04" y="-210.3" font-family="Helvetica,sans-Serif" font-size="14.00" fill="white">Closest Neighbour Method</text>
</g>
<!-- F&#45;&gt;E -->
<g id="edge17" class="edge"><title>F&#45;&gt;E</title>
<path fill="none" stroke="white" d="M105.509,-195.802C99.1134,-184.263 90.5733,-168.854 83.365,-155.848"/>
<polygon fill="white" stroke="white" points="78.4014,-146.892 87.1849,-153.457 80.8252,-151.265 83.249,-155.638 83.249,-155.638 83.249,-155.638 80.8252,-151.265 79.313,-157.82 78.4014,-146.892 78.4014,-146.892"/>
<text text-anchor="middle" x="140.54" y="-168.4" font-family="Courier,monospace" font-size="12.00" fill="white">gives output</text>
</g>
<!-- N -->
<g id="node13" class="node"><title>N</title>
<ellipse fill="orange" stroke="white" cx="236.04" cy="-129" rx="96.6831" ry="18"/>
<text text-anchor="middle" x="236.04" y="-125.3" font-family="Helvetica,sans-Serif" font-size="14.00" fill="white">Visual Representation</text>
</g>
<!-- F&#45;&gt;N -->
<g id="edge16" class="edge"><title>F&#45;&gt;N</title>
<path fill="none" stroke="white" d="M156.265,-197.078C167.686,-191.801 179.761,-185.364 190.04,-178 199.283,-171.378 208.225,-162.744 215.728,-154.628"/>
<polygon fill="white" stroke="white" points="222.443,-147.087 219.153,-157.548 219.118,-150.821 215.793,-154.555 215.793,-154.555 215.793,-154.555 219.118,-150.821 212.432,-151.562 222.443,-147.087 222.443,-147.087"/>
<text text-anchor="middle" x="251.54" y="-168.4" font-family="Courier,monospace" font-size="12.00" fill="white">is input for</text>
</g>
<!-- G -->
<g id="node7" class="node"><title>G</title>
<polygon fill="green" stroke="white" points="424.04,-572 320.04,-572 320.04,-536 424.04,-536 424.04,-572"/>
<text text-anchor="middle" x="372.04" y="-550.3" font-family="Helvetica,sans-Serif" font-size="14.00" fill="white">All Cards Data</text>
</g>
<!-- G&#45;&gt;C -->
<g id="edge7" class="edge"><title>G&#45;&gt;C</title>
<path fill="none" stroke="white" d="M366.061,-535.914C361.406,-522.593 354.791,-503.628 349.04,-487 338.748,-457.246 341.674,-447.327 326.04,-420 324.04,-416.505 321.668,-413.032 319.147,-409.707"/>
<polygon fill="white" stroke="white" points="312.7,-401.82 322.512,-406.714 315.864,-405.691 319.028,-409.562 319.028,-409.562 319.028,-409.562 315.864,-405.691 315.544,-412.41 312.7,-401.82 312.7,-401.82"/>
<text text-anchor="middle" x="420.54" y="-465.9" font-family="Courier,monospace" font-size="12.00" fill="white">provides cards data</text>
</g>
<!-- G&#45;&gt;D -->
<g id="edge8" class="edge"><title>G&#45;&gt;D</title>
<path fill="none" stroke="white" d="M395.897,-535.792C411.054,-525.561 431.445,-513.051 451.04,-505 472.495,-496.184 496.664,-489.283 519.114,-484.026"/>
<polygon fill="white" stroke="white" points="528.953,-481.799 520.193,-488.395 524.077,-482.902 519.2,-484.006 519.2,-484.006 519.2,-484.006 524.077,-482.902 518.207,-479.617 528.953,-481.799 528.953,-481.799"/>
<text text-anchor="middle" x="522.54" y="-508.4" font-family="Courier,monospace" font-size="12.00" fill="white">provides cards data</text>
</g>
<!-- H -->
<g id="node8" class="node"><title>H</title>
<ellipse fill="pink" stroke="white" cx="588.04" cy="-214" rx="109.381" ry="18"/>
<text text-anchor="middle" x="588.04" y="-210.3" font-family="Helvetica,sans-Serif" font-size="14.00" fill="white">Parameters Vote Method</text>
</g>
<!-- O -->
<g id="node14" class="node"><title>O</title>
<ellipse fill="red" stroke="white" cx="552.04" cy="-129" rx="51.9908" ry="18"/>
<text text-anchor="middle" x="552.04" y="-125.3" font-family="Helvetica,sans-Serif" font-size="14.00" fill="white">Results #2</text>
</g>
<!-- H&#45;&gt;O -->
<g id="edge18" class="edge"><title>H&#45;&gt;O</title>
<path fill="none" stroke="white" d="M580.581,-195.802C575.624,-184.375 569.022,-169.153 563.415,-156.227"/>
<polygon fill="white" stroke="white" points="559.366,-146.892 567.474,-154.275 561.356,-151.479 563.346,-156.066 563.346,-156.066 563.346,-156.066 561.356,-151.479 559.217,-157.857 559.366,-146.892 559.366,-146.892"/>
<text text-anchor="middle" x="618.54" y="-168.4" font-family="Courier,monospace" font-size="12.00" fill="white">gives output</text>
</g>
<!-- I -->
<g id="node9" class="node"><title>I</title>
<ellipse fill="pink" stroke="white" cx="374.04" cy="-214" rx="87.1846" ry="18"/>
<text text-anchor="middle" x="374.04" y="-210.3" font-family="Helvetica,sans-Serif" font-size="14.00" fill="white">Cards Vote Method</text>
</g>
<!-- P -->
<g id="node15" class="node"><title>P</title>
<ellipse fill="red" stroke="white" cx="403.04" cy="-129" rx="51.9908" ry="18"/>
<text text-anchor="middle" x="403.04" y="-125.3" font-family="Helvetica,sans-Serif" font-size="14.00" fill="white">Results #3</text>
</g>
<!-- I&#45;&gt;P -->
<g id="edge19" class="edge"><title>I&#45;&gt;P</title>
<path fill="none" stroke="white" d="M380.049,-195.802C384.002,-184.487 389.256,-169.451 393.743,-156.608"/>
<polygon fill="white" stroke="white" points="397.138,-146.892 398.088,-157.816 395.489,-151.612 393.839,-156.332 393.839,-156.332 393.839,-156.332 395.489,-151.612 389.591,-154.848 397.138,-146.892 397.138,-146.892"/>
<text text-anchor="middle" x="436.54" y="-168.4" font-family="Courier,monospace" font-size="12.00" fill="white">gives output</text>
</g>
<!-- K&#45;&gt;F -->
<g id="edge6" class="edge"><title>K&#45;&gt;F</title>
<path fill="none" stroke="white" d="M530.892,-376.342C399.851,-363.023 121.576,-333.007 108.04,-317 90.6465,-296.431 96.3348,-264.404 103.851,-241.733"/>
<polygon fill="white" stroke="white" points="107.357,-232.049 108.184,-242.983 105.655,-236.75 103.953,-241.452 103.953,-241.452 103.953,-241.452 105.655,-236.75 99.7216,-239.92 107.357,-232.049 107.357,-232.049"/>
<text text-anchor="middle" x="146.04" y="-295.9" font-family="Courier,monospace" font-size="12.00" fill="white">is used in</text>
</g>
<!-- K&#45;&gt;H -->
<g id="edge15" class="edge"><title>K&#45;&gt;H</title>
<path fill="none" stroke="white" d="M654.574,-372.345C714.573,-358.281 796.819,-329.462 766.04,-281 748.265,-253.013 716.975,-236.83 685.536,-227.496"/>
<polygon fill="white" stroke="white" points="675.789,-224.813 686.624,-223.128 680.61,-226.14 685.43,-227.467 685.43,-227.467 685.43,-227.467 680.61,-226.14 684.236,-231.805 675.789,-224.813 675.789,-224.813"/>
<text text-anchor="middle" x="810.04" y="-295.9" font-family="Courier,monospace" font-size="12.00" fill="white">is used in</text>
</g>
<!-- K&#45;&gt;I -->
<g id="edge13" class="edge"><title>K&#45;&gt;I</title>
<path fill="none" stroke="white" d="M645.486,-370.118C655.972,-364.975 665.805,-357.846 672.04,-348 680.343,-334.888 698.503,-289.305 655.04,-250 624.404,-222.295 510.963,-237.605 470.04,-232 462.171,-230.922 453.962,-229.668 445.801,-228.339"/>
<polygon fill="white" stroke="white" points="435.898,-226.688 446.502,-223.894 440.829,-227.51 445.761,-228.333 445.761,-228.333 445.761,-228.333 440.829,-227.51 445.021,-232.771 435.898,-226.688 435.898,-226.688"/>
<text text-anchor="middle" x="721.04" y="-295.9" font-family="Courier,monospace" font-size="12.00" fill="white">is used in</text>
</g>
<!-- M -->
<g id="node12" class="node"><title>M</title>
<ellipse fill="pink" stroke="white" cx="534.04" cy="-299" rx="116.18" ry="18"/>
<text text-anchor="middle" x="534.04" y="-295.3" font-family="Helvetica,sans-Serif" font-size="14.00" fill="white">Prepared Card Voting Data</text>
</g>
<!-- K&#45;&gt;M -->
<g id="edge10" class="edge"><title>K&#45;&gt;M</title>
<path fill="none" stroke="white" d="M570.749,-366.872C563.569,-361.592 556.354,-355.205 551.04,-348 546.422,-341.739 542.97,-334.111 540.428,-326.795"/>
<polygon fill="white" stroke="white" points="537.502,-317.17 544.716,-325.429 538.956,-321.954 540.411,-326.738 540.411,-326.738 540.411,-326.738 538.956,-321.954 536.105,-328.047 537.502,-317.17 537.502,-317.17"/>
<text text-anchor="middle" x="611.54" y="-338.4" font-family="Courier,monospace" font-size="12.00" fill="white">is used to build</text>
</g>
<!-- L&#45;&gt;F -->
<g id="edge5" class="edge"><title>L&#45;&gt;F</title>
<path fill="none" stroke="white" d="M211.933,-288.372C190.5,-283.183 168.366,-275.218 150.04,-263 141.595,-257.37 134.471,-248.976 128.9,-240.774"/>
<polygon fill="white" stroke="white" points="123.476,-232.09 132.59,-238.188 126.125,-236.331 128.774,-240.572 128.774,-240.572 128.774,-240.572 126.125,-236.331 124.957,-242.956 123.476,-232.09 123.476,-232.09"/>
<text text-anchor="middle" x="195.54" y="-253.4" font-family="Courier,monospace" font-size="12.00" fill="white">is input for</text>
</g>
<!-- L&#45;&gt;H -->
<g id="edge14" class="edge"><title>L&#45;&gt;H</title>
<path fill="none" stroke="white" d="M364.232,-285.465C390.742,-279.773 421.145,-272.227 448.04,-263 461.018,-258.548 463.242,-254.946 476.04,-250 491.933,-243.858 509.397,-237.993 525.708,-232.88"/>
<polygon fill="white" stroke="white" points="535.691,-229.798 527.464,-237.048 530.913,-231.273 526.136,-232.748 526.136,-232.748 526.136,-232.748 530.913,-231.273 524.808,-228.448 535.691,-229.798 535.691,-229.798"/>
<text text-anchor="middle" x="521.54" y="-253.4" font-family="Courier,monospace" font-size="12.00" fill="white">is input for</text>
</g>
<!-- L&#45;&gt;I -->
<g id="edge9" class="edge"><title>L&#45;&gt;I</title>
<path fill="none" stroke="white" d="M321.807,-281.371C329.119,-275.998 336.785,-269.687 343.04,-263 349.275,-256.335 355.032,-248.261 359.85,-240.652"/>
<polygon fill="white" stroke="white" points="365.046,-232.045 363.73,-242.932 362.461,-236.326 359.877,-240.606 359.877,-240.606 359.877,-240.606 362.461,-236.326 356.025,-238.28 365.046,-232.045 365.046,-232.045"/>
<text text-anchor="middle" x="398.54" y="-253.4" font-family="Courier,monospace" font-size="12.00" fill="white">is input for</text>
</g>
<!-- L&#45;&gt;I -->
<g id="edge12" class="edge"><title>L&#45;&gt;I</title>
<path fill="none" stroke="white" d="M263.202,-281.722C249.833,-272.885 239.339,-261.447 248.04,-250 254.892,-240.985 275.534,-233.682 298.18,-228.125"/>
<polygon fill="white" stroke="white" points="307.973,-225.85 299.251,-232.496 303.103,-226.981 298.232,-228.112 298.232,-228.112 298.232,-228.112 303.103,-226.981 297.214,-223.729 307.973,-225.85 307.973,-225.85"/>
<text text-anchor="middle" x="293.54" y="-253.4" font-family="Courier,monospace" font-size="12.00" fill="white">is input for</text>
</g>
<!-- M&#45;&gt;I -->
<g id="edge11" class="edge"><title>M&#45;&gt;I</title>
<path fill="none" stroke="white" d="M559.561,-281.299C570.725,-271.948 579.555,-260.161 571.04,-250 570.975,-249.922 503.781,-237.995 447.897,-228.087"/>
<polygon fill="white" stroke="white" points="437.97,-226.328 448.602,-223.642 442.893,-227.2 447.816,-228.073 447.816,-228.073 447.816,-228.073 442.893,-227.2 447.031,-232.504 437.97,-226.328 437.97,-226.328"/>
<text text-anchor="middle" x="613.04" y="-253.4" font-family="Courier,monospace" font-size="12.00" fill="white">is used in</text>
</g>
<!-- O&#45;&gt;R -->
<g id="edge21" class="edge"><title>O&#45;&gt;R</title>
<path fill="none" stroke="white" d="M531.591,-112.191C518.21,-102.252 500.105,-89.5477 483.04,-80 473.214,-74.5028 462.357,-69.2495 451.894,-64.5613"/>
<polygon fill="white" stroke="white" points="442.436,-60.4238 453.401,-60.309 447.016,-62.4278 451.597,-64.4317 451.597,-64.4317 451.597,-64.4317 447.016,-62.4278 449.794,-68.5545 442.436,-60.4238 442.436,-60.4238"/>
<text text-anchor="middle" x="541.04" y="-83.4" font-family="Courier,monospace" font-size="12.00" fill="white">is used by</text>
</g>
<!-- P&#45;&gt;R -->
<g id="edge22" class="edge"><title>P&#45;&gt;R</title>
<path fill="none" stroke="white" d="M403.04,-110.802C403.04,-99.6736 403.04,-84.9448 403.04,-72.2439"/>
<polygon fill="white" stroke="white" points="403.04,-62.1756 407.54,-72.1756 403.04,-67.1756 403.04,-72.1756 403.04,-72.1756 403.04,-72.1756 403.04,-67.1756 398.54,-72.1757 403.04,-62.1756 403.04,-62.1756"/>
<text text-anchor="middle" x="441.04" y="-83.4" font-family="Courier,monospace" font-size="12.00" fill="white">is used by</text>
</g>
</g>
</svg>
