<?xml version="1.0" encoding="UTF-8" standalone="no"?>
<!DOCTYPE svg PUBLIC "-//W3C//DTD SVG 1.1//EN"
 "http://www.w3.org/Graphics/SVG/1.1/DTD/svg11.dtd">
<!-- Generated by graphviz version 2.38.0 (20140413.2041)
 -->
<!-- Title: %3 Pages: 1 -->
<svg width="1890pt" height="483pt"
 viewBox="0.00 0.00 1889.53 483.00" xmlns="http://www.w3.org/2000/svg" xmlns:xlink="http://www.w3.org/1999/xlink">
<g id="graph0" class="graph" transform="scale(1 1) rotate(0) translate(4 479)">
<title>%3</title>
<polygon fill="#333333" stroke="none" points="-4,4 -4,-479 1885.53,-479 1885.53,4 -4,4"/>
<text text-anchor="middle" x="940.766" y="-9.2" font-family="Times,serif" font-size="16.00" fill="yellow">Cube Science Model</text>
<!-- Z -->
<g id="node1" class="node"><title>Z</title>
<ellipse fill="#006699" stroke="white" cx="794.092" cy="-457" rx="69.5877" ry="18"/>
<text text-anchor="middle" x="794.092" y="-453.3" font-family="Helvetica,sans-Serif" font-size="14.00" fill="white">Cube Manager</text>
</g>
<!-- A -->
<g id="node2" class="node"><title>A</title>
<ellipse fill="#006699" stroke="white" cx="133.092" cy="-299" rx="66.8882" ry="18"/>
<text text-anchor="middle" x="133.092" y="-295.3" font-family="Helvetica,sans-Serif" font-size="14.00" fill="white">Data Manager</text>
</g>
<!-- A&#45;&gt;Z -->
<g id="edge19" class="edge"><title>A&#45;&gt;Z</title>
<path fill="none" stroke="red" stroke-dasharray="5,2" d="M154.785,-316.158C170.062,-326.769 191.402,-340.1 212.092,-348 385.666,-414.273 604.35,-440.804 717.858,-450.673"/>
<polygon fill="red" stroke="red" points="727.844,-451.522 717.498,-455.158 722.862,-451.098 717.88,-450.675 717.88,-450.675 717.88,-450.675 722.862,-451.098 718.261,-446.191 727.844,-451.522 727.844,-451.522"/>
</g>
<!-- F -->
<g id="node7" class="node"><title>F</title>
<ellipse fill="#006699" stroke="white" cx="700.092" cy="-384" rx="73.387" ry="18"/>
<text text-anchor="middle" x="700.092" y="-380.3" font-family="Helvetica,sans-Serif" font-size="14.00" fill="white">Analytic Module</text>
</g>
<!-- A&#45;&gt;F -->
<g id="edge21" class="edge"><title>A&#45;&gt;F</title>
<path fill="none" stroke="red" stroke-dasharray="5,2" d="M164.417,-314.931C189.236,-326.042 225.105,-340.525 258.092,-348 380.619,-375.764 526.568,-382.352 616.273,-383.481"/>
<polygon fill="red" stroke="red" points="626.389,-383.588 616.342,-387.982 621.389,-383.535 616.389,-383.482 616.389,-383.482 616.389,-383.482 621.389,-383.535 616.437,-378.983 626.389,-383.588 626.389,-383.588"/>
<text text-anchor="middle" x="322.092" y="-338.4" font-family="Courier,monospace" font-size="12.00" fill="white">provides data for</text>
</g>
<!-- B -->
<g id="node3" class="node"><title>B</title>
<ellipse fill="#006699" stroke="white" cx="149.092" cy="-214" rx="51.9908" ry="18"/>
<text text-anchor="middle" x="149.092" y="-210.3" font-family="Helvetica,sans-Serif" font-size="14.00" fill="white">Cube Pool</text>
</g>
<!-- B&#45;&gt;A -->
<g id="edge1" class="edge"><title>B&#45;&gt;A</title>
<path fill="none" stroke="white" stroke-dasharray="5,2" d="M140.251,-232.012C137.776,-237.594 135.405,-243.926 134.092,-250 132.659,-256.63 132.036,-263.895 131.853,-270.721"/>
<polygon fill="white" stroke="white" points="131.874,-280.933 127.354,-270.942 131.864,-275.933 131.854,-270.933 131.854,-270.933 131.854,-270.933 131.864,-275.933 136.354,-270.924 131.874,-280.933 131.874,-280.933"/>
<text text-anchor="middle" x="183.092" y="-253.4" font-family="Courier,monospace" font-size="12.00" fill="white">is managed by</text>
</g>
<!-- C -->
<g id="node4" class="node"><title>C</title>
<ellipse fill="#006699" stroke="white" cx="302.092" cy="-44" rx="50.8918" ry="18"/>
<text text-anchor="middle" x="302.092" y="-40.3" font-family="Helvetica,sans-Serif" font-size="14.00" fill="white">Draft Data</text>
</g>
<!-- C&#45;&gt;A -->
<g id="edge2" class="edge"><title>C&#45;&gt;A</title>
<path fill="none" stroke="white" stroke-dasharray="5,2" d="M298.67,-61.9905C289.105,-107.965 260.896,-233.345 232.092,-263 222.485,-272.891 209.912,-279.993 196.964,-285.09"/>
<polygon fill="white" stroke="white" points="187.508,-288.459 195.418,-280.864 192.218,-286.781 196.928,-285.103 196.928,-285.103 196.928,-285.103 192.218,-286.781 198.438,-289.342 187.508,-288.459 187.508,-288.459"/>
<text text-anchor="middle" x="323.092" y="-168.4" font-family="Courier,monospace" font-size="12.00" fill="white">is managed by</text>
</g>
<!-- D -->
<g id="node5" class="node"><title>D</title>
<ellipse fill="#006699" stroke="white" cx="523.092" cy="-214" rx="92.8835" ry="18"/>
<text text-anchor="middle" x="523.092" y="-210.3" font-family="Helvetica,sans-Serif" font-size="14.00" fill="white">Reconstruction Tools</text>
</g>
<!-- C&#45;&gt;D -->
<g id="edge8" class="edge"><title>C&#45;&gt;D</title>
<path fill="none" stroke="white" stroke-dasharray="5,2" d="M307.598,-62.1269C315.595,-84.4902 332.448,-123.541 359.092,-147 386.231,-170.894 423.124,-186.774 455.046,-196.955"/>
<polygon fill="white" stroke="white" points="464.777,-199.935 453.898,-201.31 459.996,-198.471 455.215,-197.007 455.215,-197.007 455.215,-197.007 459.996,-198.471 456.533,-192.704 464.777,-199.935 464.777,-199.935"/>
<text text-anchor="middle" x="423.092" y="-125.9" font-family="Courier,monospace" font-size="12.00" fill="white">provides data for</text>
</g>
<!-- E -->
<g id="node6" class="node"><title>E</title>
<ellipse fill="#006699" stroke="white" cx="87.0923" cy="-129" rx="87.1846" ry="18"/>
<text text-anchor="middle" x="87.0923" y="-125.3" font-family="Helvetica,sans-Serif" font-size="14.00" fill="white">Regeneration Tools</text>
</g>
<!-- C&#45;&gt;E -->
<g id="edge6" class="edge"><title>C&#45;&gt;E</title>
<path fill="none" stroke="white" stroke-dasharray="5,2" d="M255.935,-51.5332C226.47,-56.789 187.962,-65.7087 156.092,-80 141.628,-86.4863 127.014,-96.1111 114.983,-105.043"/>
<polygon fill="white" stroke="white" points="106.718,-111.369 111.923,-101.718 110.688,-108.33 114.659,-105.291 114.659,-105.291 114.659,-105.291 110.688,-108.33 117.394,-108.864 106.718,-111.369 106.718,-111.369"/>
<text text-anchor="middle" x="194.092" y="-83.4" font-family="Courier,monospace" font-size="12.00" fill="white">is used by</text>
</g>
<!-- D&#45;&gt;A -->
<g id="edge3" class="edge"><title>D&#45;&gt;A</title>
<path fill="none" stroke="white" stroke-dasharray="5,2" d="M461.966,-227.605C398.652,-240.718 296.875,-261.957 209.092,-281 203.724,-282.164 198.146,-283.387 192.56,-284.621"/>
<polygon fill="white" stroke="white" points="182.539,-286.843 191.328,-280.285 187.42,-285.76 192.302,-284.678 192.302,-284.678 192.302,-284.678 187.42,-285.76 193.276,-289.071 182.539,-286.843 182.539,-286.843"/>
<text text-anchor="middle" x="385.092" y="-253.4" font-family="Courier,monospace" font-size="12.00" fill="white">is used by</text>
</g>
<!-- D&#45;&gt;C -->
<g id="edge5" class="edge"><title>D&#45;&gt;C</title>
<path fill="none" stroke="white" stroke-dasharray="5,2" d="M522.295,-195.834C520.345,-173.428 513.688,-134.33 491.092,-111 456.691,-75.4816 402.154,-59.0573 360.487,-51.4741"/>
<polygon fill="white" stroke="white" points="350.461,-49.7729 361.073,-47.0093 355.39,-50.6094 360.32,-51.4459 360.32,-51.4459 360.32,-51.4459 355.39,-50.6094 359.567,-55.8825 350.461,-49.7729 350.461,-49.7729"/>
<text text-anchor="middle" x="580.092" y="-125.9" font-family="Courier,monospace" font-size="12.00" fill="white">is used to rebuild</text>
</g>
<!-- E&#45;&gt;A -->
<g id="edge4" class="edge"><title>E&#45;&gt;A</title>
<path fill="none" stroke="white" stroke-dasharray="5,2" d="M60.4237,-146.267C31.8895,-165.837 -6.86967,-200.058 12.0923,-232 26.3802,-256.069 52.8735,-271.922 77.4353,-282.042"/>
<polygon fill="white" stroke="white" points="87.0813,-285.775 76.1312,-286.362 82.4183,-283.97 77.7553,-282.166 77.7553,-282.166 77.7553,-282.166 82.4183,-283.97 79.3794,-277.969 87.0813,-285.775 87.0813,-285.775"/>
<text text-anchor="middle" x="50.0923" y="-210.9" font-family="Courier,monospace" font-size="12.00" fill="white">is used by</text>
</g>
<!-- E&#45;&gt;B -->
<g id="edge7" class="edge"><title>E&#45;&gt;B</title>
<path fill="none" stroke="white" stroke-dasharray="5,2" d="M83.5102,-147.118C82.3995,-156.824 82.6495,-168.824 88.0923,-178 92.2091,-184.941 98.2662,-190.631 104.987,-195.253"/>
<polygon fill="white" stroke="white" points="113.76,-200.55 102.873,-199.233 109.48,-197.966 105.199,-195.381 105.199,-195.381 105.199,-195.381 109.48,-197.966 107.526,-191.529 113.76,-200.55 113.76,-200.55"/>
<text text-anchor="middle" x="156.092" y="-168.4" font-family="Courier,monospace" font-size="12.00" fill="white">is used to rebuild</text>
</g>
<!-- F&#45;&gt;Z -->
<g id="edge20" class="edge"><title>F&#45;&gt;Z</title>
<path fill="none" stroke="red" stroke-dasharray="5,2" d="M721.894,-401.467C734.56,-411.034 750.692,-423.219 764.493,-433.643"/>
<polygon fill="red" stroke="red" points="772.733,-439.867 762.041,-437.43 768.743,-436.853 764.753,-433.84 764.753,-433.84 764.753,-433.84 768.743,-436.853 767.465,-430.249 772.733,-439.867 772.733,-439.867"/>
</g>
<!-- G -->
<g id="node8" class="node"><title>G</title>
<ellipse fill="#006699" stroke="white" cx="293.092" cy="-299" rx="74.9875" ry="18"/>
<text text-anchor="middle" x="293.092" y="-295.3" font-family="Helvetica,sans-Serif" font-size="14.00" fill="white">Player Rankings</text>
</g>
<!-- G&#45;&gt;F -->
<g id="edge9" class="edge"><title>G&#45;&gt;F</title>
<path fill="none" stroke="white" stroke-dasharray="5,2" d="M329.642,-314.785C357.552,-325.52 397.194,-339.583 433.092,-348 495.415,-362.614 567.453,-371.607 620.984,-376.812"/>
<polygon fill="white" stroke="white" points="631.096,-377.772 620.715,-381.307 626.118,-377.3 621.141,-376.827 621.141,-376.827 621.141,-376.827 626.118,-377.3 621.566,-372.347 631.096,-377.772 631.096,-377.772"/>
<text text-anchor="middle" x="478.592" y="-338.4" font-family="Courier,monospace" font-size="12.00" fill="white">is a part of</text>
</g>
<!-- H -->
<g id="node9" class="node"><title>H</title>
<ellipse fill="#006699" stroke="white" cx="460.092" cy="-299" rx="74.187" ry="18"/>
<text text-anchor="middle" x="460.092" y="-295.3" font-family="Helvetica,sans-Serif" font-size="14.00" fill="white">Player Similarity</text>
</g>
<!-- H&#45;&gt;F -->
<g id="edge10" class="edge"><title>H&#45;&gt;F</title>
<path fill="none" stroke="white" stroke-dasharray="5,2" d="M488.12,-315.727C507.347,-326.012 533.698,-339.135 558.092,-348 582.527,-356.879 610.132,-364.255 634.462,-369.909"/>
<polygon fill="white" stroke="white" points="644.316,-372.148 633.567,-374.32 639.44,-371.04 634.564,-369.932 634.564,-369.932 634.564,-369.932 639.44,-371.04 635.561,-365.544 644.316,-372.148 644.316,-372.148"/>
<text text-anchor="middle" x="603.592" y="-338.4" font-family="Courier,monospace" font-size="12.00" fill="white">is a part of</text>
</g>
<!-- I -->
<g id="node10" class="node"><title>I</title>
<ellipse fill="#006699" stroke="white" cx="622.092" cy="-299" rx="69.5877" ry="18"/>
<text text-anchor="middle" x="622.092" y="-295.3" font-family="Helvetica,sans-Serif" font-size="14.00" fill="white">Deck Similarity</text>
</g>
<!-- I&#45;&gt;F -->
<g id="edge11" class="edge"><title>I&#45;&gt;F</title>
<path fill="none" stroke="white" stroke-dasharray="5,2" d="M636.599,-316.642C644.833,-325.974 655.401,-337.762 665.092,-348 668.53,-351.631 672.213,-355.42 675.852,-359.107"/>
<polygon fill="white" stroke="white" points="683.168,-366.449 672.922,-362.542 679.639,-362.908 676.11,-359.366 676.11,-359.366 676.11,-359.366 679.639,-362.908 679.297,-356.19 683.168,-366.449 683.168,-366.449"/>
<text text-anchor="middle" x="710.592" y="-338.4" font-family="Courier,monospace" font-size="12.00" fill="white">is a part of</text>
</g>
<!-- J -->
<g id="node11" class="node"><title>J</title>
<ellipse fill="#006699" stroke="white" cx="778.092" cy="-299" rx="68.7879" ry="18"/>
<text text-anchor="middle" x="778.092" y="-295.3" font-family="Helvetica,sans-Serif" font-size="14.00" fill="white">Card Rankings</text>
</g>
<!-- J&#45;&gt;F -->
<g id="edge12" class="edge"><title>J&#45;&gt;F</title>
<path fill="none" stroke="white" stroke-dasharray="5,2" d="M772.902,-317.39C769.338,-327.186 763.838,-339.186 756.092,-348 751.516,-353.208 745.977,-357.908 740.186,-362.05"/>
<polygon fill="white" stroke="white" points="731.603,-367.713 737.471,-358.449 735.776,-364.959 739.95,-362.206 739.95,-362.206 739.95,-362.206 735.776,-364.959 742.428,-365.962 731.603,-367.713 731.603,-367.713"/>
<text text-anchor="middle" x="810.592" y="-338.4" font-family="Courier,monospace" font-size="12.00" fill="white">is a part of</text>
</g>
<!-- K -->
<g id="node12" class="node"><title>K</title>
<ellipse fill="#006699" stroke="white" cx="955.092" cy="-299" rx="89.8845" ry="18"/>
<text text-anchor="middle" x="955.092" y="-295.3" font-family="Helvetica,sans-Serif" font-size="14.00" fill="white">Archetype Detection</text>
</g>
<!-- K&#45;&gt;F -->
<g id="edge13" class="edge"><title>K&#45;&gt;F</title>
<path fill="none" stroke="white" stroke-dasharray="5,2" d="M927.648,-316.203C909.103,-326.56 883.771,-339.581 860.092,-348 850.811,-351.3 804.696,-361.283 764.343,-369.747"/>
<polygon fill="white" stroke="white" points="754.503,-371.805 763.37,-365.353 759.397,-370.781 764.291,-369.757 764.291,-369.757 764.291,-369.757 759.397,-370.781 765.212,-374.162 754.503,-371.805 754.503,-371.805"/>
<text text-anchor="middle" x="935.592" y="-338.4" font-family="Courier,monospace" font-size="12.00" fill="white">is a part of</text>
</g>
<!-- L -->
<g id="node13" class="node"><title>L</title>
<ellipse fill="#006699" stroke="white" cx="1152.09" cy="-299" rx="89.0842" ry="18"/>
<text text-anchor="middle" x="1152.09" y="-295.3" font-family="Helvetica,sans-Serif" font-size="14.00" fill="white">Archetype Classifier</text>
</g>
<!-- L&#45;&gt;F -->
<g id="edge14" class="edge"><title>L&#45;&gt;F</title>
<path fill="none" stroke="white" stroke-dasharray="5,2" d="M1109.04,-314.837C1075.63,-325.745 1027.94,-340.008 985.092,-348 896.486,-364.525 872.274,-352.936 783.092,-366 776.443,-366.974 769.524,-368.142 762.642,-369.403"/>
<polygon fill="white" stroke="white" points="752.623,-371.307 761.608,-365.019 757.535,-370.373 762.447,-369.44 762.447,-369.44 762.447,-369.44 757.535,-370.373 763.287,-373.861 752.623,-371.307 752.623,-371.307"/>
<text text-anchor="middle" x="1086.59" y="-338.4" font-family="Courier,monospace" font-size="12.00" fill="white">is a part of</text>
</g>
<!-- M -->
<g id="node14" class="node"><title>M</title>
<ellipse fill="#006699" stroke="white" cx="1348.09" cy="-299" rx="89.0842" ry="18"/>
<text text-anchor="middle" x="1348.09" y="-295.3" font-family="Helvetica,sans-Serif" font-size="14.00" fill="white">Archetype Rankings</text>
</g>
<!-- M&#45;&gt;F -->
<g id="edge15" class="edge"><title>M&#45;&gt;F</title>
<path fill="none" stroke="white" stroke-dasharray="5,2" d="M1297.99,-313.903C1255.32,-325.128 1192.17,-340.28 1136.09,-348 980.467,-369.424 938.93,-346.183 783.092,-366 776.23,-366.873 769.087,-367.998 762,-369.255"/>
<polygon fill="white" stroke="white" points="751.693,-371.175 760.7,-364.92 756.609,-370.259 761.524,-369.343 761.524,-369.343 761.524,-369.343 756.609,-370.259 762.348,-373.767 751.693,-371.175 751.693,-371.175"/>
<text text-anchor="middle" x="1252.59" y="-338.4" font-family="Courier,monospace" font-size="12.00" fill="white">is a part of</text>
</g>
<!-- P -->
<g id="node15" class="node"><title>P</title>
<ellipse fill="#006699" stroke="white" cx="888.092" cy="-384" rx="96.3833" ry="18"/>
<text text-anchor="middle" x="888.092" y="-380.3" font-family="Helvetica,sans-Serif" font-size="14.00" fill="white">Tournament Manager</text>
</g>
<!-- P&#45;&gt;Z -->
<g id="edge23" class="edge"><title>P&#45;&gt;Z</title>
<path fill="none" stroke="red" stroke-dasharray="5,2" d="M865.816,-401.826C853.227,-411.335 837.33,-423.342 823.703,-433.634"/>
<polygon fill="red" stroke="red" points="815.562,-439.783 820.829,-430.165 819.552,-436.77 823.542,-433.756 823.542,-433.756 823.542,-433.756 819.552,-436.77 826.254,-437.347 815.562,-439.783 815.562,-439.783"/>
</g>
<!-- R -->
<g id="node16" class="node"><title>R</title>
<ellipse fill="#006699" stroke="white" cx="1528.09" cy="-299" rx="72.5877" ry="18"/>
<text text-anchor="middle" x="1528.09" y="-295.3" font-family="Helvetica,sans-Serif" font-size="14.00" fill="white">Seeding Engine</text>
</g>
<!-- R&#45;&gt;P -->
<g id="edge17" class="edge"><title>R&#45;&gt;P</title>
<path fill="none" stroke="white" stroke-dasharray="5,2" d="M1505.96,-316.4C1489.53,-327.567 1466.08,-341.465 1443.09,-348 1346.83,-375.371 1092.67,-355.984 993.092,-366 983.984,-366.916 974.467,-368.115 965.04,-369.452"/>
<polygon fill="white" stroke="white" points="954.869,-370.951 964.106,-365.041 959.816,-370.222 964.762,-369.493 964.762,-369.493 964.762,-369.493 959.816,-370.222 965.419,-373.945 954.869,-370.951 954.869,-370.951"/>
<text text-anchor="middle" x="1511.09" y="-338.4" font-family="Courier,monospace" font-size="12.00" fill="white">is used by</text>
</g>
<!-- S -->
<g id="node17" class="node"><title>S</title>
<ellipse fill="#006699" stroke="white" cx="752.092" cy="-129" rx="75.2868" ry="18"/>
<text text-anchor="middle" x="752.092" y="-125.3" font-family="Helvetica,sans-Serif" font-size="14.00" fill="white">Score Calculator</text>
</g>
<!-- S&#45;&gt;D -->
<g id="edge24" class="edge"><title>S&#45;&gt;D</title>
<path fill="none" stroke="red" stroke-dasharray="5,2" d="M712.465,-144.363C674.223,-158.223 616.14,-179.275 574.386,-194.409"/>
<polygon fill="red" stroke="red" points="564.944,-197.831 572.812,-190.193 569.644,-196.127 574.345,-194.424 574.345,-194.424 574.345,-194.424 569.644,-196.127 575.878,-198.654 564.944,-197.831 564.944,-197.831"/>
<text text-anchor="middle" x="690.092" y="-168.4" font-family="Courier,monospace" font-size="12.00" fill="white">is used by</text>
</g>
<!-- S&#45;&gt;P -->
<g id="edge16" class="edge"><title>S&#45;&gt;P</title>
<path fill="none" stroke="white" stroke-dasharray="5,2" d="M827.073,-131.404C1017.19,-136.706 1510.12,-161.895 1610.09,-281 1620.38,-293.255 1618.27,-303.247 1610.09,-317 1595.36,-341.788 1580.92,-340.444 1553.09,-348 1432.93,-380.625 1117.02,-354.026 993.092,-366 983.816,-366.896 974.116,-368.1 964.52,-369.455"/>
<polygon fill="white" stroke="white" points="954.58,-370.915 963.82,-365.009 959.527,-370.188 964.474,-369.462 964.474,-369.462 964.474,-369.462 959.527,-370.188 965.128,-373.914 954.58,-370.915 954.58,-370.915"/>
<text text-anchor="middle" x="1669.09" y="-253.4" font-family="Courier,monospace" font-size="12.00" fill="white">calculates scores for</text>
</g>
<!-- N -->
<g id="node18" class="node"><title>N</title>
<ellipse fill="#006699" stroke="white" cx="1059.09" cy="-384" rx="57.3905" ry="18"/>
<text text-anchor="middle" x="1059.09" y="-380.3" font-family="Helvetica,sans-Serif" font-size="14.00" fill="white">Drafting Bot</text>
</g>
<!-- N&#45;&gt;Z -->
<g id="edge22" class="edge"><title>N&#45;&gt;Z</title>
<path fill="none" stroke="red" stroke-dasharray="5,2" d="M1017.1,-396.25C972.088,-408.311 900.377,-427.524 850.47,-440.895"/>
<polygon fill="red" stroke="red" points="840.794,-443.488 849.288,-436.553 845.623,-442.194 850.453,-440.9 850.453,-440.9 850.453,-440.9 845.623,-442.194 851.618,-445.246 840.794,-443.488 840.794,-443.488"/>
</g>
<!-- O -->
<g id="node19" class="node"><title>O</title>
<ellipse fill="#006699" stroke="white" cx="1769.09" cy="-299" rx="112.38" ry="18"/>
<text text-anchor="middle" x="1769.09" y="-295.3" font-family="Helvetica,sans-Serif" font-size="14.00" fill="white">Recommendation System</text>
</g>
<!-- O&#45;&gt;N -->
<g id="edge18" class="edge"><title>O&#45;&gt;N</title>
<path fill="none" stroke="white" stroke-dasharray="5,2" d="M1734.93,-316.271C1710.06,-327.3 1675.25,-341.082 1643.09,-348 1546.29,-368.827 1258.2,-378.231 1126.34,-381.532"/>
<polygon fill="white" stroke="white" points="1115.97,-381.787 1125.86,-377.042 1120.97,-381.664 1125.97,-381.541 1125.97,-381.541 1125.97,-381.541 1120.97,-381.664 1126.08,-386.039 1115.97,-381.787 1115.97,-381.787"/>
<text text-anchor="middle" x="1727.59" y="-338.4" font-family="Courier,monospace" font-size="12.00" fill="white">is used for</text>
</g>
</g>
</svg>
