<?xml version="1.0" encoding="UTF-8" standalone="no"?>
<!DOCTYPE svg PUBLIC "-//W3C//DTD SVG 1.1//EN"
 "http://www.w3.org/Graphics/SVG/1.1/DTD/svg11.dtd">
<!-- Generated by graphviz version 2.38.0 (20140413.2041)
 -->
<!-- Title: %3 Pages: 1 -->
<svg width="1046pt" height="495pt"
 viewBox="0.00 0.00 1045.50 495.00" xmlns="http://www.w3.org/2000/svg" xmlns:xlink="http://www.w3.org/1999/xlink">
<g id="graph0" class="graph" transform="scale(1 1) rotate(0) translate(4 491)">
<title>%3</title>
<polygon fill="#333333" stroke="none" points="-4,4 -4,-491 1041.5,-491 1041.5,4 -4,4"/>
<text text-anchor="middle" x="518.75" y="-9.2" font-family="Times,serif" font-size="16.00" fill="yellow">Cube Science Model</text>
<!-- A -->
<g id="node1" class="node"><title>A</title>
<polygon fill="green" stroke="white" points="101,-487 0,-487 0,-451 101,-451 101,-487"/>
<text text-anchor="middle" x="50.5" y="-465.3" font-family="Helvetica,sans-Serif" font-size="14.00" fill="white">Matches Data</text>
</g>
<!-- C -->
<g id="node3" class="node"><title>C</title>
<ellipse fill="red" stroke="white" cx="309.5" cy="-384" rx="73.387" ry="18"/>
<text text-anchor="middle" x="309.5" y="-380.3" font-family="Helvetica,sans-Serif" font-size="14.00" fill="white">Loading Module</text>
</g>
<!-- A&#45;&gt;C -->
<g id="edge1" class="edge"><title>A&#45;&gt;C</title>
<path fill="none" stroke="white" d="M58.0234,-450.599C63.5228,-440.024 72.0265,-427.211 83.5,-420 107.433,-404.959 174.658,-395.822 229.613,-390.675"/>
<polygon fill="white" stroke="white" points="239.719,-389.759 230.166,-395.143 234.739,-390.211 229.76,-390.662 229.76,-390.662 229.76,-390.662 234.739,-390.211 229.354,-386.18 239.719,-389.759 239.719,-389.759"/>
<text text-anchor="middle" x="155" y="-423.4" font-family="Courier,monospace" font-size="12.00" fill="white">provides match data</text>
</g>
<!-- B -->
<g id="node2" class="node"><title>B</title>
<polygon fill="green" stroke="white" points="568,-487 465,-487 465,-451 568,-451 568,-487"/>
<text text-anchor="middle" x="516.5" y="-465.3" font-family="Helvetica,sans-Serif" font-size="14.00" fill="white">Decklists Data</text>
</g>
<!-- B&#45;&gt;C -->
<g id="edge2" class="edge"><title>B&#45;&gt;C</title>
<path fill="none" stroke="white" d="M466.682,-450.869C452.54,-445.572 437.253,-439.428 423.5,-433 412.862,-428.028 411.12,-425.01 400.5,-420 387.442,-413.84 372.983,-407.899 359.507,-402.715"/>
<polygon fill="white" stroke="white" points="349.901,-399.082 360.847,-398.411 354.578,-400.851 359.255,-402.62 359.255,-402.62 359.255,-402.62 354.578,-400.851 357.663,-406.829 349.901,-399.082 349.901,-399.082"/>
<text text-anchor="middle" x="506.5" y="-423.4" font-family="Courier,monospace" font-size="12.00" fill="white">provides decklist data</text>
</g>
<!-- M -->
<g id="node13" class="node"><title>M</title>
<ellipse fill="green" stroke="white" cx="769.5" cy="-384" rx="100.983" ry="18"/>
<text text-anchor="middle" x="769.5" y="-380.3" font-family="Helvetica,sans-Serif" font-size="14.00" fill="white">Reconstruction Module</text>
</g>
<!-- B&#45;&gt;M -->
<g id="edge16" class="edge"><title>B&#45;&gt;M</title>
<path fill="none" stroke="white" d="M553.502,-450.853C565.108,-445.317 577.911,-439.045 589.5,-433 599.911,-427.57 601.539,-424.212 612.5,-420 635.984,-410.975 662.382,-403.968 686.735,-398.676"/>
<polygon fill="white" stroke="white" points="696.671,-396.585 687.812,-403.048 691.779,-397.615 686.886,-398.644 686.886,-398.644 686.886,-398.644 691.779,-397.615 685.959,-394.241 696.671,-396.585 696.671,-396.585"/>
<text text-anchor="middle" x="676.5" y="-423.4" font-family="Courier,monospace" font-size="12.00" fill="white">provides data for</text>
</g>
<!-- D -->
<g id="node4" class="node"><title>D</title>
<ellipse fill="pink" stroke="white" cx="135.5" cy="-299" rx="72.5877" ry="18"/>
<text text-anchor="middle" x="135.5" y="-295.3" font-family="Helvetica,sans-Serif" font-size="14.00" fill="white">Seeding Engine</text>
</g>
<!-- C&#45;&gt;D -->
<g id="edge3" class="edge"><title>C&#45;&gt;D</title>
<path fill="none" stroke="white" d="M245.225,-375.052C208.235,-369.279 166.402,-360.313 152.5,-348 146.426,-342.62 142.522,-334.928 140.013,-327.273"/>
<polygon fill="white" stroke="white" points="137.453,-317.429 144.325,-325.975 138.712,-322.268 139.97,-327.107 139.97,-327.107 139.97,-327.107 138.712,-322.268 135.615,-328.24 137.453,-317.429 137.453,-317.429"/>
<text text-anchor="middle" x="228" y="-338.4" font-family="Courier,monospace" font-size="12.00" fill="white">loads match data for</text>
</g>
<!-- E -->
<g id="node5" class="node"><title>E</title>
<ellipse fill="teal" stroke="white" cx="305.5" cy="-299" rx="75.2868" ry="18"/>
<text text-anchor="middle" x="305.5" y="-295.3" font-family="Helvetica,sans-Serif" font-size="14.00" fill="white">Score Calculator</text>
</g>
<!-- C&#45;&gt;E -->
<g id="edge4" class="edge"><title>C&#45;&gt;E</title>
<path fill="none" stroke="white" d="M308.671,-365.802C308.135,-354.674 307.425,-339.945 306.813,-327.244"/>
<polygon fill="white" stroke="white" points="306.328,-317.176 311.304,-326.947 306.568,-322.17 306.809,-327.164 306.809,-327.164 306.809,-327.164 306.568,-322.17 302.314,-327.381 306.328,-317.176 306.328,-317.176"/>
<text text-anchor="middle" x="384" y="-338.4" font-family="Courier,monospace" font-size="12.00" fill="white">loads match data for</text>
</g>
<!-- F -->
<g id="node6" class="node"><title>F</title>
<ellipse fill="pink" stroke="white" cx="509.5" cy="-299" rx="110.48" ry="18"/>
<text text-anchor="middle" x="509.5" y="-295.3" font-family="Helvetica,sans-Serif" font-size="14.00" fill="white">Statistics/Analytic Module</text>
</g>
<!-- C&#45;&gt;F -->
<g id="edge5" class="edge"><title>C&#45;&gt;F</title>
<path fill="none" stroke="white" d="M376.259,-376.463C404.545,-371.563 437.015,-362.992 463.5,-348 473.7,-342.226 483.046,-333.481 490.61,-325.029"/>
<polygon fill="white" stroke="white" points="497.287,-317.123 494.273,-327.666 494.061,-320.943 490.835,-324.763 490.835,-324.763 490.835,-324.763 494.061,-320.943 487.397,-321.86 497.287,-317.123 497.287,-317.123"/>
<text text-anchor="middle" x="533.5" y="-338.4" font-family="Courier,monospace" font-size="12.00" fill="white">loads data for</text>
</g>
<!-- I -->
<g id="node9" class="node"><title>I</title>
<ellipse fill="lightblue" stroke="white" cx="481.5" cy="-129" rx="57.3905" ry="18"/>
<text text-anchor="middle" x="481.5" y="-125.3" font-family="Helvetica,sans-Serif" font-size="14.00" fill="white">Drafting Bot</text>
</g>
<!-- F&#45;&gt;I -->
<g id="edge11" class="edge"><title>F&#45;&gt;I</title>
<path fill="none" stroke="white" d="M547.331,-282.028C555.638,-276.997 563.68,-270.694 569.5,-263 587.593,-239.083 587.201,-224.377 577.5,-196 569.756,-173.346 548.648,-157.531 528.191,-147.074"/>
<polygon fill="white" stroke="white" points="518.888,-142.641 529.851,-142.88 523.402,-144.792 527.915,-146.943 527.915,-146.943 527.915,-146.943 523.402,-144.792 525.98,-151.005 518.888,-142.641 518.888,-142.641"/>
<text text-anchor="middle" x="621.5" y="-210.9" font-family="Courier,monospace" font-size="12.00" fill="white">is used in</text>
</g>
<!-- J -->
<g id="node10" class="node"><title>J</title>
<ellipse fill="lightblue" stroke="white" cx="262.5" cy="-129" rx="100.983" ry="18"/>
<text text-anchor="middle" x="262.5" y="-125.3" font-family="Helvetica,sans-Serif" font-size="14.00" fill="white">Cube Genetics Module</text>
</g>
<!-- F&#45;&gt;J -->
<g id="edge12" class="edge"><title>F&#45;&gt;J</title>
<path fill="none" stroke="white" d="M431.765,-286.192C370.509,-275.19 292.107,-256.759 271.5,-232 254.319,-211.358 254.282,-179.557 257.138,-156.956"/>
<polygon fill="white" stroke="white" points="258.656,-146.991 261.598,-157.555 257.903,-151.934 257.15,-156.877 257.15,-156.877 257.15,-156.877 257.903,-151.934 252.701,-156.199 258.656,-146.991 258.656,-146.991"/>
<text text-anchor="middle" x="309.5" y="-210.9" font-family="Courier,monospace" font-size="12.00" fill="white">is used in</text>
</g>
<!-- L -->
<g id="node12" class="node"><title>L</title>
<ellipse fill="lightblue" stroke="white" cx="462.5" cy="-214" rx="105.881" ry="18"/>
<text text-anchor="middle" x="462.5" y="-210.3" font-family="Helvetica,sans-Serif" font-size="14.00" fill="white">Deck Evaluation Module</text>
</g>
<!-- F&#45;&gt;L -->
<g id="edge13" class="edge"><title>F&#45;&gt;L</title>
<path fill="none" stroke="white" d="M499.762,-280.802C493.271,-269.34 484.617,-254.058 477.283,-241.106"/>
<polygon fill="white" stroke="white" points="472.226,-232.176 481.069,-238.66 474.69,-236.526 477.153,-240.877 477.153,-240.877 477.153,-240.877 474.69,-236.526 473.238,-243.095 472.226,-232.176 472.226,-232.176"/>
<text text-anchor="middle" x="527.5" y="-253.4" font-family="Courier,monospace" font-size="12.00" fill="white">is used in</text>
</g>
<!-- G -->
<g id="node7" class="node"><title>G</title>
<polygon fill="green" stroke="white" points="886,-487 805,-487 805,-451 886,-451 886,-487"/>
<text text-anchor="middle" x="845.5" y="-465.3" font-family="Helvetica,sans-Serif" font-size="14.00" fill="white">Cube Data</text>
</g>
<!-- G&#45;&gt;C -->
<g id="edge6" class="edge"><title>G&#45;&gt;C</title>
<path fill="none" stroke="white" d="M804.867,-453.523C790.251,-447.783 773.84,-440.709 759.5,-433 750.488,-428.155 750.144,-423.417 740.5,-420 678.462,-398.017 499.21,-389.728 392.416,-386.687"/>
<polygon fill="white" stroke="white" points="382.314,-386.409 392.434,-382.186 387.312,-386.547 392.31,-386.684 392.31,-386.684 392.31,-386.684 387.312,-386.547 392.186,-391.183 382.314,-386.409 382.314,-386.409"/>
<text text-anchor="middle" x="831" y="-423.4" font-family="Courier,monospace" font-size="12.00" fill="white">provides match data</text>
</g>
<!-- G&#45;&gt;M -->
<g id="edge17" class="edge"><title>G&#45;&gt;M</title>
<path fill="none" stroke="white" d="M886.019,-453.195C902.982,-444.683 916.667,-433.091 906.5,-420 899.287,-410.713 878.287,-403.475 854.829,-398.054"/>
<polygon fill="white" stroke="white" points="845.022,-395.916 855.751,-393.649 849.908,-396.981 854.793,-398.046 854.793,-398.046 854.793,-398.046 849.908,-396.981 853.834,-402.443 845.022,-395.916 845.022,-395.916"/>
<text text-anchor="middle" x="973.5" y="-423.4" font-family="Courier,monospace" font-size="12.00" fill="white">provides data for</text>
</g>
<!-- H -->
<g id="node8" class="node"><title>H</title>
<polygon fill="green" stroke="white" points="288.5,-487 178.5,-487 178.5,-451 288.5,-451 288.5,-487"/>
<text text-anchor="middle" x="233.5" y="-465.3" font-family="Helvetica,sans-Serif" font-size="14.00" fill="white">Card Dictionary</text>
</g>
<!-- H&#45;&gt;C -->
<g id="edge7" class="edge"><title>H&#45;&gt;C</title>
<path fill="none" stroke="white" d="M229.632,-450.704C228.425,-440.939 228.675,-428.939 234.5,-420 239.023,-413.059 245.313,-407.469 252.344,-402.974"/>
<polygon fill="white" stroke="white" points="261.57,-397.846 255.016,-406.637 257.2,-400.275 252.83,-402.704 252.83,-402.704 252.83,-402.704 257.2,-400.275 250.643,-398.771 261.57,-397.846 261.57,-397.846"/>
<text text-anchor="middle" x="317.5" y="-423.4" font-family="Courier,monospace" font-size="12.00" fill="white">provides decklist data</text>
</g>
<!-- K -->
<g id="node11" class="node"><title>K</title>
<ellipse fill="lightblue" stroke="white" cx="255.5" cy="-44" rx="60.3893" ry="18"/>
<text text-anchor="middle" x="255.5" y="-40.3" font-family="Helvetica,sans-Serif" font-size="14.00" fill="white">Deck Builder</text>
</g>
<!-- I&#45;&gt;K -->
<g id="edge9" class="edge"><title>I&#45;&gt;K</title>
<path fill="none" stroke="white" d="M477.908,-110.788C474.809,-100.288 469.238,-87.4873 459.5,-80 438.602,-63.932 374.651,-54.7855 323.86,-49.9045"/>
<polygon fill="white" stroke="white" points="313.894,-48.9844 324.266,-45.4229 318.873,-49.4441 323.852,-49.9038 323.852,-49.9038 323.852,-49.9038 318.873,-49.4441 323.438,-54.3848 313.894,-48.9844 313.894,-48.9844"/>
<text text-anchor="middle" x="572" y="-83.4" font-family="Courier,monospace" font-size="12.00" fill="white">provides selected draft set</text>
</g>
<!-- J&#45;&gt;K -->
<g id="edge10" class="edge"><title>J&#45;&gt;K</title>
<path fill="none" stroke="white" d="M259.058,-110.978C258.048,-105.286 257.063,-98.8916 256.5,-93 255.865,-86.357 255.529,-79.1742 255.368,-72.4391"/>
<polygon fill="white" stroke="white" points="255.24,-62.3658 259.867,-72.3077 255.303,-67.3654 255.367,-72.365 255.367,-72.365 255.367,-72.365 255.303,-67.3654 250.867,-72.4223 255.24,-62.3658 255.24,-62.3658"/>
<text text-anchor="middle" x="358" y="-83.4" font-family="Courier,monospace" font-size="12.00" fill="white">provides selected draft set</text>
</g>
<!-- K&#45;&gt;A -->
<g id="edge8" class="edge"><title>K&#45;&gt;A</title>
<path fill="none" stroke="white" d="M204.243,-53.6841C138.957,-66.2279 34.5,-91.9334 34.5,-128 34.5,-385 34.5,-385 34.5,-385 34.5,-403.9 38.5495,-424.79 42.574,-440.884"/>
<polygon fill="white" stroke="white" points="45.1722,-450.699 38.2629,-442.184 43.8926,-445.866 42.613,-441.032 42.613,-441.032 42.613,-441.032 43.8926,-445.866 46.9632,-439.88 45.1722,-450.699 45.1722,-450.699"/>
<text text-anchor="middle" x="117.5" y="-253.4" font-family="Courier,monospace" font-size="12.00" fill="white">provides decklist data</text>
</g>
<!-- L&#45;&gt;I -->
<g id="edge14" class="edge"><title>L&#45;&gt;I</title>
<path fill="none" stroke="white" d="M466.437,-195.802C468.984,-184.674 472.356,-169.945 475.263,-157.244"/>
<polygon fill="white" stroke="white" points="477.568,-147.176 479.723,-157.928 476.452,-152.05 475.337,-156.923 475.337,-156.923 475.337,-156.923 476.452,-152.05 470.95,-155.919 477.568,-147.176 477.568,-147.176"/>
<text text-anchor="middle" x="511.5" y="-168.4" font-family="Courier,monospace" font-size="12.00" fill="white">is used in</text>
</g>
<!-- L&#45;&gt;J -->
<g id="edge15" class="edge"><title>L&#45;&gt;J</title>
<path fill="none" stroke="white" d="M424.411,-197.193C391.881,-183.693 344.943,-164.214 309.972,-149.701"/>
<polygon fill="white" stroke="white" points="300.447,-145.748 311.409,-145.425 305.066,-147.665 309.684,-149.581 309.684,-149.581 309.684,-149.581 305.066,-147.665 307.959,-153.738 300.447,-145.748 300.447,-145.748"/>
<text text-anchor="middle" x="412.5" y="-168.4" font-family="Courier,monospace" font-size="12.00" fill="white">is used in</text>
</g>
</g>
</svg>
