<?xml version="1.0" encoding="UTF-8" standalone="no"?>
<!DOCTYPE svg PUBLIC "-//W3C//DTD SVG 1.1//EN"
 "http://www.w3.org/Graphics/SVG/1.1/DTD/svg11.dtd">
<!-- Generated by graphviz version 2.38.0 (20140413.2041)
 -->
<!-- Title: %3 Pages: 1 -->
<svg width="283pt" height="325pt"
 viewBox="0.00 0.00 282.75 325.00" xmlns="http://www.w3.org/2000/svg" xmlns:xlink="http://www.w3.org/1999/xlink">
<g id="graph0" class="graph" transform="scale(1 1) rotate(0) translate(4 321)">
<title>%3</title>
<polygon fill="#333333" stroke="none" points="-4,4 -4,-321 278.747,-321 278.747,4 -4,4"/>
<text text-anchor="middle" x="137.373" y="-9.2" font-family="Times,serif" font-size="16.00" fill="yellow">Archetypes and games</text>
<!-- Control -->
<g id="node1" class="node"><title>Control</title>
<ellipse fill="lightgreen" stroke="white" cx="177.747" cy="-299" rx="38.9931" ry="18"/>
<text text-anchor="middle" x="177.747" y="-295.3" font-family="Helvetica,sans-Serif" font-size="14.00" fill="blue">Control</text>
</g>
<!-- Control&#45;&gt;Control -->
<g id="edge16" class="edge"><title>Control&#45;&gt;Control</title>
<path fill="none" stroke="lightblue" d="M213.091,-306.875C225.095,-306.916 234.744,-304.291 234.744,-299 234.744,-295.362 230.183,-292.985 223.432,-291.868"/>
<polygon fill="lightblue" stroke="lightblue" points="213.091,-291.125 223.388,-287.353 218.078,-291.484 223.065,-291.842 223.065,-291.842 223.065,-291.842 218.078,-291.484 222.743,-296.33 213.091,-291.125 213.091,-291.125"/>
<text text-anchor="middle" x="238.744" y="-295.9" font-family="Courier,monospace" font-size="12.00" fill="white">5</text>
</g>
<!-- Aggro -->
<g id="node2" class="node"><title>Aggro</title>
<ellipse fill="lightgreen" stroke="white" cx="47.747" cy="-214" rx="34.394" ry="18"/>
<text text-anchor="middle" x="47.747" y="-210.3" font-family="Helvetica,sans-Serif" font-size="14.00" fill="blue">Aggro</text>
</g>
<!-- Control&#45;&gt;Aggro -->
<g id="edge12" class="edge"><title>Control&#45;&gt;Aggro</title>
<path fill="none" stroke="lightblue" d="M143.242,-290.252C124.368,-284.82 101.322,-276.136 83.747,-263 75.5364,-256.863 68.3186,-248.352 62.5436,-240.198"/>
<polygon fill="lightblue" stroke="lightblue" points="56.8647,-231.62 66.1373,-237.474 59.6249,-235.789 62.385,-239.958 62.385,-239.958 62.385,-239.958 59.6249,-235.789 58.6328,-242.442 56.8647,-231.62 56.8647,-231.62"/>
<text text-anchor="middle" x="91.747" y="-253.4" font-family="Courier,monospace" font-size="12.00" fill="white">21</text>
</g>
<!-- Ramp -->
<g id="node3" class="node"><title>Ramp</title>
<ellipse fill="lightgreen" stroke="white" cx="128.747" cy="-44" rx="34.394" ry="18"/>
<text text-anchor="middle" x="128.747" y="-40.3" font-family="Helvetica,sans-Serif" font-size="14.00" fill="blue">Ramp</text>
</g>
<!-- Control&#45;&gt;Ramp -->
<g id="edge1" class="edge"><title>Control&#45;&gt;Ramp</title>
<path fill="none" stroke="lightblue" d="M189.478,-281.825C212.279,-248.238 257.728,-169.218 226.747,-111 213.846,-86.7578 187.638,-69.8211 165.568,-59.1787"/>
<polygon fill="lightblue" stroke="lightblue" points="156.414,-55.0001 167.38,-55.059 160.962,-57.0764 165.511,-59.1527 165.511,-59.1527 165.511,-59.1527 160.962,-57.0764 163.642,-63.2464 156.414,-55.0001 156.414,-55.0001"/>
<text text-anchor="middle" x="245.747" y="-168.4" font-family="Courier,monospace" font-size="12.00" fill="white">10</text>
</g>
<!-- Mid&#45;Range -->
<g id="node4" class="node"><title>Mid&#45;Range</title>
<ellipse fill="lightgreen" stroke="white" cx="129.747" cy="-129" rx="53.8905" ry="18"/>
<text text-anchor="middle" x="129.747" y="-125.3" font-family="Helvetica,sans-Serif" font-size="14.00" fill="blue">Mid&#45;Range</text>
</g>
<!-- Control&#45;&gt;Mid&#45;Range -->
<g id="edge13" class="edge"><title>Control&#45;&gt;Mid&#45;Range</title>
<path fill="none" stroke="lightblue" d="M181.386,-280.818C185.007,-260.065 188.721,-224.406 178.747,-196 173.292,-180.465 162.802,-165.527 152.922,-153.803"/>
<polygon fill="lightblue" stroke="lightblue" points="146.25,-146.233 156.238,-150.759 149.556,-149.984 152.862,-153.735 152.862,-153.735 152.862,-153.735 149.556,-149.984 149.486,-156.71 146.25,-146.233 146.25,-146.233"/>
<text text-anchor="middle" x="189.747" y="-210.9" font-family="Courier,monospace" font-size="12.00" fill="white">6</text>
</g>
<!-- Aggro&#45;&gt;Control -->
<g id="edge3" class="edge"><title>Aggro&#45;&gt;Control</title>
<path fill="none" stroke="lightblue" d="M68.4202,-228.542C83.2273,-238.209 103.663,-251.485 121.747,-263 129.843,-268.155 138.633,-273.682 146.797,-278.786"/>
<polygon fill="lightblue" stroke="lightblue" points="155.348,-284.12 144.481,-282.645 151.106,-281.474 146.863,-278.827 146.863,-278.827 146.863,-278.827 151.106,-281.474 149.245,-275.009 155.348,-284.12 155.348,-284.12"/>
<text text-anchor="middle" x="129.747" y="-253.4" font-family="Courier,monospace" font-size="12.00" fill="white">16</text>
</g>
<!-- Aggro&#45;&gt;Aggro -->
<g id="edge4" class="edge"><title>Aggro&#45;&gt;Aggro</title>
<path fill="none" stroke="lightblue" d="M78.976,-221.858C90.6141,-222.115 100.194,-219.496 100.194,-214 100.194,-210.221 95.6659,-207.803 89.0542,-206.744"/>
<polygon fill="lightblue" stroke="lightblue" points="78.976,-206.142 89.2263,-202.246 83.9672,-206.44 88.9583,-206.738 88.9583,-206.738 88.9583,-206.738 83.9672,-206.44 88.6902,-211.23 78.976,-206.142 78.976,-206.142"/>
<text text-anchor="middle" x="108.194" y="-210.9" font-family="Courier,monospace" font-size="12.00" fill="white">26</text>
</g>
<!-- Aggro&#45;&gt;Ramp -->
<g id="edge9" class="edge"><title>Aggro&#45;&gt;Ramp</title>
<path fill="none" stroke="lightblue" d="M33.5842,-197.574C23.0653,-185.004 9.57335,-166.243 3.74696,-147 -0.889584,-131.687 -1.42869,-126.14 3.74696,-111 15.3871,-76.9505 54.702,-60.2537 86.1699,-52.2019"/>
<polygon fill="lightblue" stroke="lightblue" points="96.066,-49.8804 87.3581,-56.5454 91.1981,-51.0223 86.3303,-52.1643 86.3303,-52.1643 86.3303,-52.1643 91.1981,-51.0223 85.3025,-47.7832 96.066,-49.8804 96.066,-49.8804"/>
<text text-anchor="middle" x="11.747" y="-125.9" font-family="Courier,monospace" font-size="12.00" fill="white">22</text>
</g>
<!-- Aggro&#45;&gt;Mid&#45;Range -->
<g id="edge5" class="edge"><title>Aggro&#45;&gt;Mid&#45;Range</title>
<path fill="none" stroke="lightblue" d="M70.2995,-200.259C79.7454,-194.261 90.4372,-186.546 98.747,-178 105.109,-171.457 110.902,-163.417 115.714,-155.802"/>
<polygon fill="lightblue" stroke="lightblue" points="120.886,-147.172 119.605,-158.063 118.316,-151.461 115.745,-155.75 115.745,-155.75 115.745,-155.75 118.316,-151.461 111.885,-153.436 120.886,-147.172 120.886,-147.172"/>
<text text-anchor="middle" x="117.747" y="-168.4" font-family="Courier,monospace" font-size="12.00" fill="white">23</text>
</g>
<!-- Ramp&#45;&gt;Control -->
<g id="edge2" class="edge"><title>Ramp&#45;&gt;Control</title>
<path fill="none" stroke="lightblue" d="M159.647,-52.1645C178.778,-57.6342 203.154,-66.556 221.747,-80 254.993,-104.039 253.632,-124.181 257.747,-165 262.433,-211.48 250.302,-227.663 219.747,-263 215.51,-267.9 210.547,-272.675 205.546,-277.044"/>
<polygon fill="lightblue" stroke="lightblue" points="197.755,-283.533 202.559,-273.675 201.597,-280.333 205.439,-277.133 205.439,-277.133 205.439,-277.133 201.597,-280.333 208.319,-280.59 197.755,-283.533 197.755,-283.533"/>
<text text-anchor="middle" x="266.747" y="-168.4" font-family="Courier,monospace" font-size="12.00" fill="white">12</text>
</g>
<!-- Ramp&#45;&gt;Aggro -->
<g id="edge10" class="edge"><title>Ramp&#45;&gt;Aggro</title>
<path fill="none" stroke="lightblue" d="M105.271,-57.4723C86.7602,-68.7368 62.2191,-87.1884 50.747,-111 39.4985,-134.347 40.1258,-164.318 42.7295,-185.719"/>
<polygon fill="lightblue" stroke="lightblue" points="44.1707,-195.759 38.2954,-186.5 43.4602,-190.81 42.7497,-185.86 42.7497,-185.86 42.7497,-185.86 43.4602,-190.81 47.2041,-185.221 44.1707,-195.759 44.1707,-195.759"/>
<text text-anchor="middle" x="58.747" y="-125.9" font-family="Courier,monospace" font-size="12.00" fill="white">20</text>
</g>
<!-- Ramp&#45;&gt;Ramp -->
<g id="edge14" class="edge"><title>Ramp&#45;&gt;Ramp</title>
<path fill="none" stroke="lightblue" d="M159.976,-51.8577C171.614,-52.1153 181.194,-49.4961 181.194,-44 181.194,-40.2214 176.666,-37.8026 170.054,-36.7436"/>
<polygon fill="lightblue" stroke="lightblue" points="159.976,-36.1423 170.226,-32.246 164.967,-36.4401 169.958,-36.738 169.958,-36.738 169.958,-36.738 164.967,-36.4401 169.69,-41.23 159.976,-36.1423 159.976,-36.1423"/>
<text text-anchor="middle" x="185.194" y="-40.9" font-family="Courier,monospace" font-size="12.00" fill="white">2</text>
</g>
<!-- Ramp&#45;&gt;Mid&#45;Range -->
<g id="edge15" class="edge"><title>Ramp&#45;&gt;Mid&#45;Range</title>
<path fill="none" stroke="lightblue" d="M128.954,-62.1756C129.088,-73.2997 129.265,-88.0274 129.418,-100.731"/>
<polygon fill="lightblue" stroke="lightblue" points="129.54,-110.802 124.92,-100.857 129.479,-105.803 129.419,-100.803 129.419,-100.803 129.419,-100.803 129.479,-105.803 133.919,-100.749 129.54,-110.802 129.54,-110.802"/>
<text text-anchor="middle" x="137.747" y="-83.4" font-family="Courier,monospace" font-size="12.00" fill="white">10</text>
</g>
<!-- Mid&#45;Range&#45;&gt;Control -->
<g id="edge11" class="edge"><title>Mid&#45;Range&#45;&gt;Control</title>
<path fill="none" stroke="lightblue" d="M134.626,-147.078C142.973,-176.291 160.053,-236.071 170.03,-270.99"/>
<polygon fill="lightblue" stroke="lightblue" points="172.88,-280.967 165.806,-272.588 171.507,-276.159 170.133,-271.351 170.133,-271.351 170.133,-271.351 171.507,-276.159 174.46,-270.115 172.88,-280.967 172.88,-280.967"/>
<text text-anchor="middle" x="166.747" y="-210.9" font-family="Courier,monospace" font-size="12.00" fill="white">12</text>
</g>
<!-- Mid&#45;Range&#45;&gt;Aggro -->
<g id="edge7" class="edge"><title>Mid&#45;Range&#45;&gt;Aggro</title>
<path fill="none" stroke="lightblue" d="M103.83,-144.918C95.2768,-150.558 86.0835,-157.455 78.747,-165 72.2851,-171.645 66.4105,-179.834 61.5554,-187.555"/>
<polygon fill="lightblue" stroke="lightblue" points="56.35,-196.282 57.6078,-185.388 58.9113,-191.988 61.4726,-187.693 61.4726,-187.693 61.4726,-187.693 58.9113,-191.988 65.3373,-189.999 56.35,-196.282 56.35,-196.282"/>
<text text-anchor="middle" x="86.747" y="-168.4" font-family="Courier,monospace" font-size="12.00" fill="white">21</text>
</g>
<!-- Mid&#45;Range&#45;&gt;Ramp -->
<g id="edge6" class="edge"><title>Mid&#45;Range&#45;&gt;Ramp</title>
<path fill="none" stroke="lightblue" d="M121.421,-110.948C119.107,-105.364 116.91,-99.0408 115.747,-93 114.387,-85.937 115.289,-78.3874 117.125,-71.416"/>
<polygon fill="lightblue" stroke="lightblue" points="120.328,-61.7398 121.457,-72.6474 118.756,-66.4865 117.185,-71.2332 117.185,-71.2332 117.185,-71.2332 118.756,-66.4865 112.913,-69.819 120.328,-61.7398 120.328,-61.7398"/>
<text text-anchor="middle" x="119.747" y="-83.4" font-family="Courier,monospace" font-size="12.00" fill="white">6</text>
</g>
<!-- Mid&#45;Range&#45;&gt;Mid&#45;Range -->
<g id="edge8" class="edge"><title>Mid&#45;Range&#45;&gt;Mid&#45;Range</title>
<path fill="none" stroke="lightblue" d="M178.505,-136.817C191.674,-136.404 201.692,-133.799 201.692,-129 201.692,-125.551 196.517,-123.235 188.716,-122.052"/>
<polygon fill="lightblue" stroke="lightblue" points="178.505,-121.183 188.85,-117.547 183.487,-121.607 188.469,-122.031 188.469,-122.031 188.469,-122.031 183.487,-121.607 188.087,-126.514 178.505,-121.183 178.505,-121.183"/>
<text text-anchor="middle" x="209.692" y="-125.9" font-family="Courier,monospace" font-size="12.00" fill="white">12</text>
</g>
</g>
</svg>
