<?xml version="1.0" encoding="UTF-8" standalone="no"?>
<!DOCTYPE svg PUBLIC "-//W3C//DTD SVG 1.1//EN"
 "http://www.w3.org/Graphics/SVG/1.1/DTD/svg11.dtd">
<!-- Generated by graphviz version 2.38.0 (20140413.2041)
 -->
<!-- Title: %3 Pages: 1 -->
<svg width="1720pt" height="920pt"
 viewBox="0.00 0.00 1720.00 920.00" xmlns="http://www.w3.org/2000/svg" xmlns:xlink="http://www.w3.org/1999/xlink">
<g id="graph0" class="graph" transform="scale(1 1) rotate(0) translate(4 916)">
<title>%3</title>
<polygon fill="#333333" stroke="none" points="-4,4 -4,-916 1716,-916 1716,4 -4,4"/>
<text text-anchor="middle" x="856" y="-9.2" font-family="Times,serif" font-size="16.00" fill="purple">Colors and matches</text>
<!-- WG -->
<g id="node1" class="node"><title>WG</title>
<ellipse fill="lightgreen" stroke="white" cx="1166" cy="-894" rx="27" ry="18"/>
<text text-anchor="middle" x="1166" y="-890.3" font-family="Helvetica,sans-Serif" font-size="14.00" fill="blue">WG</text>
</g>
<!-- WG&#45;&gt;WG -->
<g id="edge38" class="edge"><title>WG&#45;&gt;WG</title>
<path fill="none" stroke="lightblue" d="M1190.53,-901.752C1201.51,-902.49 1211,-899.906 1211,-894 1211,-890.032 1206.72,-887.563 1200.57,-886.594"/>
<polygon fill="lightblue" stroke="lightblue" points="1190.53,-886.248 1200.68,-882.096 1195.53,-886.42 1200.53,-886.593 1200.53,-886.593 1200.53,-886.593 1195.53,-886.42 1200.37,-891.09 1190.53,-886.248 1190.53,-886.248"/>
<text text-anchor="middle" x="1215" y="-890.9" font-family="Courier,monospace" font-size="12.00" fill="white">9</text>
</g>
<!-- BG -->
<g id="node3" class="node"><title>BG</title>
<ellipse fill="lightgreen" stroke="white" cx="277" cy="-809" rx="27" ry="18"/>
<text text-anchor="middle" x="277" y="-805.3" font-family="Helvetica,sans-Serif" font-size="14.00" fill="blue">BG</text>
</g>
<!-- WG&#45;&gt;BG -->
<g id="edge86" class="edge"><title>WG&#45;&gt;BG</title>
<path fill="none" stroke="lightblue" d="M1139.06,-892.653C996.916,-890.73 339.305,-880.633 303,-858 294.936,-852.973 289.201,-844.52 285.206,-836.097"/>
<polygon fill="lightblue" stroke="lightblue" points="281.405,-826.783 289.35,-834.342 283.295,-831.412 285.184,-836.042 285.184,-836.042 285.184,-836.042 283.295,-831.412 281.017,-837.742 281.405,-826.783 281.405,-826.783"/>
<text text-anchor="middle" x="307" y="-848.4" font-family="Courier,monospace" font-size="12.00" fill="white">6</text>
</g>
<!-- WB -->
<g id="node4" class="node"><title>WB</title>
<ellipse fill="lightgreen" stroke="white" cx="1007" cy="-469" rx="27" ry="18"/>
<text text-anchor="middle" x="1007" y="-465.3" font-family="Helvetica,sans-Serif" font-size="14.00" fill="blue">WB</text>
</g>
<!-- WG&#45;&gt;WB -->
<g id="edge40" class="edge"><title>WG&#45;&gt;WB</title>
<path fill="none" stroke="lightblue" d="M1192.82,-890.793C1237.42,-885.496 1322,-867.828 1322,-810 1322,-810 1322,-810 1322,-680.5 1322,-615.603 1343.16,-585.338 1301,-536 1283.47,-515.48 1268.19,-527.705 1243,-518 1230.2,-513.067 1228.14,-508.963 1215,-505 1164.21,-489.676 1149.3,-495.925 1097,-487 1078.96,-483.921 1058.94,-480.174 1042.38,-476.982"/>
<polygon fill="lightblue" stroke="lightblue" points="1032.56,-475.077 1043.23,-472.564 1037.47,-476.029 1042.38,-476.981 1042.38,-476.981 1042.38,-476.981 1037.47,-476.029 1041.52,-481.399 1032.56,-475.077 1032.56,-475.077"/>
<text text-anchor="middle" x="1326" y="-678.4" font-family="Courier,monospace" font-size="12.00" fill="white">2</text>
</g>
<!-- WUBG -->
<g id="node6" class="node"><title>WUBG</title>
<ellipse fill="lightgreen" stroke="white" cx="1375" cy="-384" rx="38.9931" ry="18"/>
<text text-anchor="middle" x="1375" y="-380.3" font-family="Helvetica,sans-Serif" font-size="14.00" fill="blue">WUBG</text>
</g>
<!-- WG&#45;&gt;WUBG -->
<g id="edge35" class="edge"><title>WG&#45;&gt;WUBG</title>
<path fill="none" stroke="lightblue" d="M1192.86,-891.397C1243.65,-887.928 1351.39,-878.339 1382,-858 1402.95,-844.078 1412,-835.157 1412,-810 1412,-810 1412,-810 1412,-680.5 1412,-564.31 1418.13,-532.732 1390,-420 1389.28,-417.114 1388.35,-414.161 1387.3,-411.253"/>
<polygon fill="lightblue" stroke="lightblue" points="1383.45,-401.71 1391.37,-409.299 1385.32,-406.347 1387.2,-410.983 1387.2,-410.983 1387.2,-410.983 1385.32,-406.347 1383.02,-412.667 1383.45,-401.71 1383.45,-401.71"/>
<text text-anchor="middle" x="1416" y="-635.9" font-family="Courier,monospace" font-size="12.00" fill="white">1</text>
</g>
<!-- UW -->
<g id="node7" class="node"><title>UW</title>
<ellipse fill="lightgreen" stroke="white" cx="1290" cy="-214" rx="27" ry="18"/>
<text text-anchor="middle" x="1290" y="-210.3" font-family="Helvetica,sans-Serif" font-size="14.00" fill="blue">UW</text>
</g>
<!-- WG&#45;&gt;UW -->
<g id="edge17" class="edge"><title>WG&#45;&gt;UW</title>
<path fill="none" stroke="lightblue" d="M1193.19,-893.253C1264.89,-893.453 1457.25,-890.835 1510,-858 1531.36,-844.705 1540,-835.157 1540,-810 1540,-810 1540,-810 1540,-595.5 1540,-491.725 1571.61,-438.128 1497,-366 1458.86,-329.127 1423.77,-376.459 1379,-348 1339.01,-322.582 1312.8,-272.005 1299.76,-241.07"/>
<polygon fill="lightblue" stroke="lightblue" points="1295.99,-231.773 1303.92,-239.347 1297.87,-236.406 1299.75,-241.039 1299.75,-241.039 1299.75,-241.039 1297.87,-236.406 1295.58,-242.731 1295.99,-231.773 1295.99,-231.773"/>
<text text-anchor="middle" x="1546" y="-550.9" font-family="Courier,monospace" font-size="12.00" fill="white">2</text>
</g>
<!-- UBRG -->
<g id="node8" class="node"><title>UBRG</title>
<ellipse fill="lightgreen" stroke="white" cx="1515" cy="-129" rx="36.2938" ry="18"/>
<text text-anchor="middle" x="1515" y="-125.3" font-family="Helvetica,sans-Serif" font-size="14.00" fill="blue">UBRG</text>
</g>
<!-- WG&#45;&gt;UBRG -->
<g id="edge15" class="edge"><title>WG&#45;&gt;UBRG</title>
<path fill="none" stroke="lightblue" d="M1193.11,-892.617C1270.82,-891.204 1493.08,-884.857 1560,-858 1591.69,-845.28 1620,-844.15 1620,-810 1620,-810 1620,-810 1620,-213 1620,-178.299 1584.27,-155.839 1554.49,-143.147"/>
<polygon fill="lightblue" stroke="lightblue" points="1545.09,-139.366 1556.05,-138.921 1549.73,-141.231 1554.37,-143.096 1554.37,-143.096 1554.37,-143.096 1549.73,-141.231 1552.69,-147.271 1545.09,-139.366 1545.09,-139.366"/>
<text text-anchor="middle" x="1624" y="-508.4" font-family="Courier,monospace" font-size="12.00" fill="white">1</text>
</g>
<!-- Naya -->
<g id="node9" class="node"><title>Naya</title>
<ellipse fill="lightgreen" stroke="white" cx="818" cy="-129" rx="31.3957" ry="18"/>
<text text-anchor="middle" x="818" y="-125.3" font-family="Helvetica,sans-Serif" font-size="14.00" fill="blue">Naya</text>
</g>
<!-- WG&#45;&gt;Naya -->
<g id="edge31" class="edge"><title>WG&#45;&gt;Naya</title>
<path fill="none" stroke="lightblue" d="M1138.6,-892.984C1001.43,-892.548 396,-886.303 396,-810 396,-810 396,-810 396,-680.5 396,-548.269 566.713,-607.119 622,-487 628.69,-472.466 622.881,-466.976 622,-451 619.329,-402.557 610,-391.016 610,-342.5 610,-342.5 610,-342.5 610,-213 610,-177.073 718.4,-149.763 778.69,-137.351"/>
<polygon fill="lightblue" stroke="lightblue" points="788.64,-135.348 779.725,-141.733 783.738,-136.335 778.837,-137.322 778.837,-137.322 778.837,-137.322 783.738,-136.335 777.948,-132.91 788.64,-135.348 788.64,-135.348"/>
<text text-anchor="middle" x="616" y="-508.4" font-family="Courier,monospace" font-size="12.00" fill="white">2</text>
</g>
<!-- UR -->
<g id="node10" class="node"><title>UR</title>
<ellipse fill="lightgreen" stroke="white" cx="320" cy="-384" rx="27" ry="18"/>
<text text-anchor="middle" x="320" y="-380.3" font-family="Helvetica,sans-Serif" font-size="14.00" fill="blue">UR</text>
</g>
<!-- WG&#45;&gt;UR -->
<g id="edge62" class="edge"><title>WG&#45;&gt;UR</title>
<path fill="none" stroke="lightblue" d="M1138.77,-892.843C1009.49,-891.957 456.816,-886.537 287,-858 214.204,-845.767 128,-883.817 128,-810 128,-810 128,-810 128,-680.5 128,-615.781 117.96,-594.329 146,-536 176.868,-471.789 249.02,-423.829 290.061,-400.592"/>
<polygon fill="lightblue" stroke="lightblue" points="299.051,-395.616 292.481,-404.396 294.677,-398.038 290.302,-400.459 290.302,-400.459 290.302,-400.459 294.677,-398.038 288.123,-396.522 299.051,-395.616 299.051,-395.616"/>
<text text-anchor="middle" x="132" y="-635.9" font-family="Courier,monospace" font-size="12.00" fill="white">5</text>
</g>
<!-- Grixis -->
<g id="node11" class="node"><title>Grixis</title>
<ellipse fill="lightgreen" stroke="white" cx="996" cy="-214" rx="33.5952" ry="18"/>
<text text-anchor="middle" x="996" y="-210.3" font-family="Helvetica,sans-Serif" font-size="14.00" fill="blue">Grixis</text>
</g>
<!-- WG&#45;&gt;Grixis -->
<g id="edge70" class="edge"><title>WG&#45;&gt;Grixis</title>
<path fill="none" stroke="lightblue" d="M1192.78,-891.235C1247.12,-887.306 1368.28,-876.684 1405,-858 1431.61,-844.46 1452,-839.857 1452,-810 1452,-810 1452,-810 1452,-510.5 1452,-444.997 1469.74,-411.894 1423,-366 1391.09,-334.666 1367.83,-356.869 1324,-348 1292.98,-341.724 1212.74,-332.24 1185,-317 1165.17,-306.104 1167.72,-293.708 1149,-281 1112.99,-256.559 1066.47,-238.052 1034.22,-226.944"/>
<polygon fill="lightblue" stroke="lightblue" points="1024.7,-223.737 1035.62,-222.665 1029.44,-225.333 1034.18,-226.929 1034.18,-226.929 1034.18,-226.929 1029.44,-225.333 1032.74,-231.194 1024.7,-223.737 1024.7,-223.737"/>
<text text-anchor="middle" x="1456" y="-550.9" font-family="Courier,monospace" font-size="12.00" fill="white">1</text>
</g>
<!-- BR -->
<g id="node14" class="node"><title>BR</title>
<ellipse fill="lightgreen" stroke="white" cx="351" cy="-299" rx="27" ry="18"/>
<text text-anchor="middle" x="351" y="-295.3" font-family="Helvetica,sans-Serif" font-size="14.00" fill="blue">BR</text>
</g>
<!-- WG&#45;&gt;BR -->
<g id="edge84" class="edge"><title>WG&#45;&gt;BR</title>
<path fill="none" stroke="lightblue" d="M1138.95,-893.068C983.106,-893.333 203.397,-892.894 103,-858 69.0783,-846.21 38,-845.912 38,-810 38,-810 38,-810 38,-383 38,-326.459 231.237,-307.528 314.047,-302.011"/>
<polygon fill="lightblue" stroke="lightblue" points="324.043,-301.375 314.349,-306.501 319.053,-301.693 314.063,-302.01 314.063,-302.01 314.063,-302.01 319.053,-301.693 313.777,-297.52 324.043,-301.375 324.043,-301.375"/>
<text text-anchor="middle" x="42" y="-593.4" font-family="Courier,monospace" font-size="12.00" fill="white">5</text>
</g>
<!-- UG -->
<g id="node16" class="node"><title>UG</title>
<ellipse fill="lightgreen" stroke="white" cx="991" cy="-554" rx="27" ry="18"/>
<text text-anchor="middle" x="991" y="-550.3" font-family="Helvetica,sans-Serif" font-size="14.00" fill="blue">UG</text>
</g>
<!-- WG&#45;&gt;UG -->
<g id="edge67" class="edge"><title>WG&#45;&gt;UG</title>
<path fill="none" stroke="lightblue" d="M1179.44,-878.333C1192.38,-862.64 1210,-836.421 1210,-810 1210,-810 1210,-810 1210,-638 1210,-549.864 1103.7,-607.44 1023,-572 1022.14,-571.624 1021.28,-571.234 1020.41,-570.833"/>
<polygon fill="lightblue" stroke="lightblue" points="1011.09,-566.256 1022.05,-566.625 1015.58,-568.46 1020.06,-570.664 1020.06,-570.664 1020.06,-570.664 1015.58,-568.46 1018.08,-574.704 1011.09,-566.256 1011.09,-566.256"/>
<text text-anchor="middle" x="1214" y="-720.9" font-family="Courier,monospace" font-size="12.00" fill="white">2</text>
</g>
<!-- WR -->
<g id="node17" class="node"><title>WR</title>
<ellipse fill="lightgreen" stroke="white" cx="740" cy="-724" rx="27" ry="18"/>
<text text-anchor="middle" x="740" y="-720.3" font-family="Helvetica,sans-Serif" font-size="14.00" fill="blue">WR</text>
</g>
<!-- WG&#45;&gt;WR -->
<g id="edge44" class="edge"><title>WG&#45;&gt;WR</title>
<path fill="none" stroke="lightblue" d="M1139.18,-890.97C1101.37,-887.474 1030.68,-878.6 974,-858 893.021,-828.571 807.302,-772.539 765.68,-743.492"/>
<polygon fill="lightblue" stroke="lightblue" points="757.485,-737.723 768.252,-739.8 761.574,-740.602 765.662,-743.48 765.662,-743.48 765.662,-743.48 761.574,-740.602 763.071,-747.159 757.485,-737.723 757.485,-737.723"/>
<text text-anchor="middle" x="907" y="-805.9" font-family="Courier,monospace" font-size="12.00" fill="white">5</text>
</g>
<!-- UB -->
<g id="node19" class="node"><title>UB</title>
<ellipse fill="lightgreen" stroke="white" cx="971" cy="-639" rx="27" ry="18"/>
<text text-anchor="middle" x="971" y="-635.3" font-family="Helvetica,sans-Serif" font-size="14.00" fill="blue">UB</text>
</g>
<!-- WG&#45;&gt;UB -->
<g id="edge29" class="edge"><title>WG&#45;&gt;UB</title>
<path fill="none" stroke="lightblue" d="M1138.9,-891.266C1113.65,-888.267 1076.47,-880.113 1053,-858 997.829,-806.013 979.488,-713.259 973.622,-667.325"/>
<polygon fill="lightblue" stroke="lightblue" points="972.439,-657.226 978.072,-666.635 973.02,-662.192 973.602,-667.158 973.602,-667.158 973.602,-667.158 973.02,-662.192 969.133,-667.682 972.439,-657.226 972.439,-657.226"/>
<text text-anchor="middle" x="1004" y="-763.4" font-family="Courier,monospace" font-size="12.00" fill="white">6</text>
</g>
<!-- Bant -->
<g id="node2" class="node"><title>Bant</title>
<ellipse fill="lightgreen" stroke="white" cx="919" cy="-384" rx="28.6953" ry="18"/>
<text text-anchor="middle" x="919" y="-380.3" font-family="Helvetica,sans-Serif" font-size="14.00" fill="blue">Bant</text>
</g>
<!-- Bant&#45;&gt;WB -->
<g id="edge91" class="edge"><title>Bant&#45;&gt;WB</title>
<path fill="none" stroke="lightblue" d="M931.136,-400.414C939.156,-410.196 950.155,-422.873 961,-433 967.085,-438.683 974.058,-444.358 980.703,-449.434"/>
<polygon fill="lightblue" stroke="lightblue" points="988.855,-455.499 978.146,-453.14 984.843,-452.514 980.832,-449.53 980.832,-449.53 980.832,-449.53 984.843,-452.514 983.518,-445.919 988.855,-455.499 988.855,-455.499"/>
<text text-anchor="middle" x="965" y="-423.4" font-family="Courier,monospace" font-size="12.00" fill="white">3</text>
</g>
<!-- Bant&#45;&gt;Grixis -->
<g id="edge63" class="edge"><title>Bant&#45;&gt;Grixis</title>
<path fill="none" stroke="lightblue" d="M915.299,-365.819C911.643,-344.755 908.254,-308.474 921,-281 930.177,-261.22 948.428,-244.95 964.628,-233.513"/>
<polygon fill="lightblue" stroke="lightblue" points="973.346,-227.665 967.548,-236.973 969.193,-230.451 965.041,-233.236 965.041,-233.236 965.041,-233.236 969.193,-230.451 962.534,-229.499 973.346,-227.665 973.346,-227.665"/>
<text text-anchor="middle" x="925" y="-295.9" font-family="Courier,monospace" font-size="12.00" fill="white">3</text>
</g>
<!-- RG -->
<g id="node12" class="node"><title>RG</title>
<ellipse fill="lightgreen" stroke="white" cx="965" cy="-299" rx="27" ry="18"/>
<text text-anchor="middle" x="965" y="-295.3" font-family="Helvetica,sans-Serif" font-size="14.00" fill="blue">RG</text>
</g>
<!-- Bant&#45;&gt;RG -->
<g id="edge33" class="edge"><title>Bant&#45;&gt;RG</title>
<path fill="none" stroke="lightblue" d="M928.088,-366.602C934.683,-354.702 943.722,-338.392 951.205,-324.891"/>
<polygon fill="lightblue" stroke="lightblue" points="956.087,-316.082 955.176,-327.01 953.664,-320.455 951.24,-324.828 951.24,-324.828 951.24,-324.828 953.664,-320.455 947.304,-322.647 956.087,-316.082 956.087,-316.082"/>
<text text-anchor="middle" x="949" y="-338.4" font-family="Courier,monospace" font-size="12.00" fill="white">3</text>
</g>
<!-- BG&#45;&gt;WG -->
<g id="edge85" class="edge"><title>BG&#45;&gt;WG</title>
<path fill="none" stroke="lightblue" d="M290.334,-825.184C301.319,-836.512 317.974,-851.163 336,-858 410.651,-886.316 977.16,-891.833 1128.78,-892.807"/>
<polygon fill="lightblue" stroke="lightblue" points="1138.96,-892.869 1128.94,-897.308 1133.96,-892.839 1128.96,-892.808 1128.96,-892.808 1128.96,-892.808 1133.96,-892.839 1128.99,-888.308 1138.96,-892.869 1138.96,-892.869"/>
<text text-anchor="middle" x="340" y="-848.4" font-family="Courier,monospace" font-size="12.00" fill="white">2</text>
</g>
<!-- BG&#45;&gt;BG -->
<g id="edge69" class="edge"><title>BG&#45;&gt;BG</title>
<path fill="none" stroke="lightblue" d="M301.532,-816.752C312.508,-817.49 322,-814.906 322,-809 322,-805.032 317.715,-802.563 311.574,-801.594"/>
<polygon fill="lightblue" stroke="lightblue" points="301.532,-801.248 311.682,-797.096 306.529,-801.42 311.527,-801.593 311.527,-801.593 311.527,-801.593 306.529,-801.42 311.371,-806.09 301.532,-801.248 301.532,-801.248"/>
<text text-anchor="middle" x="326" y="-805.9" font-family="Courier,monospace" font-size="12.00" fill="white">3</text>
</g>
<!-- BG&#45;&gt;UR -->
<g id="edge16" class="edge"><title>BG&#45;&gt;UR</title>
<path fill="none" stroke="lightblue" d="M267.824,-792.041C259.328,-775.739 248,-749.422 248,-725 248,-725 248,-725 248,-595.5 248,-516.89 229.423,-487.328 270,-420 274.717,-412.173 281.932,-405.647 289.425,-400.434"/>
<polygon fill="lightblue" stroke="lightblue" points="298.216,-394.918 292.137,-404.044 293.981,-397.575 289.745,-400.233 289.745,-400.233 289.745,-400.233 293.981,-397.575 287.354,-396.421 298.216,-394.918 298.216,-394.918"/>
<text text-anchor="middle" x="252" y="-593.4" font-family="Courier,monospace" font-size="12.00" fill="white">2</text>
</g>
<!-- BG&#45;&gt;BR -->
<g id="edge75" class="edge"><title>BG&#45;&gt;BR</title>
<path fill="none" stroke="lightblue" d="M252.538,-801.283C220.401,-790.794 168,-767.219 168,-725 168,-725 168,-725 168,-383 168,-319.551 260.367,-304.363 313.857,-300.888"/>
<polygon fill="lightblue" stroke="lightblue" points="323.998,-300.338 314.256,-305.373 319.005,-300.609 314.012,-300.879 314.012,-300.879 314.012,-300.879 319.005,-300.609 313.769,-296.386 323.998,-300.338 323.998,-300.338"/>
<text text-anchor="middle" x="172" y="-550.9" font-family="Courier,monospace" font-size="12.00" fill="white">3</text>
</g>
<!-- BG&#45;&gt;WR -->
<g id="edge41" class="edge"><title>BG&#45;&gt;WR</title>
<path fill="none" stroke="lightblue" d="M302.885,-803.36C381.014,-789.354 614.587,-747.482 704.332,-731.394"/>
<polygon fill="lightblue" stroke="lightblue" points="714.297,-729.608 705.248,-735.802 709.376,-730.49 704.454,-731.372 704.454,-731.372 704.454,-731.372 709.376,-730.49 703.66,-726.943 714.297,-729.608 714.297,-729.608"/>
<text text-anchor="middle" x="541" y="-763.4" font-family="Courier,monospace" font-size="12.00" fill="white">2</text>
</g>
<!-- WB&#45;&gt;WG -->
<g id="edge76" class="edge"><title>WB&#45;&gt;WG</title>
<path fill="none" stroke="lightblue" d="M1032.38,-475.858C1088.61,-489.046 1219.84,-521.081 1234,-536 1252.71,-555.701 1248,-568.333 1248,-595.5 1248,-810 1248,-810 1248,-810 1248,-840.4 1219.82,-863.682 1196.5,-877.744"/>
<polygon fill="lightblue" stroke="lightblue" points="1187.54,-882.851 1194,-873.987 1191.89,-880.374 1196.23,-877.896 1196.23,-877.896 1196.23,-877.896 1191.89,-880.374 1198.46,-881.805 1187.54,-882.851 1187.54,-882.851"/>
<text text-anchor="middle" x="1252" y="-678.4" font-family="Courier,monospace" font-size="12.00" fill="white">6</text>
</g>
<!-- WB&#45;&gt;Bant -->
<g id="edge25" class="edge"><title>WB&#45;&gt;Bant</title>
<path fill="none" stroke="lightblue" d="M981.025,-463.366C963.07,-458.768 940.136,-449.863 927,-433 922.413,-427.111 920.039,-419.569 918.897,-412.216"/>
<polygon fill="lightblue" stroke="lightblue" points="918.001,-402.141 923.37,-411.703 918.444,-407.121 918.887,-412.101 918.887,-412.101 918.887,-412.101 918.444,-407.121 914.405,-412.5 918.001,-402.141 918.001,-402.141"/>
<text text-anchor="middle" x="931" y="-423.4" font-family="Courier,monospace" font-size="12.00" fill="white">2</text>
</g>
<!-- G -->
<g id="node5" class="node"><title>G</title>
<ellipse fill="lightgreen" stroke="white" cx="1113" cy="-299" rx="27" ry="18"/>
<text text-anchor="middle" x="1113" y="-295.3" font-family="Helvetica,sans-Serif" font-size="14.00" fill="blue">G</text>
</g>
<!-- WB&#45;&gt;G -->
<g id="edge61" class="edge"><title>WB&#45;&gt;G</title>
<path fill="none" stroke="lightblue" d="M1030.31,-459.823C1071.98,-444.967 1155.6,-413.976 1163,-402 1179.53,-375.255 1156.08,-342.264 1136.04,-321.178"/>
<polygon fill="lightblue" stroke="lightblue" points="1128.89,-313.982 1139.13,-317.904 1132.41,-317.529 1135.93,-321.076 1135.93,-321.076 1135.93,-321.076 1132.41,-317.529 1132.74,-324.248 1128.89,-313.982 1128.89,-313.982"/>
<text text-anchor="middle" x="1173" y="-380.9" font-family="Courier,monospace" font-size="12.00" fill="white">2</text>
</g>
<!-- WB&#45;&gt;WUBG -->
<g id="edge18" class="edge"><title>WB&#45;&gt;WUBG</title>
<path fill="none" stroke="lightblue" d="M1032.29,-462.295C1093.99,-448.38 1252.84,-412.552 1330.68,-394.997"/>
<polygon fill="lightblue" stroke="lightblue" points="1340.66,-392.746 1331.89,-399.336 1335.78,-393.846 1330.9,-394.946 1330.9,-394.946 1330.9,-394.946 1335.78,-393.846 1329.91,-390.557 1340.66,-392.746 1340.66,-392.746"/>
<text text-anchor="middle" x="1218" y="-423.4" font-family="Courier,monospace" font-size="12.00" fill="white">2</text>
</g>
<!-- WB&#45;&gt;UW -->
<g id="edge3" class="edge"><title>WB&#45;&gt;UW</title>
<path fill="none" stroke="lightblue" d="M1032.9,-462.91C1058.5,-457.37 1098.45,-447.342 1131,-433 1154.93,-422.457 1162.49,-420.465 1181,-402 1229.24,-353.887 1263.82,-280.132 1279.89,-241.185"/>
<polygon fill="lightblue" stroke="lightblue" points="1283.76,-231.621 1284.18,-242.579 1281.88,-236.258 1280.01,-240.894 1280.01,-240.894 1280.01,-240.894 1281.88,-236.258 1275.84,-239.208 1283.76,-231.621 1283.76,-231.621"/>
<text text-anchor="middle" x="1237" y="-338.4" font-family="Courier,monospace" font-size="12.00" fill="white">2</text>
</g>
<!-- WB&#45;&gt;UR -->
<g id="edge2" class="edge"><title>WB&#45;&gt;UR</title>
<path fill="none" stroke="lightblue" d="M979.987,-466.692C937.475,-463.986 852.817,-455.956 785,-433 773.509,-429.11 772.632,-423.443 761,-420 751.344,-417.141 461.339,-395.462 356.969,-387.73"/>
<polygon fill="lightblue" stroke="lightblue" points="346.891,-386.984 357.196,-383.234 351.877,-387.353 356.864,-387.722 356.864,-387.722 356.864,-387.722 351.877,-387.353 356.532,-392.21 346.891,-386.984 346.891,-386.984"/>
<text text-anchor="middle" x="789" y="-423.4" font-family="Courier,monospace" font-size="12.00" fill="white">2</text>
</g>
<!-- WB&#45;&gt;Grixis -->
<g id="edge43" class="edge"><title>WB&#45;&gt;Grixis</title>
<path fill="none" stroke="lightblue" d="M1015.74,-451.739C1022.22,-438.708 1030.51,-419.735 1034,-402 1047.03,-335.714 1061.13,-311.869 1034,-250 1031.7,-244.763 1028.19,-239.965 1024.22,-235.71"/>
<polygon fill="lightblue" stroke="lightblue" points="1016.72,-228.663 1027.09,-232.232 1020.36,-232.087 1024.01,-235.511 1024.01,-235.511 1024.01,-235.511 1020.36,-232.087 1020.93,-238.79 1016.72,-228.663 1016.72,-228.663"/>
<text text-anchor="middle" x="1052" y="-338.4" font-family="Courier,monospace" font-size="12.00" fill="white">2</text>
</g>
<!-- WB&#45;&gt;RG -->
<g id="edge64" class="edge"><title>WB&#45;&gt;RG</title>
<path fill="none" stroke="lightblue" d="M1001.97,-450.95C1000.34,-445.256 998.543,-438.867 997,-433 987.347,-396.3 977.277,-353.598 971.072,-326.685"/>
<polygon fill="lightblue" stroke="lightblue" points="968.815,-316.853 975.438,-325.593 969.933,-321.726 971.052,-326.6 971.052,-326.6 971.052,-326.6 969.933,-321.726 966.666,-327.607 968.815,-316.853 968.815,-316.853"/>
<text text-anchor="middle" x="993" y="-380.9" font-family="Courier,monospace" font-size="12.00" fill="white">3</text>
</g>
<!-- WB&#45;&gt;BR -->
<g id="edge46" class="edge"><title>WB&#45;&gt;BR</title>
<path fill="none" stroke="lightblue" d="M981.733,-462.252C953.758,-455.746 907.405,-444.543 868,-433 778.036,-406.647 758.49,-390.485 668,-366 567.412,-338.782 446.285,-316.376 387.105,-306.084"/>
<polygon fill="lightblue" stroke="lightblue" points="377.133,-304.363 387.752,-301.629 382.06,-305.213 386.987,-306.064 386.987,-306.064 386.987,-306.064 382.06,-305.213 386.222,-310.498 377.133,-304.363 377.133,-304.363"/>
<text text-anchor="middle" x="780" y="-380.9" font-family="Courier,monospace" font-size="12.00" fill="white">2</text>
</g>
<!-- WB&#45;&gt;UG -->
<g id="edge28" class="edge"><title>WB&#45;&gt;UG</title>
<path fill="none" stroke="lightblue" d="M991.202,-483.773C985.593,-489.676 979.943,-497.044 977,-505 974.35,-512.164 975.176,-520.075 977.401,-527.373"/>
<polygon fill="lightblue" stroke="lightblue" points="981.109,-536.816 973.266,-529.152 979.282,-532.162 977.454,-527.507 977.454,-527.507 977.454,-527.507 979.282,-532.162 981.643,-525.863 981.109,-536.816 981.109,-536.816"/>
<text text-anchor="middle" x="981" y="-508.4" font-family="Courier,monospace" font-size="12.00" fill="white">2</text>
</g>
<!-- WB&#45;&gt;WR -->
<g id="edge74" class="edge"><title>WB&#45;&gt;WR</title>
<path fill="none" stroke="lightblue" d="M987.284,-481.32C976.724,-487.738 963.719,-496.224 953,-505 874.889,-568.949 794.904,-658.657 759.22,-700.214"/>
<polygon fill="lightblue" stroke="lightblue" points="752.688,-707.862 755.761,-697.335 755.935,-704.06 759.183,-700.258 759.183,-700.258 759.183,-700.258 755.935,-704.06 762.604,-703.181 752.688,-707.862 752.688,-707.862"/>
<text text-anchor="middle" x="863" y="-593.4" font-family="Courier,monospace" font-size="12.00" fill="white">2</text>
</g>
<!-- Boros -->
<g id="node18" class="node"><title>Boros</title>
<ellipse fill="lightgreen" stroke="white" cx="1120" cy="-384" rx="33.5952" ry="18"/>
<text text-anchor="middle" x="1120" y="-380.3" font-family="Helvetica,sans-Serif" font-size="14.00" fill="blue">Boros</text>
</g>
<!-- WB&#45;&gt;Boros -->
<g id="edge52" class="edge"><title>WB&#45;&gt;Boros</title>
<path fill="none" stroke="lightblue" d="M1029.56,-458.751C1043.37,-452.533 1061.01,-443.558 1075,-433 1084.26,-426.013 1093.25,-417.016 1100.74,-408.704"/>
<polygon fill="lightblue" stroke="lightblue" points="1107.41,-401.031 1104.24,-411.531 1104.12,-404.805 1100.84,-408.578 1100.84,-408.578 1100.84,-408.578 1104.12,-404.805 1097.45,-405.626 1107.41,-401.031 1107.41,-401.031"/>
<text text-anchor="middle" x="1093" y="-423.4" font-family="Courier,monospace" font-size="12.00" fill="white">2</text>
</g>
<!-- WB&#45;&gt;UB -->
<g id="edge5" class="edge"><title>WB&#45;&gt;UB</title>
<path fill="none" stroke="lightblue" d="M1015.5,-486.328C1024.99,-506.834 1037.7,-542.863 1027,-572 1020.52,-589.64 1007.01,-605.794 994.886,-617.706"/>
<polygon fill="lightblue" stroke="lightblue" points="987.588,-624.549 991.804,-614.426 991.235,-621.129 994.883,-617.709 994.883,-617.709 994.883,-617.709 991.235,-621.129 997.961,-620.991 987.588,-624.549 987.588,-624.549"/>
<text text-anchor="middle" x="1036" y="-550.9" font-family="Courier,monospace" font-size="12.00" fill="white">2</text>
</g>
<!-- G&#45;&gt;UW -->
<g id="edge59" class="edge"><title>G&#45;&gt;UW</title>
<path fill="none" stroke="lightblue" d="M1134.7,-287.823C1165.84,-273.222 1223.35,-246.255 1258.97,-229.551"/>
<polygon fill="lightblue" stroke="lightblue" points="1268.4,-225.131 1261.25,-233.451 1263.87,-227.254 1259.34,-229.376 1259.34,-229.376 1259.34,-229.376 1263.87,-227.254 1257.43,-225.302 1268.4,-225.131 1268.4,-225.131"/>
<text text-anchor="middle" x="1217" y="-253.4" font-family="Courier,monospace" font-size="12.00" fill="white">2</text>
</g>
<!-- G&#45;&gt;Boros -->
<g id="edge60" class="edge"><title>G&#45;&gt;Boros</title>
<path fill="none" stroke="lightblue" d="M1107.13,-316.94C1104.7,-326.156 1102.89,-337.738 1105,-348 1105.6,-350.914 1106.45,-353.885 1107.45,-356.803"/>
<polygon fill="lightblue" stroke="lightblue" points="1111.24,-366.36 1103.37,-358.726 1109.4,-361.713 1107.55,-357.066 1107.55,-357.066 1107.55,-357.066 1109.4,-361.713 1111.73,-355.405 1111.24,-366.36 1111.24,-366.36"/>
<text text-anchor="middle" x="1109" y="-338.4" font-family="Courier,monospace" font-size="12.00" fill="white">2</text>
</g>
<!-- WUBG&#45;&gt;WG -->
<g id="edge71" class="edge"><title>WUBG&#45;&gt;WG</title>
<path fill="none" stroke="lightblue" d="M1374.04,-402.184C1372.12,-438.079 1368,-523.649 1368,-595.5 1368,-810 1368,-810 1368,-810 1368,-880.315 1261.99,-892.311 1203.56,-893.584"/>
<polygon fill="lightblue" stroke="lightblue" points="1193.24,-893.708 1203.19,-889.088 1198.24,-893.648 1203.24,-893.588 1203.24,-893.588 1203.24,-893.588 1198.24,-893.648 1203.3,-898.087 1193.24,-893.708 1193.24,-893.708"/>
<text text-anchor="middle" x="1372" y="-635.9" font-family="Courier,monospace" font-size="12.00" fill="white">2</text>
</g>
<!-- WUBG&#45;&gt;UG -->
<g id="edge48" class="edge"><title>WUBG&#45;&gt;UG</title>
<path fill="none" stroke="lightblue" d="M1345.35,-395.826C1328.77,-402.221 1307.9,-410.843 1290,-420 1266.72,-431.907 1261.52,-436.143 1240,-451 1218.35,-465.951 1216.49,-475.151 1193,-487 1122.79,-522.41 1095.89,-506.507 1023,-536 1022.13,-536.351 1021.26,-536.719 1020.38,-537.1"/>
<polygon fill="lightblue" stroke="lightblue" points="1011.01,-541.557 1018.11,-533.197 1015.53,-539.409 1020.04,-537.261 1020.04,-537.261 1020.04,-537.261 1015.53,-539.409 1021.97,-541.325 1011.01,-541.557 1011.01,-541.557"/>
<text text-anchor="middle" x="1244" y="-465.9" font-family="Courier,monospace" font-size="12.00" fill="white">2</text>
</g>
<!-- WUBG&#45;&gt;WR -->
<g id="edge78" class="edge"><title>WUBG&#45;&gt;WR</title>
<path fill="none" stroke="lightblue" d="M1359.16,-400.526C1353.1,-406.546 1346.17,-413.534 1340,-420 1262.1,-501.64 1258.98,-542.062 1164,-603 1037.16,-684.38 854.477,-711.571 776.988,-719.783"/>
<polygon fill="lightblue" stroke="lightblue" points="766.769,-720.819 776.264,-715.333 771.743,-720.315 776.718,-719.81 776.718,-719.81 776.718,-719.81 771.743,-720.315 777.172,-724.287 766.769,-720.819 766.769,-720.819"/>
<text text-anchor="middle" x="1248" y="-550.9" font-family="Courier,monospace" font-size="12.00" fill="white">1</text>
</g>
<!-- WUBG&#45;&gt;UB -->
<g id="edge47" class="edge"><title>WUBG&#45;&gt;UB</title>
<path fill="none" stroke="lightblue" d="M1349.85,-397.774C1338.75,-403.886 1325.79,-411.68 1315,-420 1281.65,-445.711 1279,-458.497 1248,-487 1223.16,-509.84 1212.89,-511.205 1190,-536 1165.15,-562.915 1172.73,-583.063 1142,-603 1101.51,-629.269 1045.21,-636.399 1008.45,-638.037"/>
<polygon fill="lightblue" stroke="lightblue" points="998.163,-638.374 1008.01,-633.548 1003.16,-638.21 1008.16,-638.046 1008.16,-638.046 1008.16,-638.046 1003.16,-638.21 1008.31,-642.543 998.163,-638.374 998.163,-638.374"/>
<text text-anchor="middle" x="1230" y="-508.4" font-family="Courier,monospace" font-size="12.00" fill="white">2</text>
</g>
<!-- UW&#45;&gt;WG -->
<g id="edge39" class="edge"><title>UW&#45;&gt;WG</title>
<path fill="none" stroke="lightblue" d="M1316.69,-216.858C1388.77,-222.604 1582,-243.123 1582,-298 1582,-427.5 1582,-427.5 1582,-427.5 1582,-539.944 1582,-568.056 1582,-680.5 1582,-810 1582,-810 1582,-810 1582,-840.805 1560,-845.154 1532,-858 1474.19,-884.526 1284.56,-890.963 1203.4,-892.513"/>
<polygon fill="lightblue" stroke="lightblue" points="1193.15,-892.694 1203.06,-888.019 1198.14,-892.606 1203.14,-892.518 1203.14,-892.518 1203.14,-892.518 1198.14,-892.606 1203.22,-897.017 1193.15,-892.694 1193.15,-892.694"/>
<text text-anchor="middle" x="1586" y="-550.9" font-family="Courier,monospace" font-size="12.00" fill="white">1</text>
</g>
<!-- UW&#45;&gt;G -->
<g id="edge72" class="edge"><title>UW&#45;&gt;G</title>
<path fill="none" stroke="lightblue" d="M1264.41,-220.568C1241.31,-226.168 1206.78,-235.987 1179,-250 1163.99,-257.569 1148.72,-268.429 1136.66,-277.906"/>
<polygon fill="lightblue" stroke="lightblue" points="1128.85,-284.189 1133.82,-274.411 1132.75,-281.052 1136.64,-277.916 1136.64,-277.916 1136.64,-277.916 1132.75,-281.052 1139.47,-281.421 1128.85,-284.189 1128.85,-284.189"/>
<text text-anchor="middle" x="1183" y="-253.4" font-family="Courier,monospace" font-size="12.00" fill="white">1</text>
</g>
<!-- UW&#45;&gt;UBRG -->
<g id="edge36" class="edge"><title>UW&#45;&gt;UBRG</title>
<path fill="none" stroke="lightblue" d="M1313.23,-204.43C1352.02,-190.123 1430.31,-161.242 1477.14,-143.965"/>
<polygon fill="lightblue" stroke="lightblue" points="1486.64,-140.463 1478.81,-148.146 1481.94,-142.194 1477.25,-143.924 1477.25,-143.924 1477.25,-143.924 1481.94,-142.194 1475.7,-139.702 1486.64,-140.463 1486.64,-140.463"/>
<text text-anchor="middle" x="1419" y="-168.4" font-family="Courier,monospace" font-size="12.00" fill="white">2</text>
</g>
<!-- UW&#45;&gt;Boros -->
<g id="edge57" class="edge"><title>UW&#45;&gt;Boros</title>
<path fill="none" stroke="lightblue" d="M1275.26,-229.57C1245.55,-258.931 1178.3,-325.384 1142.85,-360.415"/>
<polygon fill="lightblue" stroke="lightblue" points="1135.39,-367.795 1139.34,-357.565 1138.94,-364.28 1142.5,-360.766 1142.5,-360.766 1142.5,-360.766 1138.94,-364.28 1145.66,-363.966 1135.39,-367.795 1135.39,-367.795"/>
<text text-anchor="middle" x="1226" y="-295.9" font-family="Courier,monospace" font-size="12.00" fill="white">2</text>
</g>
<!-- UBRG&#45;&gt;WG -->
<g id="edge77" class="edge"><title>UBRG&#45;&gt;WG</title>
<path fill="none" stroke="lightblue" d="M1549.62,-134.718C1591.94,-142.659 1658,-163.053 1658,-213 1658,-810 1658,-810 1658,-810 1658,-846.631 1625.39,-845.373 1591,-858 1520.22,-883.99 1293.03,-890.779 1203.12,-892.469"/>
<polygon fill="lightblue" stroke="lightblue" points="1193.11,-892.646 1203.03,-887.969 1198.11,-892.557 1203.11,-892.469 1203.11,-892.469 1203.11,-892.469 1198.11,-892.557 1203.19,-896.968 1193.11,-892.646 1193.11,-892.646"/>
<text text-anchor="middle" x="1662" y="-508.4" font-family="Courier,monospace" font-size="12.00" fill="white">2</text>
</g>
<!-- UBRG&#45;&gt;UW -->
<g id="edge9" class="edge"><title>UBRG&#45;&gt;UW</title>
<path fill="none" stroke="lightblue" d="M1479.11,-132.647C1444.39,-136.319 1391,-144.952 1349,-165 1335.33,-171.528 1322.06,-181.848 1311.58,-191.249"/>
<polygon fill="lightblue" stroke="lightblue" points="1304.14,-198.18 1308.39,-188.069 1307.8,-194.77 1311.46,-191.359 1311.46,-191.359 1311.46,-191.359 1307.8,-194.77 1314.53,-194.65 1304.14,-198.18 1304.14,-198.18"/>
<text text-anchor="middle" x="1353" y="-168.4" font-family="Courier,monospace" font-size="12.00" fill="white">1</text>
</g>
<!-- Jund -->
<g id="node13" class="node"><title>Jund</title>
<ellipse fill="lightgreen" stroke="white" cx="1514" cy="-44" rx="29.795" ry="18"/>
<text text-anchor="middle" x="1514" y="-40.3" font-family="Helvetica,sans-Serif" font-size="14.00" fill="blue">Jund</text>
</g>
<!-- UBRG&#45;&gt;Jund -->
<g id="edge50" class="edge"><title>UBRG&#45;&gt;Jund</title>
<path fill="none" stroke="lightblue" d="M1514.79,-110.802C1514.66,-99.6736 1514.48,-84.9448 1514.33,-72.2439"/>
<polygon fill="lightblue" stroke="lightblue" points="1514.21,-62.1756 1518.83,-72.1206 1514.27,-67.1753 1514.33,-72.1749 1514.33,-72.1749 1514.33,-72.1749 1514.27,-67.1753 1509.83,-72.2292 1514.21,-62.1756 1514.21,-62.1756"/>
<text text-anchor="middle" x="1518" y="-83.4" font-family="Courier,monospace" font-size="12.00" fill="white">1</text>
</g>
<!-- Naya&#45;&gt;WG -->
<g id="edge51" class="edge"><title>Naya&#45;&gt;WG</title>
<path fill="none" stroke="lightblue" d="M787.145,-132.281C750.926,-135.812 689.631,-144.484 641,-165 618.623,-174.44 611.061,-176.948 596,-196 500.798,-316.431 589.381,-420.26 471,-518 436.514,-546.473 404.422,-505.198 372,-536 352.305,-554.711 358,-568.333 358,-595.5 358,-810 358,-810 358,-810 358,-859.299 410.164,-846.078 458,-858 586.796,-890.1 1001.23,-892.954 1128.49,-893.057"/>
<polygon fill="lightblue" stroke="lightblue" points="1138.87,-893.06 1128.86,-897.557 1133.87,-893.059 1128.87,-893.057 1128.87,-893.057 1128.87,-893.057 1133.87,-893.059 1128.87,-888.557 1138.87,-893.06 1138.87,-893.06"/>
<text text-anchor="middle" x="490" y="-508.4" font-family="Courier,monospace" font-size="12.00" fill="white">2</text>
</g>
<!-- Naya&#45;&gt;Grixis -->
<g id="edge37" class="edge"><title>Naya&#45;&gt;Grixis</title>
<path fill="none" stroke="lightblue" d="M846.599,-136.201C869.838,-141.875 903.062,-151.457 930,-165 944.464,-172.272 959.165,-182.615 971.01,-191.839"/>
<polygon fill="lightblue" stroke="lightblue" points="979.086,-198.298 968.466,-195.566 975.181,-195.175 971.276,-192.052 971.276,-192.052 971.276,-192.052 975.181,-195.175 974.087,-188.538 979.086,-198.298 979.086,-198.298"/>
<text text-anchor="middle" x="956" y="-168.4" font-family="Courier,monospace" font-size="12.00" fill="white">1</text>
</g>
<!-- UGR -->
<g id="node15" class="node"><title>UGR</title>
<ellipse fill="lightgreen" stroke="white" cx="787" cy="-44" rx="30.5947" ry="18"/>
<text text-anchor="middle" x="787" y="-40.3" font-family="Helvetica,sans-Serif" font-size="14.00" fill="blue">UGR</text>
</g>
<!-- Naya&#45;&gt;UGR -->
<g id="edge11" class="edge"><title>Naya&#45;&gt;UGR</title>
<path fill="none" stroke="lightblue" d="M811.727,-111.204C807.441,-99.7286 801.675,-84.2915 796.789,-71.2105"/>
<polygon fill="lightblue" stroke="lightblue" points="793.264,-61.7713 800.978,-69.5647 795.013,-66.4553 796.763,-71.1392 796.763,-71.1392 796.763,-71.1392 795.013,-66.4553 792.547,-72.7138 793.264,-61.7713 793.264,-61.7713"/>
<text text-anchor="middle" x="809" y="-83.4" font-family="Courier,monospace" font-size="12.00" fill="white">3</text>
</g>
<!-- Naya&#45;&gt;WR -->
<g id="edge49" class="edge"><title>Naya&#45;&gt;WR</title>
<path fill="none" stroke="lightblue" d="M807.308,-145.959C783.365,-182.773 725.981,-277.292 706,-366 678.703,-487.184 714.608,-636.324 731.779,-696.233"/>
<polygon fill="lightblue" stroke="lightblue" points="734.652,-706.033 727.521,-697.703 733.246,-701.235 731.839,-696.437 731.839,-696.437 731.839,-696.437 733.246,-701.235 736.158,-695.171 734.652,-706.033 734.652,-706.033"/>
<text text-anchor="middle" x="702" y="-423.4" font-family="Courier,monospace" font-size="12.00" fill="white">2</text>
</g>
<!-- Naya&#45;&gt;UB -->
<g id="edge20" class="edge"><title>Naya&#45;&gt;UB</title>
<path fill="none" stroke="lightblue" d="M849.31,-129.711C955.772,-129.054 1299.03,-129.706 1332,-165 1424.45,-263.961 1299.98,-358.329 1187,-433 1158.4,-451.901 1139.27,-430.234 1112,-451 1050.59,-497.757 1081.31,-547.186 1028,-603 1020.48,-610.872 1010.82,-617.673 1001.6,-623.13"/>
<polygon fill="lightblue" stroke="lightblue" points="992.625,-628.131 999.173,-619.334 996.994,-625.698 1001.36,-623.265 1001.36,-623.265 1001.36,-623.265 996.994,-625.698 1003.55,-627.197 992.625,-628.131 992.625,-628.131"/>
<text text-anchor="middle" x="1283" y="-380.9" font-family="Courier,monospace" font-size="12.00" fill="white">3</text>
</g>
<!-- UR&#45;&gt;WG -->
<g id="edge89" class="edge"><title>UR&#45;&gt;WG</title>
<path fill="none" stroke="lightblue" d="M293.842,-388.531C232.397,-397.556 84,-423.916 84,-468 84,-810 84,-810 84,-810 84,-842.111 108.184,-846.079 138,-858 231.287,-895.296 954.941,-894.067 1128.62,-893.225"/>
<polygon fill="lightblue" stroke="lightblue" points="1138.79,-893.173 1128.82,-897.724 1133.79,-893.198 1128.79,-893.224 1128.79,-893.224 1128.79,-893.224 1133.79,-893.198 1128.77,-888.724 1138.79,-893.173 1138.79,-893.173"/>
<text text-anchor="middle" x="88" y="-635.9" font-family="Courier,monospace" font-size="12.00" fill="white">5</text>
</g>
<!-- UR&#45;&gt;BG -->
<g id="edge65" class="edge"><title>UR&#45;&gt;BG</title>
<path fill="none" stroke="lightblue" d="M315.415,-401.768C306.134,-437.232 286,-522.573 286,-595.5 286,-725 286,-725 286,-725 286,-743.607 283.737,-764.424 281.48,-780.556"/>
<polygon fill="lightblue" stroke="lightblue" points="279.947,-790.891 276.963,-780.339 280.681,-785.945 281.415,-780.999 281.415,-780.999 281.415,-780.999 280.681,-785.945 285.866,-781.659 279.947,-790.891 279.947,-790.891"/>
<text text-anchor="middle" x="290" y="-593.4" font-family="Courier,monospace" font-size="12.00" fill="white">4</text>
</g>
<!-- UR&#45;&gt;BR -->
<g id="edge66" class="edge"><title>UR&#45;&gt;BR</title>
<path fill="none" stroke="lightblue" d="M318.108,-366.027C317.688,-356.591 318.231,-344.81 322,-335 323.781,-330.364 326.439,-325.892 329.435,-321.783"/>
<polygon fill="lightblue" stroke="lightblue" points="335.888,-313.925 333.02,-324.509 332.715,-317.789 329.542,-321.653 329.542,-321.653 329.542,-321.653 332.715,-317.789 326.064,-318.798 335.888,-313.925 335.888,-313.925"/>
<text text-anchor="middle" x="326" y="-338.4" font-family="Courier,monospace" font-size="12.00" fill="white">2</text>
</g>
<!-- UR&#45;&gt;WR -->
<g id="edge92" class="edge"><title>UR&#45;&gt;WR</title>
<path fill="none" stroke="lightblue" d="M328.952,-401.35C332.146,-407.219 335.755,-413.895 339,-420 403.796,-541.893 380.369,-612.595 496,-688 529.393,-709.776 643.421,-718.394 703.026,-721.472"/>
<polygon fill="lightblue" stroke="lightblue" points="713.144,-721.969 702.936,-725.973 708.15,-721.724 703.156,-721.479 703.156,-721.479 703.156,-721.479 708.15,-721.724 703.377,-716.984 713.144,-721.969 713.144,-721.969"/>
<text text-anchor="middle" x="403" y="-550.9" font-family="Courier,monospace" font-size="12.00" fill="white">2</text>
</g>
<!-- Grixis&#45;&gt;WG -->
<g id="edge90" class="edge"><title>Grixis&#45;&gt;WG</title>
<path fill="none" stroke="lightblue" d="M1028.76,-218.506C1065.24,-223.07 1125.57,-232.601 1175,-250 1196.76,-257.658 1336.3,-340.192 1358,-348 1396.79,-361.956 1417.84,-339.005 1449,-366 1527.69,-434.173 1496,-491.383 1496,-595.5 1496,-810 1496,-810 1496,-810 1496,-869.83 1289.41,-886.943 1203.15,-891.481"/>
<polygon fill="lightblue" stroke="lightblue" points="1193.01,-891.985 1202.77,-886.994 1198,-891.737 1202.99,-891.488 1202.99,-891.488 1202.99,-891.488 1198,-891.737 1203.22,-895.983 1193.01,-891.985 1193.01,-891.985"/>
<text text-anchor="middle" x="1502" y="-550.9" font-family="Courier,monospace" font-size="12.00" fill="white">4</text>
</g>
<!-- Grixis&#45;&gt;WB -->
<g id="edge87" class="edge"><title>Grixis&#45;&gt;WB</title>
<path fill="none" stroke="lightblue" d="M997.499,-232.08C998.618,-245.398 1000.1,-264.362 1001,-281 1004.06,-337.731 1005.74,-404.233 1006.5,-440.673"/>
<polygon fill="lightblue" stroke="lightblue" points="1006.7,-450.972 1002,-441.064 1006.6,-445.973 1006.5,-440.974 1006.5,-440.974 1006.5,-440.974 1006.6,-445.973 1011,-440.884 1006.7,-450.972 1006.7,-450.972"/>
<text text-anchor="middle" x="1008" y="-338.4" font-family="Courier,monospace" font-size="12.00" fill="white">3</text>
</g>
<!-- Grixis&#45;&gt;Naya -->
<g id="edge24" class="edge"><title>Grixis&#45;&gt;Naya</title>
<path fill="none" stroke="lightblue" d="M971.25,-201.459C939.816,-186.802 885.485,-161.468 850.673,-145.235"/>
<polygon fill="lightblue" stroke="lightblue" points="841.408,-140.915 852.373,-141.062 845.939,-143.028 850.471,-145.141 850.471,-145.141 850.471,-145.141 845.939,-143.028 848.569,-149.219 841.408,-140.915 841.408,-140.915"/>
<text text-anchor="middle" x="922" y="-168.4" font-family="Courier,monospace" font-size="12.00" fill="white">2</text>
</g>
<!-- Grixis&#45;&gt;RG -->
<g id="edge12" class="edge"><title>Grixis&#45;&gt;RG</title>
<path fill="none" stroke="lightblue" d="M979.971,-229.944C974.874,-235.682 969.83,-242.634 967,-250 964.527,-256.438 963.443,-263.725 963.108,-270.64"/>
<polygon fill="lightblue" stroke="lightblue" points="963.108,-281.027 958.608,-271.027 963.108,-276.027 963.108,-271.027 963.108,-271.027 963.108,-271.027 963.108,-276.027 967.608,-271.027 963.108,-281.027 963.108,-281.027"/>
<text text-anchor="middle" x="971" y="-253.4" font-family="Courier,monospace" font-size="12.00" fill="white">3</text>
</g>
<!-- RG&#45;&gt;Grixis -->
<g id="edge7" class="edge"><title>RG&#45;&gt;Grixis</title>
<path fill="none" stroke="lightblue" d="M971.273,-281.204C975.559,-269.729 981.325,-254.292 986.211,-241.211"/>
<polygon fill="lightblue" stroke="lightblue" points="989.736,-231.771 990.453,-242.714 987.987,-236.455 986.237,-241.139 986.237,-241.139 986.237,-241.139 987.987,-236.455 982.022,-239.565 989.736,-231.771 989.736,-231.771"/>
<text text-anchor="middle" x="987" y="-253.4" font-family="Courier,monospace" font-size="12.00" fill="white">2</text>
</g>
<!-- Jund&#45;&gt;WG -->
<g id="edge23" class="edge"><title>Jund&#45;&gt;WG</title>
<path fill="none" stroke="lightblue" d="M1544.11,-45.024C1597.68,-46.8198 1704,-59.0674 1704,-128 1704,-810 1704,-810 1704,-810 1704,-851.084 1664.11,-845.426 1625,-858 1546.79,-883.142 1298.2,-890.474 1203.3,-892.388"/>
<polygon fill="lightblue" stroke="lightblue" points="1193.04,-892.585 1202.95,-887.893 1198.03,-892.489 1203.03,-892.393 1203.03,-892.393 1203.03,-892.393 1198.03,-892.489 1203.12,-896.892 1193.04,-892.585 1193.04,-892.585"/>
<text text-anchor="middle" x="1708" y="-465.9" font-family="Courier,monospace" font-size="12.00" fill="white">2</text>
</g>
<!-- Jund&#45;&gt;UW -->
<g id="edge6" class="edge"><title>Jund&#45;&gt;UW</title>
<path fill="none" stroke="lightblue" d="M1491.36,-56.0254C1454.12,-74.8717 1378.81,-116.029 1326,-165 1318.48,-171.97 1311.43,-180.674 1305.59,-188.749"/>
<polygon fill="lightblue" stroke="lightblue" points="1299.76,-197.153 1301.76,-186.37 1302.61,-193.043 1305.46,-188.934 1305.46,-188.934 1305.46,-188.934 1302.61,-193.043 1309.16,-191.497 1299.76,-197.153 1299.76,-197.153"/>
<text text-anchor="middle" x="1400" y="-125.9" font-family="Courier,monospace" font-size="12.00" fill="white">2</text>
</g>
<!-- Jund&#45;&gt;UBRG -->
<g id="edge79" class="edge"><title>Jund&#45;&gt;UBRG</title>
<path fill="none" stroke="lightblue" d="M1506.22,-61.763C1502.87,-70.9273 1500.12,-82.5166 1502,-93 1502.52,-95.8709 1503.25,-98.814 1504.12,-101.715"/>
<polygon fill="lightblue" stroke="lightblue" points="1507.4,-111.251 1499.89,-103.264 1505.77,-106.525 1504.14,-101.798 1504.14,-101.798 1504.14,-101.798 1505.77,-106.525 1508.4,-100.331 1507.4,-111.251 1507.4,-111.251"/>
<text text-anchor="middle" x="1506" y="-83.4" font-family="Courier,monospace" font-size="12.00" fill="white">2</text>
</g>
<!-- BR&#45;&gt;WG -->
<g id="edge21" class="edge"><title>BR&#45;&gt;WG</title>
<path fill="none" stroke="lightblue" d="M323.979,-299.646C254.609,-299.236 72.3064,-301.461 24,-335 4.40783,-348.603 0,-359.149 0,-383 0,-810 0,-810 0,-810 0,-833.851 3.90526,-845.151 24,-858 71.5386,-888.397 937.014,-892.409 1128.64,-892.926"/>
<polygon fill="lightblue" stroke="lightblue" points="1138.78,-892.951 1128.76,-897.426 1133.78,-892.939 1128.78,-892.926 1128.78,-892.926 1128.78,-892.926 1133.78,-892.939 1128.79,-888.426 1138.78,-892.951 1138.78,-892.951"/>
<text text-anchor="middle" x="4" y="-593.4" font-family="Courier,monospace" font-size="12.00" fill="white">4</text>
</g>
<!-- BR&#45;&gt;BG -->
<g id="edge68" class="edge"><title>BR&#45;&gt;BG</title>
<path fill="none" stroke="lightblue" d="M336.241,-314.258C329.712,-320.589 321.952,-328.145 315,-335 301.126,-348.68 295.43,-350.22 284,-366 259.165,-400.287 253.022,-410.406 241,-451 204.273,-575.016 217.975,-615.305 244,-742 246.842,-755.836 245.105,-760.164 251,-773 252.848,-777.024 255.209,-781.037 257.752,-784.833"/>
<polygon fill="lightblue" stroke="lightblue" points="263.861,-793.202 254.331,-787.778 260.913,-789.163 257.965,-785.125 257.965,-785.125 257.965,-785.125 260.913,-789.163 261.6,-782.472 263.861,-793.202 263.861,-793.202"/>
<text text-anchor="middle" x="226" y="-550.9" font-family="Courier,monospace" font-size="12.00" fill="white">2</text>
</g>
<!-- BR&#45;&gt;WB -->
<g id="edge22" class="edge"><title>BR&#45;&gt;WB</title>
<path fill="none" stroke="lightblue" d="M378.048,-300.575C455.051,-302.504 674.198,-310.091 741,-335 788.732,-352.798 789.157,-377.828 834,-402 879.843,-426.711 936.948,-446.578 972.701,-457.835"/>
<polygon fill="lightblue" stroke="lightblue" points="982.634,-460.914 971.75,-462.252 977.858,-459.434 973.082,-457.953 973.082,-457.953 973.082,-457.953 977.858,-459.434 974.414,-453.655 982.634,-460.914 982.634,-460.914"/>
<text text-anchor="middle" x="838" y="-380.9" font-family="Courier,monospace" font-size="12.00" fill="white">1</text>
</g>
<!-- BR&#45;&gt;UR -->
<g id="edge4" class="edge"><title>BR&#45;&gt;UR</title>
<path fill="none" stroke="lightblue" d="M344.736,-316.771C340.452,-328.241 334.687,-343.677 329.8,-356.761"/>
<polygon fill="lightblue" stroke="lightblue" points="326.273,-366.204 325.557,-355.261 328.023,-361.52 329.772,-356.836 329.772,-356.836 329.772,-356.836 328.023,-361.52 333.988,-358.41 326.273,-366.204 326.273,-366.204"/>
<text text-anchor="middle" x="342" y="-338.4" font-family="Courier,monospace" font-size="12.00" fill="white">2</text>
</g>
<!-- BR&#45;&gt;WR -->
<g id="edge26" class="edge"><title>BR&#45;&gt;WR</title>
<path fill="none" stroke="lightblue" d="M354.616,-316.841C363.266,-354.802 387.567,-449.105 429,-518 481.695,-605.622 495.581,-636.654 584,-688 620.928,-709.445 669.813,-717.755 702.946,-720.972"/>
<polygon fill="lightblue" stroke="lightblue" points="713.115,-721.848 702.766,-725.473 708.134,-721.419 703.152,-720.99 703.152,-720.99 703.152,-720.99 708.134,-721.419 703.538,-716.507 713.115,-721.848 713.115,-721.848"/>
<text text-anchor="middle" x="433" y="-508.4" font-family="Courier,monospace" font-size="12.00" fill="white">2</text>
</g>
<!-- BR&#45;&gt;UB -->
<g id="edge1" class="edge"><title>BR&#45;&gt;UB</title>
<path fill="none" stroke="lightblue" d="M376.705,-304.985C400.72,-310.289 437.102,-320.005 466,-335 509.008,-357.316 511.619,-375.223 552,-402 653.816,-469.515 691.182,-467.004 792,-536 830.555,-562.386 832.388,-579.906 873,-603 884.268,-609.408 913.697,-619.629 937.385,-627.376"/>
<polygon fill="lightblue" stroke="lightblue" points="947.116,-630.525 936.217,-631.727 942.359,-628.986 937.602,-627.446 937.602,-627.446 937.602,-627.446 942.359,-628.986 938.988,-623.164 947.116,-630.525 947.116,-630.525"/>
<text text-anchor="middle" x="714" y="-465.9" font-family="Courier,monospace" font-size="12.00" fill="white">1</text>
</g>
<!-- UGR&#45;&gt;Naya -->
<g id="edge93" class="edge"><title>UGR&#45;&gt;Naya</title>
<path fill="none" stroke="lightblue" d="M785.108,-61.9732C784.688,-71.4087 785.231,-83.1899 789,-93 790.669,-97.3438 793.107,-101.544 795.873,-105.435"/>
<polygon fill="lightblue" stroke="lightblue" points="802.276,-113.398 792.503,-108.425 799.143,-109.502 796.01,-105.605 796.01,-105.605 796.01,-105.605 799.143,-109.502 799.517,-102.785 802.276,-113.398 802.276,-113.398"/>
<text text-anchor="middle" x="793" y="-83.4" font-family="Courier,monospace" font-size="12.00" fill="white">1</text>
</g>
<!-- UGR&#45;&gt;WR -->
<g id="edge88" class="edge"><title>UGR&#45;&gt;WR</title>
<path fill="none" stroke="lightblue" d="M757.321,-48.5515C731.469,-52.7632 693.864,-61.676 666,-80 625.11,-106.89 613.439,-119.273 596,-165 586.233,-190.609 584.229,-320.002 588,-402 590.225,-450.375 598,-462.073 598,-510.5 598,-640 598,-640 598,-640 598,-688.935 661.632,-709.548 703.704,-717.829"/>
<polygon fill="lightblue" stroke="lightblue" points="713.624,-719.635 702.979,-722.271 708.705,-718.739 703.785,-717.843 703.785,-717.843 703.785,-717.843 708.705,-718.739 704.591,-713.416 713.624,-719.635 713.624,-719.635"/>
<text text-anchor="middle" x="592" y="-380.9" font-family="Courier,monospace" font-size="12.00" fill="white">1</text>
</g>
<!-- UGR&#45;&gt;UB -->
<g id="edge19" class="edge"><title>UGR&#45;&gt;UB</title>
<path fill="none" stroke="lightblue" d="M817.612,-45.353C921.438,-47.0408 1258.79,-56.6785 1350,-111 1375.21,-126.016 1379.14,-137.022 1388,-165 1408.84,-230.817 1389.33,-256.54 1356,-317 1333.04,-358.649 1327.59,-371.623 1291,-402 1253.84,-432.851 1231.29,-420.302 1194,-451 1178.35,-463.883 1179.48,-471.862 1166,-487 1117.09,-541.924 1108.62,-561.37 1048,-603 1034.43,-612.32 1017.97,-620.19 1003.76,-626.093"/>
<polygon fill="lightblue" stroke="lightblue" points="994.35,-629.858 1001.96,-621.966 998.992,-628.001 1003.63,-626.145 1003.63,-626.145 1003.63,-626.145 998.992,-628.001 1005.31,-630.323 994.35,-629.858 994.35,-629.858"/>
<text text-anchor="middle" x="1351" y="-338.4" font-family="Courier,monospace" font-size="12.00" fill="white">3</text>
</g>
<!-- UG&#45;&gt;WG -->
<g id="edge81" class="edge"><title>UG&#45;&gt;WG</title>
<path fill="none" stroke="lightblue" d="M1000.65,-570.953C1026.54,-614.106 1098.87,-737.153 1148,-845 1151.12,-851.856 1154.15,-859.427 1156.8,-866.49"/>
<polygon fill="lightblue" stroke="lightblue" points="1160.39,-876.332 1152.74,-868.476 1158.67,-871.634 1156.96,-866.936 1156.96,-866.936 1156.96,-866.936 1158.67,-871.634 1161.19,-865.396 1160.39,-876.332 1160.39,-876.332"/>
<text text-anchor="middle" x="1100" y="-720.9" font-family="Courier,monospace" font-size="12.00" fill="white">1</text>
</g>
<!-- UG&#45;&gt;WB -->
<g id="edge80" class="edge"><title>UG&#45;&gt;WB</title>
<path fill="none" stroke="lightblue" d="M994.315,-535.802C996.475,-524.599 999.338,-509.748 1001.8,-496.99"/>
<polygon fill="lightblue" stroke="lightblue" points="1003.74,-486.892 1006.27,-497.563 1002.8,-491.801 1001.85,-496.711 1001.85,-496.711 1001.85,-496.711 1002.8,-491.801 997.432,-495.859 1003.74,-486.892 1003.74,-486.892"/>
<text text-anchor="middle" x="1004" y="-508.4" font-family="Courier,monospace" font-size="12.00" fill="white">1</text>
</g>
<!-- UG&#45;&gt;WUBG -->
<g id="edge45" class="edge"><title>UG&#45;&gt;WUBG</title>
<path fill="none" stroke="lightblue" d="M1008.71,-540.26C1023.38,-530.02 1044.99,-515.639 1065,-505 1150.28,-459.661 1174.44,-453.568 1265,-420 1287.29,-411.74 1312.53,-403.621 1333.21,-397.286"/>
<polygon fill="lightblue" stroke="lightblue" points="1342.96,-394.327 1334.7,-401.537 1338.18,-395.779 1333.39,-397.231 1333.39,-397.231 1333.39,-397.231 1338.18,-395.779 1332.09,-392.925 1342.96,-394.327 1342.96,-394.327"/>
<text text-anchor="middle" x="1185" y="-465.9" font-family="Courier,monospace" font-size="12.00" fill="white">1</text>
</g>
<!-- UG&#45;&gt;WR -->
<g id="edge82" class="edge"><title>UG&#45;&gt;WR</title>
<path fill="none" stroke="lightblue" d="M973.679,-568.065C940.874,-592.611 867.122,-646.848 802,-688 791.494,-694.639 779.676,-701.462 769.198,-707.301"/>
<polygon fill="lightblue" stroke="lightblue" points="760.402,-712.148 766.988,-703.381 764.781,-709.735 769.16,-707.322 769.16,-707.322 769.16,-707.322 764.781,-709.735 771.332,-711.263 760.402,-712.148 760.402,-712.148"/>
<text text-anchor="middle" x="905" y="-635.9" font-family="Courier,monospace" font-size="12.00" fill="white">2</text>
</g>
<!-- UG&#45;&gt;UB -->
<g id="edge53" class="edge"><title>UG&#45;&gt;UB</title>
<path fill="none" stroke="lightblue" d="M981.039,-570.791C977.874,-576.608 974.746,-583.394 973,-590 971.266,-596.562 970.432,-603.802 970.102,-610.626"/>
<polygon fill="lightblue" stroke="lightblue" points="969.94,-620.851 965.599,-610.78 970.019,-615.851 970.098,-610.852 970.098,-610.852 970.098,-610.852 970.019,-615.851 974.598,-610.924 969.94,-620.851 969.94,-620.851"/>
<text text-anchor="middle" x="977" y="-593.4" font-family="Courier,monospace" font-size="12.00" fill="white">1</text>
</g>
<!-- WR&#45;&gt;WG -->
<g id="edge94" class="edge"><title>WR&#45;&gt;WG</title>
<path fill="none" stroke="lightblue" d="M749.495,-741.054C763.699,-763.658 792.63,-804.603 828,-827 877.933,-858.618 1052.33,-880.763 1129.17,-889.21"/>
<polygon fill="lightblue" stroke="lightblue" points="1139.34,-890.31 1128.91,-893.708 1134.37,-889.772 1129.4,-889.235 1129.4,-889.235 1129.4,-889.235 1134.37,-889.772 1129.88,-884.761 1139.34,-890.31 1139.34,-890.31"/>
<text text-anchor="middle" x="832" y="-805.9" font-family="Courier,monospace" font-size="12.00" fill="white">2</text>
</g>
<!-- WR&#45;&gt;BG -->
<g id="edge58" class="edge"><title>WR&#45;&gt;BG</title>
<path fill="none" stroke="lightblue" d="M713.296,-727.407C664.506,-732.035 557.801,-743.225 469,-760 413.297,-770.523 349.644,-787.419 311.425,-798.103"/>
<polygon fill="lightblue" stroke="lightblue" points="301.348,-800.942 309.753,-793.899 306.161,-799.586 310.973,-798.231 310.973,-798.231 310.973,-798.231 306.161,-799.586 312.193,-802.562 301.348,-800.942 301.348,-800.942"/>
<text text-anchor="middle" x="473" y="-763.4" font-family="Courier,monospace" font-size="12.00" fill="white">4</text>
</g>
<!-- WR&#45;&gt;WUBG -->
<g id="edge83" class="edge"><title>WR&#45;&gt;WUBG</title>
<path fill="none" stroke="lightblue" d="M767.118,-723.173C851.36,-722.226 1111.52,-707.895 1256,-572 1306.91,-524.119 1345.47,-450.062 1363.59,-411.065"/>
<polygon fill="lightblue" stroke="lightblue" points="1367.75,-401.943 1367.7,-412.909 1365.68,-406.493 1363.6,-411.042 1363.6,-411.042 1363.6,-411.042 1365.68,-406.493 1359.51,-409.174 1367.75,-401.943 1367.75,-401.943"/>
<text text-anchor="middle" x="1293" y="-550.9" font-family="Courier,monospace" font-size="12.00" fill="white">2</text>
</g>
<!-- WR&#45;&gt;Naya -->
<g id="edge14" class="edge"><title>WR&#45;&gt;Naya</title>
<path fill="none" stroke="lightblue" d="M738.376,-705.679C733.359,-648.308 720.388,-465.551 754,-420 768.023,-400.995 788.282,-419.629 804,-402 822.079,-381.723 818,-369.667 818,-342.5 818,-342.5 818,-342.5 818,-213 818,-194.502 818,-173.684 818,-157.525"/>
<polygon fill="lightblue" stroke="lightblue" points="818,-147.168 822.5,-157.168 818,-152.168 818,-157.168 818,-157.168 818,-157.168 818,-152.168 813.5,-157.168 818,-147.168 818,-147.168"/>
<text text-anchor="middle" x="758" y="-423.4" font-family="Courier,monospace" font-size="12.00" fill="white">3</text>
</g>
<!-- WR&#45;&gt;UR -->
<g id="edge10" class="edge"><title>WR&#45;&gt;UR</title>
<path fill="none" stroke="lightblue" d="M712.739,-722.64C650.372,-721.343 499.481,-715.383 458,-688 361.069,-624.012 331.283,-473.802 322.954,-412.144"/>
<polygon fill="lightblue" stroke="lightblue" points="321.676,-402.033 327.394,-411.39 322.303,-406.994 322.93,-411.954 322.93,-411.954 322.93,-411.954 322.303,-406.994 318.465,-412.519 321.676,-402.033 321.676,-402.033"/>
<text text-anchor="middle" x="370" y="-550.9" font-family="Courier,monospace" font-size="12.00" fill="white">1</text>
</g>
<!-- WR&#45;&gt;UGR -->
<g id="edge42" class="edge"><title>WR&#45;&gt;UGR</title>
<path fill="none" stroke="lightblue" d="M731.131,-706.955C724.3,-693.889 715.176,-674.763 710,-657 670.321,-520.84 656,-484.323 656,-342.5 656,-342.5 656,-342.5 656,-128 656,-84.0071 709.369,-62.3595 747.978,-52.4549"/>
<polygon fill="lightblue" stroke="lightblue" points="757.927,-50.0733 749.249,-56.7779 753.064,-51.2374 748.202,-52.4015 748.202,-52.4015 748.202,-52.4015 753.064,-51.2374 747.154,-48.0251 757.927,-50.0733 757.927,-50.0733"/>
<text text-anchor="middle" x="662" y="-380.9" font-family="Courier,monospace" font-size="12.00" fill="white">3</text>
</g>
<!-- WR&#45;&gt;UB -->
<g id="edge8" class="edge"><title>WR&#45;&gt;UB</title>
<path fill="none" stroke="lightblue" d="M764.158,-715.617C786.136,-708.794 819.412,-698.201 848,-688 879.119,-676.896 914.189,-663.079 938.895,-653.125"/>
<polygon fill="lightblue" stroke="lightblue" points="948.48,-649.247 940.897,-657.169 943.844,-651.122 939.209,-652.998 939.209,-652.998 939.209,-652.998 943.844,-651.122 937.522,-648.826 948.48,-649.247 948.48,-649.247"/>
<text text-anchor="middle" x="887" y="-678.4" font-family="Courier,monospace" font-size="12.00" fill="white">5</text>
</g>
<!-- Boros&#45;&gt;WB -->
<g id="edge32" class="edge"><title>Boros&#45;&gt;WB</title>
<path fill="none" stroke="lightblue" d="M1099.26,-398.451C1089.64,-404.82 1078.12,-412.632 1068,-420 1055.67,-428.978 1042.33,-439.398 1031.27,-448.23"/>
<polygon fill="lightblue" stroke="lightblue" points="1023.31,-454.625 1028.29,-444.852 1027.21,-451.492 1031.11,-448.359 1031.11,-448.359 1031.11,-448.359 1027.21,-451.492 1033.93,-451.867 1023.31,-454.625 1023.31,-454.625"/>
<text text-anchor="middle" x="1072" y="-423.4" font-family="Courier,monospace" font-size="12.00" fill="white">1</text>
</g>
<!-- Boros&#45;&gt;G -->
<g id="edge13" class="edge"><title>Boros&#45;&gt;G</title>
<path fill="none" stroke="lightblue" d="M1118.55,-365.802C1117.61,-354.674 1116.37,-339.945 1115.3,-327.244"/>
<polygon fill="lightblue" stroke="lightblue" points="1114.45,-317.176 1119.77,-326.762 1114.87,-322.158 1115.29,-327.14 1115.29,-327.14 1115.29,-327.14 1114.87,-322.158 1110.8,-327.518 1114.45,-317.176 1114.45,-317.176"/>
<text text-anchor="middle" x="1121" y="-338.4" font-family="Courier,monospace" font-size="12.00" fill="white">1</text>
</g>
<!-- UB&#45;&gt;WG -->
<g id="edge56" class="edge"><title>UB&#45;&gt;WG</title>
<path fill="none" stroke="lightblue" d="M982.749,-655.243C1015.55,-697.797 1108.27,-818.101 1147.79,-869.377"/>
<polygon fill="lightblue" stroke="lightblue" points="1154.1,-877.555 1144.43,-872.381 1151.04,-873.594 1147.99,-869.634 1147.99,-869.634 1147.99,-869.634 1151.04,-873.594 1151.55,-866.887 1154.1,-877.555 1154.1,-877.555"/>
<text text-anchor="middle" x="1077" y="-763.4" font-family="Courier,monospace" font-size="12.00" fill="white">1</text>
</g>
<!-- UB&#45;&gt;WB -->
<g id="edge55" class="edge"><title>UB&#45;&gt;WB</title>
<path fill="none" stroke="lightblue" d="M961.58,-621.791C950.999,-601.408 936.585,-565.506 947,-536 953.488,-517.619 968.102,-501.357 981.282,-489.575"/>
<polygon fill="lightblue" stroke="lightblue" points="989.218,-482.838 984.506,-492.74 985.406,-486.074 981.594,-489.31 981.594,-489.31 981.594,-489.31 985.406,-486.074 978.682,-485.879 989.218,-482.838 989.218,-482.838"/>
<text text-anchor="middle" x="951" y="-550.9" font-family="Courier,monospace" font-size="12.00" fill="white">3</text>
</g>
<!-- UB&#45;&gt;Naya -->
<g id="edge73" class="edge"><title>UB&#45;&gt;Naya</title>
<path fill="none" stroke="lightblue" d="M958.316,-622.976C953.702,-617.018 948.715,-609.941 945,-603 887.785,-496.103 864,-463.746 864,-342.5 864,-342.5 864,-342.5 864,-213 864,-190.759 851.208,-168.894 839.115,-153.193"/>
<polygon fill="lightblue" stroke="lightblue" points="832.555,-145.141 842.36,-150.051 835.713,-149.017 838.871,-152.894 838.871,-152.894 838.871,-152.894 835.713,-149.017 835.383,-155.736 832.555,-145.141 832.555,-145.141"/>
<text text-anchor="middle" x="871" y="-380.9" font-family="Courier,monospace" font-size="12.00" fill="white">2</text>
</g>
<!-- UB&#45;&gt;UR -->
<g id="edge27" class="edge"><title>UB&#45;&gt;UR</title>
<path fill="none" stroke="lightblue" d="M947.237,-630.073C936.828,-626.852 924.409,-623.344 913,-621 847.662,-607.574 829.426,-615.991 764,-603 729.493,-596.148 488.995,-536.384 459,-518 408.581,-487.097 413.299,-459.175 369,-420 362.246,-414.027 354.48,-408.106 347.152,-402.879"/>
<polygon fill="lightblue" stroke="lightblue" points="338.837,-397.102 349.617,-399.113 342.943,-399.955 347.05,-402.808 347.05,-402.808 347.05,-402.808 342.943,-399.955 344.482,-406.504 338.837,-397.102 338.837,-397.102"/>
<text text-anchor="middle" x="463" y="-508.4" font-family="Courier,monospace" font-size="12.00" fill="white">2</text>
</g>
<!-- UB&#45;&gt;BR -->
<g id="edge34" class="edge"><title>UB&#45;&gt;BR</title>
<path fill="none" stroke="lightblue" d="M946.779,-630.72C936.398,-627.647 924.125,-624.076 913,-621 876.816,-610.997 622.596,-544.368 586,-536 545.809,-526.81 526.711,-544.347 495,-518 427.647,-462.042 481.443,-399.298 422,-335 412.038,-324.225 398.034,-316.349 385.093,-310.829"/>
<polygon fill="lightblue" stroke="lightblue" points="375.488,-307.057 386.441,-306.524 380.142,-308.885 384.797,-310.712 384.797,-310.712 384.797,-310.712 380.142,-308.885 383.152,-314.901 375.488,-307.057 375.488,-307.057"/>
<text text-anchor="middle" x="473" y="-465.9" font-family="Courier,monospace" font-size="12.00" fill="white">2</text>
</g>
<!-- UB&#45;&gt;UG -->
<g id="edge30" class="edge"><title>UB&#45;&gt;UG</title>
<path fill="none" stroke="lightblue" d="M975.485,-620.933C976.956,-615.238 978.577,-608.853 980,-603 981.643,-596.24 983.354,-588.927 984.922,-582.097"/>
<polygon fill="lightblue" stroke="lightblue" points="987.24,-571.908 989.409,-582.657 986.131,-576.784 985.021,-581.659 985.021,-581.659 985.021,-581.659 986.131,-576.784 980.633,-580.661 987.24,-571.908 987.24,-571.908"/>
<text text-anchor="middle" x="987" y="-593.4" font-family="Courier,monospace" font-size="12.00" fill="white">2</text>
</g>
<!-- UB&#45;&gt;WR -->
<g id="edge54" class="edge"><title>UB&#45;&gt;WR</title>
<path fill="none" stroke="lightblue" d="M954.119,-653.05C939.3,-663.903 916.771,-678.982 895,-688 856.187,-704.077 808.702,-713.412 776.597,-718.337"/>
<polygon fill="lightblue" stroke="lightblue" points="766.333,-719.842 775.575,-713.939 771.281,-719.116 776.228,-718.391 776.228,-718.391 776.228,-718.391 771.281,-719.116 776.88,-722.843 766.333,-719.842 766.333,-719.842"/>
<text text-anchor="middle" x="924" y="-678.4" font-family="Courier,monospace" font-size="12.00" fill="white">3</text>
</g>
</g>
</svg>
