<?xml version="1.0" encoding="UTF-8" standalone="no"?>
<!DOCTYPE svg PUBLIC "-//W3C//DTD SVG 1.1//EN"
 "http://www.w3.org/Graphics/SVG/1.1/DTD/svg11.dtd">
<!-- Generated by graphviz version 2.38.0 (20140413.2041)
 -->
<!-- Title: %3 Pages: 1 -->
<svg width="1062pt" height="1090pt"
 viewBox="0.00 0.00 1062.00 1090.00" xmlns="http://www.w3.org/2000/svg" xmlns:xlink="http://www.w3.org/1999/xlink">
<g id="graph0" class="graph" transform="scale(1 1) rotate(0) translate(4 1086)">
<title>%3</title>
<polygon fill="#333333" stroke="none" points="-4,4 -4,-1086 1058,-1086 1058,4 -4,4"/>
<text text-anchor="middle" x="527" y="-9.2" font-family="Times,serif" font-size="16.00" fill="purple">Colors and matches</text>
<!-- WG -->
<g id="node1" class="node"><title>WG</title>
<ellipse fill="lightgreen" stroke="white" cx="499" cy="-894" rx="27" ry="18"/>
<text text-anchor="middle" x="499" y="-890.3" font-family="Helvetica,sans-Serif" font-size="14.00" fill="blue">WG</text>
</g>
<!-- WG&#45;&gt;WG -->
<g id="edge57" class="edge"><title>WG&#45;&gt;WG</title>
<path fill="none" stroke="lightblue" d="M523.532,-901.752C534.508,-902.49 544,-899.906 544,-894 544,-890.032 539.715,-887.563 533.574,-886.594"/>
<polygon fill="lightblue" stroke="lightblue" points="523.532,-886.248 533.682,-882.096 528.529,-886.42 533.527,-886.593 533.527,-886.593 533.527,-886.593 528.529,-886.42 533.371,-891.09 523.532,-886.248 523.532,-886.248"/>
<text text-anchor="middle" x="548" y="-890.9" font-family="Courier,monospace" font-size="12.00" fill="white">3</text>
</g>
<!-- BG -->
<g id="node3" class="node"><title>BG</title>
<ellipse fill="lightgreen" stroke="white" cx="388" cy="-809" rx="27" ry="18"/>
<text text-anchor="middle" x="388" y="-805.3" font-family="Helvetica,sans-Serif" font-size="14.00" fill="blue">BG</text>
</g>
<!-- WG&#45;&gt;BG -->
<g id="edge44" class="edge"><title>WG&#45;&gt;BG</title>
<path fill="none" stroke="lightblue" d="M481.656,-880.031C463.328,-866.327 434.24,-844.576 413.343,-828.95"/>
<polygon fill="lightblue" stroke="lightblue" points="405.222,-822.878 415.925,-825.262 409.226,-825.872 413.231,-828.866 413.231,-828.866 413.231,-828.866 409.226,-825.872 410.536,-832.47 405.222,-822.878 405.222,-822.878"/>
<text text-anchor="middle" x="455" y="-848.4" font-family="Courier,monospace" font-size="12.00" fill="white">3</text>
</g>
<!-- UW -->
<g id="node7" class="node"><title>UW</title>
<ellipse fill="lightgreen" stroke="white" cx="302" cy="-129" rx="27" ry="18"/>
<text text-anchor="middle" x="302" y="-125.3" font-family="Helvetica,sans-Serif" font-size="14.00" fill="blue">UW</text>
</g>
<!-- WG&#45;&gt;UW -->
<g id="edge56" class="edge"><title>WG&#45;&gt;UW</title>
<path fill="none" stroke="lightblue" d="M472.039,-892.14C404.518,-889.659 229.794,-881.128 177,-858 147.282,-844.981 122,-842.444 122,-810 122,-810 122,-810 122,-595.5 122,-454.299 101.436,-406.057 167,-281 195.329,-226.966 247.265,-176.817 277.8,-150.105"/>
<polygon fill="lightblue" stroke="lightblue" points="285.441,-143.519 280.804,-153.457 281.653,-146.784 277.866,-150.048 277.866,-150.048 277.866,-150.048 281.653,-146.784 274.928,-146.64 285.441,-143.519 285.441,-143.519"/>
<text text-anchor="middle" x="125" y="-508.4" font-family="Courier,monospace" font-size="12.00" fill="white">1</text>
</g>
<!-- Naya -->
<g id="node9" class="node"><title>Naya</title>
<ellipse fill="lightgreen" stroke="white" cx="775" cy="-554" rx="31.3957" ry="18"/>
<text text-anchor="middle" x="775" y="-550.3" font-family="Helvetica,sans-Serif" font-size="14.00" fill="blue">Naya</text>
</g>
<!-- WG&#45;&gt;Naya -->
<g id="edge31" class="edge"><title>WG&#45;&gt;Naya</title>
<path fill="none" stroke="lightblue" d="M526.005,-893.086C567.503,-892.239 648.587,-886.65 710,-858 739.707,-844.141 766,-842.781 766,-810 766,-810 766,-810 766,-638 766,-619.393 768.263,-598.576 770.52,-582.444"/>
<polygon fill="lightblue" stroke="lightblue" points="772.053,-572.109 775.037,-582.661 771.319,-577.055 770.585,-582.001 770.585,-582.001 770.585,-582.001 771.319,-577.055 766.134,-581.341 772.053,-572.109 772.053,-572.109"/>
<text text-anchor="middle" x="770" y="-720.9" font-family="Courier,monospace" font-size="12.00" fill="white">1</text>
</g>
<!-- UR -->
<g id="node10" class="node"><title>UR</title>
<ellipse fill="lightgreen" stroke="white" cx="351" cy="-214" rx="27" ry="18"/>
<text text-anchor="middle" x="351" y="-210.3" font-family="Helvetica,sans-Serif" font-size="14.00" fill="blue">UR</text>
</g>
<!-- WG&#45;&gt;UR -->
<g id="edge51" class="edge"><title>WG&#45;&gt;UR</title>
<path fill="none" stroke="lightblue" d="M471.688,-892.907C405.965,-892.207 241.103,-887.477 196,-858 175.326,-844.489 168,-834.698 168,-810 168,-810 168,-810 168,-340.5 168,-290.978 192.642,-278.699 233,-250 257.075,-232.88 289.561,-224.043 314.352,-219.537"/>
<polygon fill="lightblue" stroke="lightblue" points="324.459,-217.859 315.331,-223.936 319.526,-218.677 314.594,-219.496 314.594,-219.496 314.594,-219.496 319.526,-218.677 313.857,-215.057 324.459,-217.859 324.459,-217.859"/>
<text text-anchor="middle" x="172" y="-550.9" font-family="Courier,monospace" font-size="12.00" fill="white">2</text>
</g>
<!-- BR -->
<g id="node14" class="node"><title>BR</title>
<ellipse fill="lightgreen" stroke="white" cx="419" cy="-724" rx="27" ry="18"/>
<text text-anchor="middle" x="419" y="-720.3" font-family="Helvetica,sans-Serif" font-size="14.00" fill="blue">BR</text>
</g>
<!-- WG&#45;&gt;BR -->
<g id="edge40" class="edge"><title>WG&#45;&gt;BR</title>
<path fill="none" stroke="lightblue" d="M498.602,-875.764C497.467,-854.644 493.37,-818.307 479,-791 469.922,-773.75 455.266,-757.507 442.711,-745.451"/>
<polygon fill="lightblue" stroke="lightblue" points="435.234,-738.514 445.626,-742.017 438.899,-741.915 442.565,-745.316 442.565,-745.316 442.565,-745.316 438.899,-741.915 439.504,-748.615 435.234,-738.514 435.234,-738.514"/>
<text text-anchor="middle" x="496" y="-805.9" font-family="Courier,monospace" font-size="12.00" fill="white">2</text>
</g>
<!-- UG -->
<g id="node16" class="node"><title>UG</title>
<ellipse fill="lightgreen" stroke="white" cx="557" cy="-129" rx="27" ry="18"/>
<text text-anchor="middle" x="557" y="-125.3" font-family="Helvetica,sans-Serif" font-size="14.00" fill="blue">UG</text>
</g>
<!-- WG&#45;&gt;UG -->
<g id="edge41" class="edge"><title>WG&#45;&gt;UG</title>
<path fill="none" stroke="lightblue" d="M472.613,-889.972C408.17,-881.846 248,-856.93 248,-810 248,-810 248,-810 248,-425.5 248,-319.242 232.668,-263.173 315,-196 374.979,-147.064 468.339,-134.266 519.806,-131.013"/>
<polygon fill="lightblue" stroke="lightblue" points="529.822,-130.468 520.082,-135.505 524.83,-130.74 519.837,-131.012 519.837,-131.012 519.837,-131.012 524.83,-130.74 519.593,-126.518 529.822,-130.468 529.822,-130.468"/>
<text text-anchor="middle" x="252" y="-508.4" font-family="Courier,monospace" font-size="12.00" fill="white">1</text>
</g>
<!-- WR -->
<g id="node17" class="node"><title>WR</title>
<ellipse fill="lightgreen" stroke="white" cx="560" cy="-639" rx="27" ry="18"/>
<text text-anchor="middle" x="560" y="-635.3" font-family="Helvetica,sans-Serif" font-size="14.00" fill="blue">WR</text>
</g>
<!-- WG&#45;&gt;WR -->
<g id="edge43" class="edge"><title>WG&#45;&gt;WR</title>
<path fill="none" stroke="lightblue" d="M512.729,-878.115C517.705,-872.174 523.064,-865.071 527,-858 534.11,-845.226 533.875,-841.025 538,-827 555.781,-766.542 561.37,-750.848 566,-688 566.425,-682.238 566.49,-680.757 566,-675 565.78,-672.42 565.471,-669.745 565.108,-667.074"/>
<polygon fill="lightblue" stroke="lightblue" points="563.514,-657.015 569.524,-666.187 564.296,-661.953 565.079,-666.892 565.079,-666.892 565.079,-666.892 564.296,-661.953 560.635,-667.596 563.514,-657.015 563.514,-657.015"/>
<text text-anchor="middle" x="561" y="-763.4" font-family="Courier,monospace" font-size="12.00" fill="white">2</text>
</g>
<!-- UB -->
<g id="node19" class="node"><title>UB</title>
<ellipse fill="lightgreen" stroke="white" cx="665" cy="-384" rx="27" ry="18"/>
<text text-anchor="middle" x="665" y="-380.3" font-family="Helvetica,sans-Serif" font-size="14.00" fill="blue">UB</text>
</g>
<!-- WG&#45;&gt;UB -->
<g id="edge61" class="edge"><title>WG&#45;&gt;UB</title>
<path fill="none" stroke="lightblue" d="M517.768,-880.707C526.366,-874.525 536.325,-866.538 544,-858 633.132,-758.848 657.324,-728.617 702,-603 724.661,-539.283 730.976,-514.957 709,-451 703.634,-435.385 693.643,-419.919 684.536,-407.888"/>
<polygon fill="lightblue" stroke="lightblue" points="678.14,-399.781 687.867,-404.845 681.237,-403.707 684.334,-407.632 684.334,-407.632 684.334,-407.632 681.237,-403.707 680.802,-410.419 678.14,-399.781 678.14,-399.781"/>
<text text-anchor="middle" x="700" y="-635.9" font-family="Courier,monospace" font-size="12.00" fill="white">3</text>
</g>
<!-- Bant -->
<g id="node2" class="node"><title>Bant</title>
<ellipse fill="lightgreen" stroke="white" cx="1000" cy="-1064" rx="28.6953" ry="18"/>
<text text-anchor="middle" x="1000" y="-1060.3" font-family="Helvetica,sans-Serif" font-size="14.00" fill="blue">Bant</text>
</g>
<!-- WB -->
<g id="node4" class="node"><title>WB</title>
<ellipse fill="lightgreen" stroke="white" cx="681" cy="-299" rx="27" ry="18"/>
<text text-anchor="middle" x="681" y="-295.3" font-family="Helvetica,sans-Serif" font-size="14.00" fill="blue">WB</text>
</g>
<!-- Bant&#45;&gt;WB -->
<g id="edge37" class="edge"><title>Bant&#45;&gt;WB</title>
<path fill="none" stroke="lightblue" d="M1000,-1045.83C1000,-1029.05 1000,-1002.77 1000,-980 1000,-980 1000,-980 1000,-510.5 1000,-388.523 902.725,-379.101 789,-335 757.844,-322.918 747.425,-328.363 716,-317 714.34,-316.4 712.655,-315.745 710.966,-315.053"/>
<polygon fill="lightblue" stroke="lightblue" points="701.417,-310.806 712.382,-310.758 705.985,-312.838 710.553,-314.87 710.553,-314.87 710.553,-314.87 705.985,-312.838 708.725,-318.981 701.417,-310.806 701.417,-310.806"/>
<text text-anchor="middle" x="1004" y="-678.4" font-family="Courier,monospace" font-size="12.00" fill="white">1</text>
</g>
<!-- Grixis -->
<g id="node11" class="node"><title>Grixis</title>
<ellipse fill="lightgreen" stroke="white" cx="924" cy="-979" rx="33.5952" ry="18"/>
<text text-anchor="middle" x="924" y="-975.3" font-family="Helvetica,sans-Serif" font-size="14.00" fill="blue">Grixis</text>
</g>
<!-- Bant&#45;&gt;Grixis -->
<g id="edge47" class="edge"><title>Bant&#45;&gt;Grixis</title>
<path fill="none" stroke="lightblue" d="M986.413,-1048.16C974.957,-1035.65 958.368,-1017.53 945.171,-1003.12"/>
<polygon fill="lightblue" stroke="lightblue" points="938.243,-995.555 948.316,-999.892 941.62,-999.243 944.997,-1002.93 944.997,-1002.93 944.997,-1002.93 941.62,-999.243 941.678,-1005.97 938.243,-995.555 938.243,-995.555"/>
<text text-anchor="middle" x="970" y="-1018.4" font-family="Courier,monospace" font-size="12.00" fill="white">1</text>
</g>
<!-- RG -->
<g id="node12" class="node"><title>RG</title>
<ellipse fill="lightgreen" stroke="white" cx="962" cy="-214" rx="27" ry="18"/>
<text text-anchor="middle" x="962" y="-210.3" font-family="Helvetica,sans-Serif" font-size="14.00" fill="blue">RG</text>
</g>
<!-- Bant&#45;&gt;RG -->
<g id="edge36" class="edge"><title>Bant&#45;&gt;RG</title>
<path fill="none" stroke="lightblue" d="M1014.3,-1048.15C1027.81,-1032.51 1046,-1006.52 1046,-980 1046,-980 1046,-980 1046,-298 1046,-266.914 1016.53,-243.534 992.502,-229.638"/>
<polygon fill="lightblue" stroke="lightblue" points="983.632,-224.78 994.564,-225.637 988.017,-227.182 992.403,-229.583 992.403,-229.583 992.403,-229.583 988.017,-227.182 990.241,-233.53 983.632,-224.78 983.632,-224.78"/>
<text text-anchor="middle" x="1050" y="-635.9" font-family="Courier,monospace" font-size="12.00" fill="white">1</text>
</g>
<!-- BG&#45;&gt;WG -->
<g id="edge63" class="edge"><title>BG&#45;&gt;WG</title>
<path fill="none" stroke="lightblue" d="M397.718,-826.289C404.396,-836.42 414.019,-849.157 425,-858 437.114,-867.755 452.394,-875.566 465.919,-881.312"/>
<polygon fill="lightblue" stroke="lightblue" points="475.387,-885.129 464.43,-885.563 470.75,-883.26 466.113,-881.39 466.113,-881.39 466.113,-881.39 470.75,-883.26 467.796,-877.216 475.387,-885.129 475.387,-885.129"/>
<text text-anchor="middle" x="429" y="-848.4" font-family="Courier,monospace" font-size="12.00" fill="white">1</text>
</g>
<!-- BG&#45;&gt;BG -->
<g id="edge3" class="edge"><title>BG&#45;&gt;BG</title>
<path fill="none" stroke="lightblue" d="M412.532,-816.752C423.508,-817.49 433,-814.906 433,-809 433,-805.032 428.715,-802.563 422.574,-801.594"/>
<polygon fill="lightblue" stroke="lightblue" points="412.532,-801.248 422.682,-797.096 417.529,-801.42 422.527,-801.593 422.527,-801.593 422.527,-801.593 417.529,-801.42 422.371,-806.09 412.532,-801.248 412.532,-801.248"/>
<text text-anchor="middle" x="437" y="-805.9" font-family="Courier,monospace" font-size="12.00" fill="white">1</text>
</g>
<!-- BG&#45;&gt;BR -->
<g id="edge5" class="edge"><title>BG&#45;&gt;BR</title>
<path fill="none" stroke="lightblue" d="M386.108,-791.027C385.688,-781.591 386.231,-769.81 390,-760 391.781,-755.364 394.439,-750.892 397.435,-746.783"/>
<polygon fill="lightblue" stroke="lightblue" points="403.888,-738.925 401.02,-749.509 400.715,-742.789 397.542,-746.653 397.542,-746.653 397.542,-746.653 400.715,-742.789 394.064,-743.798 403.888,-738.925 403.888,-738.925"/>
<text text-anchor="middle" x="394" y="-763.4" font-family="Courier,monospace" font-size="12.00" fill="white">1</text>
</g>
<!-- WB&#45;&gt;WG -->
<g id="edge17" class="edge"><title>WB&#45;&gt;WG</title>
<path fill="none" stroke="lightblue" d="M701.678,-310.792C733.286,-328.612 792.427,-367.507 816,-420 863.479,-525.729 804,-564.599 804,-680.5 804,-810 804,-810 804,-810 804,-864.948 617.361,-884.719 536.083,-890.724"/>
<polygon fill="lightblue" stroke="lightblue" points="525.799,-891.451 535.457,-886.257 530.787,-891.098 535.774,-890.746 535.774,-890.746 535.774,-890.746 530.787,-891.098 536.092,-895.234 525.799,-891.451 525.799,-891.451"/>
<text text-anchor="middle" x="821" y="-593.4" font-family="Courier,monospace" font-size="12.00" fill="white">3</text>
</g>
<!-- G -->
<g id="node5" class="node"><title>G</title>
<ellipse fill="lightgreen" stroke="white" cx="616" cy="-214" rx="27" ry="18"/>
<text text-anchor="middle" x="616" y="-210.3" font-family="Helvetica,sans-Serif" font-size="14.00" fill="blue">G</text>
</g>
<!-- WB&#45;&gt;G -->
<g id="edge49" class="edge"><title>WB&#45;&gt;G</title>
<path fill="none" stroke="lightblue" d="M669.078,-282.777C659.335,-270.336 645.401,-252.543 634.255,-238.31"/>
<polygon fill="lightblue" stroke="lightblue" points="628.067,-230.408 637.775,-235.507 631.149,-234.345 634.232,-238.281 634.232,-238.281 634.232,-238.281 631.149,-234.345 630.689,-241.056 628.067,-230.408 628.067,-230.408"/>
<text text-anchor="middle" x="657" y="-253.4" font-family="Courier,monospace" font-size="12.00" fill="white">1</text>
</g>
<!-- WUBG -->
<g id="node6" class="node"><title>WUBG</title>
<ellipse fill="lightgreen" stroke="white" cx="782" cy="-214" rx="38.9931" ry="18"/>
<text text-anchor="middle" x="782" y="-210.3" font-family="Helvetica,sans-Serif" font-size="14.00" fill="blue">WUBG</text>
</g>
<!-- WB&#45;&gt;WUBG -->
<g id="edge58" class="edge"><title>WB&#45;&gt;WUBG</title>
<path fill="none" stroke="lightblue" d="M699.119,-285.475C708.253,-278.989 719.4,-270.811 729,-263 738.831,-255.001 749.25,-245.748 758.225,-237.514"/>
<polygon fill="lightblue" stroke="lightblue" points="765.689,-230.596 761.413,-240.694 762.021,-233.995 758.354,-237.394 758.354,-237.394 758.354,-237.394 762.021,-233.995 755.295,-234.093 765.689,-230.596 765.689,-230.596"/>
<text text-anchor="middle" x="748" y="-253.4" font-family="Courier,monospace" font-size="12.00" fill="white">1</text>
</g>
<!-- WB&#45;&gt;UW -->
<g id="edge10" class="edge"><title>WB&#45;&gt;UW</title>
<path fill="none" stroke="lightblue" d="M658.985,-288.241C594.878,-259.825 408.156,-177.056 333.441,-143.937"/>
<polygon fill="lightblue" stroke="lightblue" points="324.076,-139.785 335.041,-139.724 328.647,-141.812 333.218,-143.838 333.218,-143.838 333.218,-143.838 328.647,-141.812 331.394,-147.952 324.076,-139.785 324.076,-139.785"/>
<text text-anchor="middle" x="534" y="-210.9" font-family="Courier,monospace" font-size="12.00" fill="white">1</text>
</g>
<!-- WB&#45;&gt;UR -->
<g id="edge7" class="edge"><title>WB&#45;&gt;UR</title>
<path fill="none" stroke="lightblue" d="M655.392,-293.292C622.492,-287.092 563.699,-275.504 514,-263 501.393,-259.828 428.868,-238.267 384.916,-225.145"/>
<polygon fill="lightblue" stroke="lightblue" points="375.206,-222.244 386.076,-220.795 379.997,-223.676 384.788,-225.107 384.788,-225.107 384.788,-225.107 379.997,-223.676 383.5,-229.418 375.206,-222.244 375.206,-222.244"/>
<text text-anchor="middle" x="518" y="-253.4" font-family="Courier,monospace" font-size="12.00" fill="white">1</text>
</g>
<!-- WB&#45;&gt;RG -->
<g id="edge54" class="edge"><title>WB&#45;&gt;RG</title>
<path fill="none" stroke="lightblue" d="M705.445,-290.779C755.705,-275.934 870.724,-241.961 928.122,-225.007"/>
<polygon fill="lightblue" stroke="lightblue" points="937.811,-222.145 929.496,-229.293 933.016,-223.561 928.221,-224.978 928.221,-224.978 928.221,-224.978 933.016,-223.561 926.946,-220.662 937.811,-222.145 937.811,-222.145"/>
<text text-anchor="middle" x="843" y="-253.4" font-family="Courier,monospace" font-size="12.00" fill="white">1</text>
</g>
<!-- WB&#45;&gt;BR -->
<g id="edge1" class="edge"><title>WB&#45;&gt;BR</title>
<path fill="none" stroke="lightblue" d="M662.722,-312.496C631.189,-333.568 563.975,-376.373 502,-402 473.903,-413.618 455.08,-396.327 436,-420 417.288,-443.217 424.051,-658.252 422,-688 421.824,-690.555 421.625,-693.214 421.415,-695.874"/>
<polygon fill="lightblue" stroke="lightblue" points="420.579,-705.919 416.924,-695.58 420.994,-700.936 421.408,-695.953 421.408,-695.953 421.408,-695.953 420.994,-700.936 425.893,-696.327 420.579,-705.919 420.579,-705.919"/>
<text text-anchor="middle" x="428" y="-508.4" font-family="Courier,monospace" font-size="12.00" fill="white">1</text>
</g>
<!-- WB&#45;&gt;UG -->
<g id="edge25" class="edge"><title>WB&#45;&gt;UG</title>
<path fill="none" stroke="lightblue" d="M679.67,-280.959C677.249,-259.386 670.514,-221.916 652,-196 635.701,-173.185 608.924,-155.624 587.945,-144.373"/>
<polygon fill="lightblue" stroke="lightblue" points="578.773,-139.652 589.724,-140.228 583.219,-141.94 587.664,-144.229 587.664,-144.229 587.664,-144.229 583.219,-141.94 585.605,-148.23 578.773,-139.652 578.773,-139.652"/>
<text text-anchor="middle" x="674" y="-210.9" font-family="Courier,monospace" font-size="12.00" fill="white">1</text>
</g>
<!-- WB&#45;&gt;WR -->
<g id="edge11" class="edge"><title>WB&#45;&gt;WR</title>
<path fill="none" stroke="lightblue" d="M666.345,-314.353C654.432,-326.882 638.152,-346.125 629,-366 584.084,-463.54 621.678,-503.215 582,-603 580.521,-606.72 578.642,-610.481 576.607,-614.088"/>
<polygon fill="lightblue" stroke="lightblue" points="571.369,-622.626 572.762,-611.749 573.983,-618.364 576.598,-614.103 576.598,-614.103 576.598,-614.103 573.983,-618.364 580.434,-616.456 571.369,-622.626 571.369,-622.626"/>
<text text-anchor="middle" x="610" y="-465.9" font-family="Courier,monospace" font-size="12.00" fill="white">1</text>
</g>
<!-- Boros -->
<g id="node18" class="node"><title>Boros</title>
<ellipse fill="lightgreen" stroke="white" cx="620" cy="-44" rx="33.5952" ry="18"/>
<text text-anchor="middle" x="620" y="-40.3" font-family="Helvetica,sans-Serif" font-size="14.00" fill="blue">Boros</text>
</g>
<!-- WB&#45;&gt;Boros -->
<g id="edge15" class="edge"><title>WB&#45;&gt;Boros</title>
<path fill="none" stroke="lightblue" d="M686.266,-281.077C687.789,-275.391 689.244,-268.975 690,-263 690.725,-257.268 690.425,-255.762 690,-250 688.217,-225.804 688.433,-219.394 682,-196 669.511,-150.583 647.104,-100.488 632.922,-70.9353"/>
<polygon fill="lightblue" stroke="lightblue" points="628.454,-61.7369 636.871,-68.7657 630.639,-66.2344 632.823,-70.7319 632.823,-70.7319 632.823,-70.7319 630.639,-66.2344 628.776,-72.6981 628.454,-61.7369 628.454,-61.7369"/>
<text text-anchor="middle" x="681" y="-168.4" font-family="Courier,monospace" font-size="12.00" fill="white">1</text>
</g>
<!-- WB&#45;&gt;UB -->
<g id="edge16" class="edge"><title>WB&#45;&gt;UB</title>
<path fill="none" stroke="lightblue" d="M677.744,-316.892C675.597,-328.028 672.737,-342.864 670.27,-355.66"/>
<polygon fill="lightblue" stroke="lightblue" points="668.315,-365.802 665.79,-355.131 669.262,-360.893 670.208,-355.983 670.208,-355.983 670.208,-355.983 669.262,-360.893 674.627,-356.835 668.315,-365.802 668.315,-365.802"/>
<text text-anchor="middle" x="678" y="-338.4" font-family="Courier,monospace" font-size="12.00" fill="white">1</text>
</g>
<!-- G&#45;&gt;UW -->
<g id="edge42" class="edge"><title>G&#45;&gt;UW</title>
<path fill="none" stroke="lightblue" d="M592.602,-204.937C562.751,-194.818 509.42,-177.301 463,-165 420.336,-153.695 370.612,-143.302 337.839,-136.83"/>
<polygon fill="lightblue" stroke="lightblue" points="327.824,-134.87 338.502,-132.374 332.731,-135.83 337.638,-136.79 337.638,-136.79 337.638,-136.79 332.731,-135.83 336.773,-141.207 327.824,-134.87 327.824,-134.87"/>
<text text-anchor="middle" x="510" y="-168.4" font-family="Courier,monospace" font-size="12.00" fill="white">1</text>
</g>
<!-- G&#45;&gt;Boros -->
<g id="edge46" class="edge"><title>G&#45;&gt;Boros</title>
<path fill="none" stroke="lightblue" d="M616.406,-195.967C617.097,-166.912 618.511,-107.523 619.345,-72.5175"/>
<polygon fill="lightblue" stroke="lightblue" points="619.593,-62.0784 623.854,-72.1827 619.474,-67.0769 619.355,-72.0755 619.355,-72.0755 619.355,-72.0755 619.474,-67.0769 614.857,-71.9684 619.593,-62.0784 619.593,-62.0784"/>
<text text-anchor="middle" x="623" y="-125.9" font-family="Courier,monospace" font-size="12.00" fill="white">1</text>
</g>
<!-- WUBG&#45;&gt;WG -->
<g id="edge8" class="edge"><title>WUBG&#45;&gt;WG</title>
<path fill="none" stroke="lightblue" d="M813.203,-224.995C843.837,-236.993 886,-260.346 886,-298 886,-512.5 886,-512.5 886,-512.5 886,-655.698 894.785,-707.423 816,-827 803.038,-846.673 794.915,-849.352 773,-858 692.914,-889.602 590.399,-894.093 536.301,-893.956"/>
<polygon fill="lightblue" stroke="lightblue" points="526.148,-893.874 536.184,-889.455 531.147,-893.914 536.147,-893.955 536.147,-893.955 536.147,-893.955 531.147,-893.914 536.111,-898.455 526.148,-893.874 526.148,-893.874"/>
<text text-anchor="middle" x="891" y="-550.9" font-family="Courier,monospace" font-size="12.00" fill="white">1</text>
</g>
<!-- WUBG&#45;&gt;UG -->
<g id="edge4" class="edge"><title>WUBG&#45;&gt;UG</title>
<path fill="none" stroke="lightblue" d="M768.299,-196.902C758.078,-186.031 743.142,-172.366 727,-165 674.335,-140.968 653.855,-162.209 598,-147 594.626,-146.081 591.161,-144.954 587.741,-143.722"/>
<polygon fill="lightblue" stroke="lightblue" points="578.343,-140.053 589.295,-139.497 583.001,-141.871 587.659,-143.689 587.659,-143.689 587.659,-143.689 583.001,-141.871 586.022,-147.881 578.343,-140.053 578.343,-140.053"/>
<text text-anchor="middle" x="752" y="-168.4" font-family="Courier,monospace" font-size="12.00" fill="white">1</text>
</g>
<!-- WUBG&#45;&gt;UB -->
<g id="edge6" class="edge"><title>WUBG&#45;&gt;UB</title>
<path fill="none" stroke="lightblue" d="M773.61,-231.74C768.75,-241.103 762.353,-252.889 756,-263 733.701,-298.492 703.644,-336.591 684.291,-360.113"/>
<polygon fill="lightblue" stroke="lightblue" points="677.679,-368.088 680.597,-357.517 680.87,-364.239 684.061,-360.39 684.061,-360.39 684.061,-360.39 680.87,-364.239 687.526,-363.262 677.679,-368.088 677.679,-368.088"/>
<text text-anchor="middle" x="748" y="-295.9" font-family="Courier,monospace" font-size="12.00" fill="white">1</text>
</g>
<!-- UBRG -->
<g id="node8" class="node"><title>UBRG</title>
<ellipse fill="lightgreen" stroke="white" cx="76" cy="-44" rx="36.2938" ry="18"/>
<text text-anchor="middle" x="76" y="-40.3" font-family="Helvetica,sans-Serif" font-size="14.00" fill="blue">UBRG</text>
</g>
<!-- UW&#45;&gt;UBRG -->
<g id="edge27" class="edge"><title>UW&#45;&gt;UBRG</title>
<path fill="none" stroke="lightblue" d="M278.665,-119.43C239.708,-105.123 161.069,-76.2421 114.024,-58.9647"/>
<polygon fill="lightblue" stroke="lightblue" points="104.491,-55.4634 115.429,-54.6867 109.184,-57.1871 113.878,-58.9109 113.878,-58.9109 113.878,-58.9109 109.184,-57.1871 112.326,-63.135 104.491,-55.4634 104.491,-55.4634"/>
<text text-anchor="middle" x="207" y="-83.4" font-family="Courier,monospace" font-size="12.00" fill="white">1</text>
</g>
<!-- UW&#45;&gt;Boros -->
<g id="edge50" class="edge"><title>UW&#45;&gt;Boros</title>
<path fill="none" stroke="lightblue" d="M326.688,-121.556C381.516,-107.246 513.82,-72.7136 580.371,-55.3435"/>
<polygon fill="lightblue" stroke="lightblue" points="590.081,-52.8092 581.541,-59.6888 585.243,-54.0719 580.405,-55.3347 580.405,-55.3347 580.405,-55.3347 585.243,-54.0719 579.268,-50.9806 590.081,-52.8092 590.081,-52.8092"/>
<text text-anchor="middle" x="485" y="-83.4" font-family="Courier,monospace" font-size="12.00" fill="white">1</text>
</g>
<!-- UBRG&#45;&gt;WG -->
<g id="edge20" class="edge"><title>UBRG&#45;&gt;WG</title>
<path fill="none" stroke="lightblue" d="M76.5126,-62.3288C78.2783,-123.566 84,-335.508 84,-510.5 84,-810 84,-810 84,-810 84,-886.641 359.593,-893.49 461.612,-893.399"/>
<polygon fill="lightblue" stroke="lightblue" points="471.771,-893.366 461.785,-897.899 466.771,-893.382 461.771,-893.399 461.771,-893.399 461.771,-893.399 466.771,-893.382 461.756,-888.899 471.771,-893.366 471.771,-893.366"/>
<text text-anchor="middle" x="88" y="-465.9" font-family="Courier,monospace" font-size="12.00" fill="white">1</text>
</g>
<!-- Naya&#45;&gt;WG -->
<g id="edge12" class="edge"><title>Naya&#45;&gt;WG</title>
<path fill="none" stroke="lightblue" d="M764.445,-571.257C761.06,-577.004 757.535,-583.627 755,-590 732.352,-646.944 734.544,-815.913 690,-858 668.312,-878.491 585.298,-887.379 536.136,-890.912"/>
<polygon fill="lightblue" stroke="lightblue" points="525.898,-891.606 535.571,-886.44 530.886,-891.268 535.875,-890.93 535.875,-890.93 535.875,-890.93 530.886,-891.268 536.179,-895.42 525.898,-891.606 525.898,-891.606"/>
<text text-anchor="middle" x="738" y="-720.9" font-family="Courier,monospace" font-size="12.00" fill="white">1</text>
</g>
<!-- UGR -->
<g id="node15" class="node"><title>UGR</title>
<ellipse fill="lightgreen" stroke="white" cx="669" cy="-469" rx="30.5947" ry="18"/>
<text text-anchor="middle" x="669" y="-465.3" font-family="Helvetica,sans-Serif" font-size="14.00" fill="blue">UGR</text>
</g>
<!-- Naya&#45;&gt;UGR -->
<g id="edge34" class="edge"><title>Naya&#45;&gt;UGR</title>
<path fill="none" stroke="lightblue" d="M757.019,-538.92C739.936,-525.544 714.069,-505.29 694.791,-490.195"/>
<polygon fill="lightblue" stroke="lightblue" points="686.716,-483.872 697.364,-486.494 690.653,-486.954 694.589,-490.037 694.589,-490.037 694.589,-490.037 690.653,-486.954 691.815,-493.58 686.716,-483.872 686.716,-483.872"/>
<text text-anchor="middle" x="733" y="-508.4" font-family="Courier,monospace" font-size="12.00" fill="white">1</text>
</g>
<!-- Naya&#45;&gt;UB -->
<g id="edge32" class="edge"><title>Naya&#45;&gt;UB</title>
<path fill="none" stroke="lightblue" d="M775.287,-535.793C774.843,-508.228 770.14,-453.841 742,-420 731.295,-407.126 714.85,-398.777 699.903,-393.476"/>
<polygon fill="lightblue" stroke="lightblue" points="690.372,-390.415 701.269,-389.188 695.132,-391.944 699.893,-393.473 699.893,-393.473 699.893,-393.473 695.132,-391.944 698.517,-397.757 690.372,-390.415 690.372,-390.415"/>
<text text-anchor="middle" x="775" y="-465.9" font-family="Courier,monospace" font-size="12.00" fill="white">1</text>
</g>
<!-- UR&#45;&gt;WG -->
<g id="edge53" class="edge"><title>UR&#45;&gt;WG</title>
<path fill="none" stroke="lightblue" d="M330.019,-225.628C318.91,-231.843 305.445,-240.356 295,-250 282.395,-261.638 279.502,-265.572 272,-281 193.426,-442.59 210,-500.819 210,-680.5 210,-810 210,-810 210,-810 210,-833.851 214.577,-844.156 234,-858 269.797,-883.514 397.745,-890.434 461.846,-892.307"/>
<polygon fill="lightblue" stroke="lightblue" points="471.931,-892.575 461.815,-896.807 466.932,-892.442 461.934,-892.309 461.934,-892.309 461.934,-892.309 466.932,-892.442 462.054,-887.811 471.931,-892.575 471.931,-892.575"/>
<text text-anchor="middle" x="213" y="-550.9" font-family="Courier,monospace" font-size="12.00" fill="white">2</text>
</g>
<!-- UR&#45;&gt;BG -->
<g id="edge45" class="edge"><title>UR&#45;&gt;BG</title>
<path fill="none" stroke="lightblue" d="M332.547,-227.297C313.331,-241.738 286,-267.618 286,-298 286,-725 286,-725 286,-725 286,-760.998 324.695,-784.139 354.418,-796.604"/>
<polygon fill="lightblue" stroke="lightblue" points="364.086,-800.426 353.131,-800.935 359.436,-798.588 354.786,-796.75 354.786,-796.75 354.786,-796.75 359.436,-798.588 356.44,-792.565 364.086,-800.426 364.086,-800.426"/>
<text text-anchor="middle" x="290" y="-508.4" font-family="Courier,monospace" font-size="12.00" fill="white">2</text>
</g>
<!-- UR&#45;&gt;BR -->
<g id="edge28" class="edge"><title>UR&#45;&gt;BR</title>
<path fill="none" stroke="lightblue" d="M352.012,-232.369C355.641,-291.882 369.227,-492.949 396,-657 398.275,-670.94 398.484,-674.617 403,-688 404.014,-691.005 405.202,-694.099 406.465,-697.146"/>
<polygon fill="lightblue" stroke="lightblue" points="410.631,-706.55 402.466,-699.23 408.606,-701.978 406.58,-697.407 406.58,-697.407 406.58,-697.407 408.606,-701.978 410.695,-695.584 410.631,-706.55 410.631,-706.55"/>
<text text-anchor="middle" x="378" y="-465.9" font-family="Courier,monospace" font-size="12.00" fill="white">1</text>
</g>
<!-- UR&#45;&gt;WR -->
<g id="edge60" class="edge"><title>UR&#45;&gt;WR</title>
<path fill="none" stroke="lightblue" d="M366.652,-228.832C372.726,-234.849 379.329,-242.284 384,-250 426.983,-321 454.835,-537.649 506,-603 512.287,-611.03 520.957,-617.784 529.511,-623.151"/>
<polygon fill="lightblue" stroke="lightblue" points="538.278,-628.236 527.37,-627.111 533.953,-625.728 529.628,-623.219 529.628,-623.219 529.628,-623.219 533.953,-625.728 531.886,-619.326 538.278,-628.236 538.278,-628.236"/>
<text text-anchor="middle" x="448" y="-423.4" font-family="Courier,monospace" font-size="12.00" fill="white">1</text>
</g>
<!-- Grixis&#45;&gt;WG -->
<g id="edge55" class="edge"><title>Grixis&#45;&gt;WG</title>
<path fill="none" stroke="lightblue" d="M892.749,-971.897C815.604,-956.831 616.475,-917.942 534.78,-901.988"/>
<polygon fill="lightblue" stroke="lightblue" points="524.508,-899.982 535.185,-897.482 529.415,-900.94 534.323,-901.898 534.323,-901.898 534.323,-901.898 529.415,-900.94 533.46,-906.315 524.508,-899.982 524.508,-899.982"/>
<text text-anchor="middle" x="741" y="-933.4" font-family="Courier,monospace" font-size="12.00" fill="white">2</text>
</g>
<!-- Grixis&#45;&gt;WB -->
<g id="edge59" class="edge"><title>Grixis&#45;&gt;WB</title>
<path fill="none" stroke="lightblue" d="M924,-960.832C924,-944.048 924,-917.767 924,-895 924,-895 924,-895 924,-765.5 924,-649.232 939.129,-614.486 900,-505 867.343,-413.624 848.38,-381.112 763,-335 743.319,-324.371 736.524,-325.895 716,-317 714.423,-316.317 712.814,-315.601 711.195,-314.867"/>
<polygon fill="lightblue" stroke="lightblue" points="701.962,-310.546 712.927,-310.709 706.491,-312.665 711.02,-314.785 711.02,-314.785 711.02,-314.785 706.491,-312.665 709.112,-318.861 701.962,-310.546 701.962,-310.546"/>
<text text-anchor="middle" x="930" y="-635.9" font-family="Courier,monospace" font-size="12.00" fill="white">1</text>
</g>
<!-- Grixis&#45;&gt;Naya -->
<g id="edge14" class="edge"><title>Grixis&#45;&gt;Naya</title>
<path fill="none" stroke="lightblue" d="M911.767,-962.135C900.659,-946.114 886,-920.199 886,-895 886,-895 886,-895 886,-765.5 886,-689.833 829.187,-614.693 796.851,-578.055"/>
<polygon fill="lightblue" stroke="lightblue" points="789.97,-570.42 800.007,-574.836 793.317,-574.134 796.665,-577.848 796.665,-577.848 796.665,-577.848 793.317,-574.134 793.322,-580.861 789.97,-570.42 789.97,-570.42"/>
<text text-anchor="middle" x="890" y="-763.4" font-family="Courier,monospace" font-size="12.00" fill="white">1</text>
</g>
<!-- Grixis&#45;&gt;RG -->
<g id="edge35" class="edge"><title>Grixis&#45;&gt;RG</title>
<path fill="none" stroke="lightblue" d="M936.233,-962.135C947.341,-946.114 962,-920.199 962,-895 962,-895 962,-895 962,-298 962,-279.502 962,-258.684 962,-242.525"/>
<polygon fill="lightblue" stroke="lightblue" points="962,-232.168 966.5,-242.168 962,-237.168 962,-242.168 962,-242.168 962,-242.168 962,-237.168 957.5,-242.168 962,-232.168 962,-232.168"/>
<text text-anchor="middle" x="966" y="-593.4" font-family="Courier,monospace" font-size="12.00" fill="white">1</text>
</g>
<!-- Jund -->
<g id="node13" class="node"><title>Jund</title>
<ellipse fill="lightgreen" stroke="white" cx="38" cy="-979" rx="29.795" ry="18"/>
<text text-anchor="middle" x="38" y="-975.3" font-family="Helvetica,sans-Serif" font-size="14.00" fill="blue">Jund</text>
</g>
<!-- Jund&#45;&gt;WG -->
<g id="edge52" class="edge"><title>Jund&#45;&gt;WG</title>
<path fill="none" stroke="lightblue" d="M66.4897,-972.871C146.755,-958.419 374.655,-917.388 463.201,-901.445"/>
<polygon fill="lightblue" stroke="lightblue" points="473.289,-899.629 464.244,-905.83 468.368,-900.515 463.447,-901.401 463.447,-901.401 463.447,-901.401 468.368,-900.515 462.65,-896.972 473.289,-899.629 473.289,-899.629"/>
<text text-anchor="middle" x="301" y="-933.4" font-family="Courier,monospace" font-size="12.00" fill="white">1</text>
</g>
<!-- Jund&#45;&gt;UW -->
<g id="edge19" class="edge"><title>Jund&#45;&gt;UW</title>
<path fill="none" stroke="lightblue" d="M25.9766,-962.436C14.8438,-946.44 0,-920.357 0,-895 0,-895 0,-895 0,-340.5 0,-212.056 186.131,-155.549 266.143,-137.192"/>
<polygon fill="lightblue" stroke="lightblue" points="276.252,-134.947 267.465,-141.508 271.371,-136.031 266.489,-137.115 266.489,-137.115 266.489,-137.115 271.371,-136.031 265.514,-132.722 276.252,-134.947 276.252,-134.947"/>
<text text-anchor="middle" x="4" y="-550.9" font-family="Courier,monospace" font-size="12.00" fill="white">1</text>
</g>
<!-- Jund&#45;&gt;UBRG -->
<g id="edge23" class="edge"><title>Jund&#45;&gt;UBRG</title>
<path fill="none" stroke="lightblue" d="M38,-960.832C38,-944.048 38,-917.767 38,-895 38,-895 38,-895 38,-128 38,-107.068 48.115,-85.6417 57.9077,-69.8028"/>
<polygon fill="lightblue" stroke="lightblue" points="63.5574,-61.1688 61.8474,-72.0005 60.8196,-65.3527 58.0819,-69.5366 58.0819,-69.5366 58.0819,-69.5366 60.8196,-65.3527 54.3164,-67.0726 63.5574,-61.1688 63.5574,-61.1688"/>
<text text-anchor="middle" x="42" y="-508.4" font-family="Courier,monospace" font-size="12.00" fill="white">1</text>
</g>
<!-- BR&#45;&gt;WG -->
<g id="edge9" class="edge"><title>BR&#45;&gt;WG</title>
<path fill="none" stroke="lightblue" d="M426.967,-741.73C441.02,-771.241 470.29,-832.71 486.868,-867.522"/>
<polygon fill="lightblue" stroke="lightblue" points="491.184,-876.586 482.821,-869.492 489.034,-872.071 486.884,-867.557 486.884,-867.557 486.884,-867.557 489.034,-872.071 490.947,-865.622 491.184,-876.586 491.184,-876.586"/>
<text text-anchor="middle" x="471" y="-805.9" font-family="Courier,monospace" font-size="12.00" fill="white">2</text>
</g>
<!-- BR&#45;&gt;BG -->
<g id="edge2" class="edge"><title>BR&#45;&gt;BG</title>
<path fill="none" stroke="lightblue" d="M412.736,-741.771C408.452,-753.241 402.687,-768.677 397.8,-781.761"/>
<polygon fill="lightblue" stroke="lightblue" points="394.273,-791.204 393.557,-780.261 396.023,-786.52 397.772,-781.836 397.772,-781.836 397.772,-781.836 396.023,-786.52 401.988,-783.41 394.273,-791.204 394.273,-791.204"/>
<text text-anchor="middle" x="410" y="-763.4" font-family="Courier,monospace" font-size="12.00" fill="white">1</text>
</g>
<!-- BR&#45;&gt;UR -->
<g id="edge13" class="edge"><title>BR&#45;&gt;UR</title>
<path fill="none" stroke="lightblue" d="M393.648,-717.396C377.744,-712.466 358.353,-703.561 348,-688 283.747,-591.426 332,-543.496 332,-427.5 332,-427.5 332,-427.5 332,-298 332,-278.719 336.932,-257.54 341.77,-241.402"/>
<polygon fill="lightblue" stroke="lightblue" points="344.884,-231.595 346.147,-242.488 343.371,-236.361 341.858,-241.126 341.858,-241.126 341.858,-241.126 343.371,-236.361 337.569,-239.765 344.884,-231.595 344.884,-231.595"/>
<text text-anchor="middle" x="336" y="-465.9" font-family="Courier,monospace" font-size="12.00" fill="white">1</text>
</g>
<!-- BR&#45;&gt;WR -->
<g id="edge21" class="edge"><title>BR&#45;&gt;WR</title>
<path fill="none" stroke="lightblue" d="M434.44,-708.728C446.08,-698.461 462.766,-684.76 479,-675 494.078,-665.935 511.929,-657.96 527.03,-651.92"/>
<polygon fill="lightblue" stroke="lightblue" points="536.501,-648.239 528.81,-656.057 531.84,-650.051 527.18,-651.862 527.18,-651.862 527.18,-651.862 531.84,-650.051 525.55,-647.668 536.501,-648.239 536.501,-648.239"/>
<text text-anchor="middle" x="483" y="-678.4" font-family="Courier,monospace" font-size="12.00" fill="white">1</text>
</g>
<!-- UGR&#45;&gt;UB -->
<g id="edge64" class="edge"><title>UGR&#45;&gt;UB</title>
<path fill="none" stroke="lightblue" d="M668.171,-450.802C667.635,-439.674 666.925,-424.945 666.313,-412.244"/>
<polygon fill="lightblue" stroke="lightblue" points="665.828,-402.176 670.804,-411.947 666.068,-407.17 666.309,-412.164 666.309,-412.164 666.309,-412.164 666.068,-407.17 661.814,-412.381 665.828,-402.176 665.828,-402.176"/>
<text text-anchor="middle" x="672" y="-423.4" font-family="Courier,monospace" font-size="12.00" fill="white">1</text>
</g>
<!-- UG&#45;&gt;WR -->
<g id="edge33" class="edge"><title>UG&#45;&gt;WR</title>
<path fill="none" stroke="lightblue" d="M538.71,-142.464C523.24,-154.213 502.171,-173.367 493,-196 481.816,-223.598 490.371,-233.338 493,-263 504.677,-394.749 539,-549.512 553.459,-610.924"/>
<polygon fill="lightblue" stroke="lightblue" points="555.84,-620.951 549.151,-612.261 554.685,-616.087 553.53,-611.222 553.53,-611.222 553.53,-611.222 554.685,-616.087 557.908,-610.182 555.84,-620.951 555.84,-620.951"/>
<text text-anchor="middle" x="515" y="-380.9" font-family="Courier,monospace" font-size="12.00" fill="white">1</text>
</g>
<!-- WR&#45;&gt;WG -->
<g id="edge26" class="edge"><title>WR&#45;&gt;WG</title>
<path fill="none" stroke="lightblue" d="M556.814,-657.119C549.786,-694.102 531.908,-784.093 511,-858 510.197,-860.839 509.295,-863.787 508.357,-866.712"/>
<polygon fill="lightblue" stroke="lightblue" points="505.112,-876.382 504.027,-865.47 506.703,-871.642 508.293,-866.902 508.293,-866.902 508.293,-866.902 506.703,-871.642 512.56,-868.333 505.112,-876.382 505.112,-876.382"/>
<text text-anchor="middle" x="540" y="-763.4" font-family="Courier,monospace" font-size="12.00" fill="white">1</text>
</g>
<!-- WR&#45;&gt;BG -->
<g id="edge39" class="edge"><title>WR&#45;&gt;BG</title>
<path fill="none" stroke="lightblue" d="M545.372,-654.287C515.194,-683.764 445.87,-751.476 410.159,-786.356"/>
<polygon fill="lightblue" stroke="lightblue" points="402.665,-793.676 406.674,-783.47 406.242,-790.183 409.818,-786.689 409.818,-786.689 409.818,-786.689 406.242,-790.183 412.963,-789.908 402.665,-793.676 402.665,-793.676"/>
<text text-anchor="middle" x="496" y="-720.9" font-family="Courier,monospace" font-size="12.00" fill="white">2</text>
</g>
<!-- WR&#45;&gt;WUBG -->
<g id="edge22" class="edge"><title>WR&#45;&gt;WUBG</title>
<path fill="none" stroke="lightblue" d="M581.67,-628.218C595.537,-621.666 613.726,-612.523 629,-603 665.357,-580.332 763.879,-525.341 783,-487 823.531,-405.727 802.6,-293.056 789.679,-242.031"/>
<polygon fill="lightblue" stroke="lightblue" points="787.068,-232.112 793.965,-240.638 788.341,-236.948 789.613,-241.783 789.613,-241.783 789.613,-241.783 788.341,-236.948 785.261,-242.928 787.068,-232.112 787.068,-232.112"/>
<text text-anchor="middle" x="808" y="-423.4" font-family="Courier,monospace" font-size="12.00" fill="white">1</text>
</g>
<!-- WR&#45;&gt;Naya -->
<g id="edge48" class="edge"><title>WR&#45;&gt;Naya</title>
<path fill="none" stroke="lightblue" d="M584.559,-631.229C607.258,-624.743 641.788,-614.294 671,-603 695.658,-593.466 722.754,-580.889 743.104,-571.001"/>
<polygon fill="lightblue" stroke="lightblue" points="752.23,-566.528 745.231,-574.971 747.74,-568.729 743.25,-570.93 743.25,-570.93 743.25,-570.93 747.74,-568.729 741.27,-566.889 752.23,-566.528 752.23,-566.528"/>
<text text-anchor="middle" x="705" y="-593.4" font-family="Courier,monospace" font-size="12.00" fill="white">1</text>
</g>
<!-- WR&#45;&gt;UGR -->
<g id="edge18" class="edge"><title>WR&#45;&gt;UGR</title>
<path fill="none" stroke="lightblue" d="M580.498,-627.173C590.427,-621.12 601.918,-612.816 610,-603 636.311,-571.042 653.114,-525.499 661.799,-496.859"/>
<polygon fill="lightblue" stroke="lightblue" points="664.635,-487.129 666.157,-497.988 663.236,-491.929 661.837,-496.729 661.837,-496.729 661.837,-496.729 663.236,-491.929 657.517,-495.47 664.635,-487.129 664.635,-487.129"/>
<text text-anchor="middle" x="652" y="-550.9" font-family="Courier,monospace" font-size="12.00" fill="white">1</text>
</g>
<!-- WR&#45;&gt;UB -->
<g id="edge62" class="edge"><title>WR&#45;&gt;UB</title>
<path fill="none" stroke="lightblue" d="M565.295,-621.163C575.925,-587.996 601.233,-512.122 629,-451 635.367,-436.985 643.508,-421.876 650.437,-409.655"/>
<polygon fill="lightblue" stroke="lightblue" points="655.45,-400.938 654.366,-411.85 652.958,-405.272 650.465,-409.607 650.465,-409.607 650.465,-409.607 652.958,-405.272 646.564,-407.363 655.45,-400.938 655.45,-400.938"/>
<text text-anchor="middle" x="611" y="-508.4" font-family="Courier,monospace" font-size="12.00" fill="white">2</text>
</g>
<!-- UB&#45;&gt;WB -->
<g id="edge29" class="edge"><title>UB&#45;&gt;WB</title>
<path fill="none" stroke="lightblue" d="M660.784,-365.869C659.194,-356.597 658.339,-345.022 661,-335 661.926,-331.512 663.291,-328.01 664.879,-324.64"/>
<polygon fill="lightblue" stroke="lightblue" points="669.772,-315.615 668.962,-326.551 667.389,-320.011 665.006,-324.406 665.006,-324.406 665.006,-324.406 667.389,-320.011 661.05,-322.261 669.772,-315.615 669.772,-315.615"/>
<text text-anchor="middle" x="665" y="-338.4" font-family="Courier,monospace" font-size="12.00" fill="white">1</text>
</g>
<!-- UB&#45;&gt;UR -->
<g id="edge24" class="edge"><title>UB&#45;&gt;UR</title>
<path fill="none" stroke="lightblue" d="M638.551,-380.07C610.08,-376.059 564.152,-367.054 529,-348 472.305,-317.27 475.232,-286.4 422,-250 409.887,-241.717 395.526,-234.254 382.9,-228.369"/>
<polygon fill="lightblue" stroke="lightblue" points="373.649,-224.188 384.614,-224.206 378.205,-226.247 382.761,-228.307 382.761,-228.307 382.761,-228.307 378.205,-226.247 380.908,-232.407 373.649,-224.188 373.649,-224.188"/>
<text text-anchor="middle" x="491" y="-295.9" font-family="Courier,monospace" font-size="12.00" fill="white">1</text>
</g>
<!-- UB&#45;&gt;BR -->
<g id="edge38" class="edge"><title>UB&#45;&gt;BR</title>
<path fill="none" stroke="lightblue" d="M638.659,-389.032C586.724,-398.553 471.916,-427.736 423,-505 385.401,-564.389 400.242,-652.319 411.231,-696.139"/>
<polygon fill="lightblue" stroke="lightblue" points="413.839,-706.038 406.94,-697.515 412.565,-701.203 411.291,-696.368 411.291,-696.368 411.291,-696.368 412.565,-701.203 415.643,-695.222 413.839,-706.038 413.839,-706.038"/>
<text text-anchor="middle" x="413" y="-550.9" font-family="Courier,monospace" font-size="12.00" fill="white">1</text>
</g>
<!-- UB&#45;&gt;UG -->
<g id="edge30" class="edge"><title>UB&#45;&gt;UG</title>
<path fill="none" stroke="lightblue" d="M654.206,-367.447C636.243,-340.875 600.198,-284.505 580,-232 570.565,-207.473 564.446,-178.068 560.909,-157.145"/>
<polygon fill="lightblue" stroke="lightblue" points="559.292,-147.048 565.317,-156.21 560.083,-151.985 560.874,-156.922 560.874,-156.922 560.874,-156.922 560.083,-151.985 556.43,-157.634 559.292,-147.048 559.292,-147.048"/>
<text text-anchor="middle" x="597" y="-253.4" font-family="Courier,monospace" font-size="12.00" fill="white">1</text>
</g>
</g>
</svg>
