<?xml version="1.0" encoding="UTF-8" standalone="no"?>
<!DOCTYPE svg PUBLIC "-//W3C//DTD SVG 1.1//EN"
 "http://www.w3.org/Graphics/SVG/1.1/DTD/svg11.dtd">
<!-- Generated by graphviz version 2.38.0 (20140413.2041)
 -->
<!-- Title: %3 Pages: 1 -->
<svg width="249pt" height="325pt"
 viewBox="0.00 0.00 248.78 325.00" xmlns="http://www.w3.org/2000/svg" xmlns:xlink="http://www.w3.org/1999/xlink">
<g id="graph0" class="graph" transform="scale(1 1) rotate(0) translate(4 321)">
<title>%3</title>
<polygon fill="#333333" stroke="none" points="-4,4 -4,-321 244.783,-321 244.783,4 -4,4"/>
<text text-anchor="middle" x="120.392" y="-9.2" font-family="Times,serif" font-size="16.00" fill="yellow">Archetypes and matches</text>
<!-- Control -->
<g id="node1" class="node"><title>Control</title>
<ellipse fill="lightgreen" stroke="white" cx="160.783" cy="-299" rx="38.9931" ry="18"/>
<text text-anchor="middle" x="160.783" y="-295.3" font-family="Helvetica,sans-Serif" font-size="14.00" fill="blue">Control</text>
</g>
<!-- Control&#45;&gt;Control -->
<g id="edge16" class="edge"><title>Control&#45;&gt;Control</title>
<path fill="none" stroke="lightblue" d="M196.127,-306.875C208.131,-306.916 217.78,-304.291 217.78,-299 217.78,-295.362 213.219,-292.985 206.468,-291.868"/>
<polygon fill="lightblue" stroke="lightblue" points="196.127,-291.125 206.424,-287.353 201.114,-291.484 206.102,-291.842 206.102,-291.842 206.102,-291.842 201.114,-291.484 205.779,-296.33 196.127,-291.125 196.127,-291.125"/>
<text text-anchor="middle" x="221.78" y="-295.9" font-family="Courier,monospace" font-size="12.00" fill="white">2</text>
</g>
<!-- Aggro -->
<g id="node2" class="node"><title>Aggro</title>
<ellipse fill="lightgreen" stroke="white" cx="34.7832" cy="-214" rx="34.394" ry="18"/>
<text text-anchor="middle" x="34.7832" y="-210.3" font-family="Helvetica,sans-Serif" font-size="14.00" fill="blue">Aggro</text>
</g>
<!-- Control&#45;&gt;Aggro -->
<g id="edge5" class="edge"><title>Control&#45;&gt;Aggro</title>
<path fill="none" stroke="lightblue" d="M129.175,-288.095C113.223,-282.234 94.0684,-273.823 78.7832,-263 69.4144,-256.366 60.5551,-247.443 53.2751,-239.09"/>
<polygon fill="lightblue" stroke="lightblue" points="46.8142,-231.349 56.6769,-236.143 50.0182,-235.188 53.2223,-239.026 53.2223,-239.026 53.2223,-239.026 50.0182,-235.188 49.7676,-241.91 46.8142,-231.349 46.8142,-231.349"/>
<text text-anchor="middle" x="82.7832" y="-253.4" font-family="Courier,monospace" font-size="12.00" fill="white">8</text>
</g>
<!-- Ramp -->
<g id="node3" class="node"><title>Ramp</title>
<ellipse fill="lightgreen" stroke="white" cx="111.783" cy="-44" rx="34.394" ry="18"/>
<text text-anchor="middle" x="111.783" y="-40.3" font-family="Helvetica,sans-Serif" font-size="14.00" fill="blue">Ramp</text>
</g>
<!-- Control&#45;&gt;Ramp -->
<g id="edge1" class="edge"><title>Control&#45;&gt;Ramp</title>
<path fill="none" stroke="lightblue" d="M171.337,-281.574C191.552,-247.854 231.229,-169.109 201.783,-111 190.315,-88.3678 167.031,-71.6205 147.02,-60.6592"/>
<polygon fill="lightblue" stroke="lightblue" points="138.11,-56.0298 149.059,-56.6474 142.547,-58.3351 146.984,-60.6405 146.984,-60.6405 146.984,-60.6405 142.547,-58.3351 144.909,-64.6336 138.11,-56.0298 138.11,-56.0298"/>
<text text-anchor="middle" x="216.783" y="-168.4" font-family="Courier,monospace" font-size="12.00" fill="white">3</text>
</g>
<!-- Mid&#45;Range -->
<g id="node4" class="node"><title>Mid&#45;Range</title>
<ellipse fill="lightgreen" stroke="white" cx="112.783" cy="-129" rx="53.8905" ry="18"/>
<text text-anchor="middle" x="112.783" y="-125.3" font-family="Helvetica,sans-Serif" font-size="14.00" fill="blue">Mid&#45;Range</text>
</g>
<!-- Control&#45;&gt;Mid&#45;Range -->
<g id="edge14" class="edge"><title>Control&#45;&gt;Mid&#45;Range</title>
<path fill="none" stroke="lightblue" d="M162.541,-280.929C163.048,-275.234 163.533,-268.849 163.783,-263 165.07,-232.92 163.165,-224.609 153.783,-196 148.993,-181.394 140.344,-166.714 132.22,-154.92"/>
<polygon fill="lightblue" stroke="lightblue" points="126.183,-146.512 135.671,-152.01 129.099,-150.573 132.016,-154.635 132.016,-154.635 132.016,-154.635 129.099,-150.573 128.36,-157.26 126.183,-146.512 126.183,-146.512"/>
<text text-anchor="middle" x="167.783" y="-210.9" font-family="Courier,monospace" font-size="12.00" fill="white">1</text>
</g>
<!-- Aggro&#45;&gt;Control -->
<g id="edge3" class="edge"><title>Aggro&#45;&gt;Control</title>
<path fill="none" stroke="lightblue" d="M55.4242,-228.597C75.9566,-242.122 107.672,-263.014 130.944,-278.344"/>
<polygon fill="lightblue" stroke="lightblue" points="139.409,-283.92 128.583,-282.177 135.233,-281.17 131.058,-278.419 131.058,-278.419 131.058,-278.419 135.233,-281.17 133.533,-274.661 139.409,-283.92 139.409,-283.92"/>
<text text-anchor="middle" x="109.783" y="-253.4" font-family="Courier,monospace" font-size="12.00" fill="white">5</text>
</g>
<!-- Aggro&#45;&gt;Aggro -->
<g id="edge4" class="edge"><title>Aggro&#45;&gt;Aggro</title>
<path fill="none" stroke="lightblue" d="M66.0122,-221.858C77.6502,-222.115 87.2301,-219.496 87.2301,-214 87.2301,-210.221 82.7021,-207.803 76.0903,-206.744"/>
<polygon fill="lightblue" stroke="lightblue" points="66.0122,-206.142 76.2625,-202.246 71.0034,-206.44 75.9945,-206.738 75.9945,-206.738 75.9945,-206.738 71.0034,-206.44 75.7264,-211.23 66.0122,-206.142 66.0122,-206.142"/>
<text text-anchor="middle" x="95.2301" y="-210.9" font-family="Courier,monospace" font-size="12.00" fill="white">11</text>
</g>
<!-- Aggro&#45;&gt;Ramp -->
<g id="edge10" class="edge"><title>Aggro&#45;&gt;Ramp</title>
<path fill="none" stroke="lightblue" d="M24.2827,-196.686C16.633,-183.78 6.91577,-164.996 2.78315,-147 -0.797882,-131.406 -0.992635,-126.548 2.78315,-111 6.44205,-95.9332 7.19992,-90.3065 18.7832,-80 33.1122,-67.2504 52.5361,-58.9735 69.9269,-53.6891"/>
<polygon fill="lightblue" stroke="lightblue" points="79.8776,-50.9124 71.4551,-57.9347 75.0616,-52.2564 70.2455,-53.6003 70.2455,-53.6003 70.2455,-53.6003 75.0616,-52.2564 69.036,-49.2659 79.8776,-50.9124 79.8776,-50.9124"/>
<text text-anchor="middle" x="6.78315" y="-125.9" font-family="Courier,monospace" font-size="12.00" fill="white">9</text>
</g>
<!-- Aggro&#45;&gt;Mid&#45;Range -->
<g id="edge6" class="edge"><title>Aggro&#45;&gt;Mid&#45;Range</title>
<path fill="none" stroke="lightblue" d="M56.7522,-199.606C65.4644,-193.655 75.1933,-186.152 82.7832,-178 88.8097,-171.527 94.3068,-163.672 98.9017,-156.208"/>
<polygon fill="lightblue" stroke="lightblue" points="104.212,-147.095 103.065,-158.001 101.694,-151.415 99.177,-155.736 99.177,-155.736 99.177,-155.736 101.694,-151.415 95.2889,-153.47 104.212,-147.095 104.212,-147.095"/>
<text text-anchor="middle" x="100.783" y="-168.4" font-family="Courier,monospace" font-size="12.00" fill="white">10</text>
</g>
<!-- Ramp&#45;&gt;Control -->
<g id="edge2" class="edge"><title>Ramp&#45;&gt;Control</title>
<path fill="none" stroke="lightblue" d="M142.496,-52.4286C170.164,-61.0963 208.341,-78.573 220.783,-111 240.059,-161.236 233.931,-180.998 216.783,-232 211.776,-246.894 209.547,-250.688 199.783,-263 196.089,-267.658 191.74,-272.218 187.311,-276.427"/>
<polygon fill="lightblue" stroke="lightblue" points="179.883,-283.135 184.289,-273.093 183.594,-279.784 187.305,-276.433 187.305,-276.433 187.305,-276.433 183.594,-279.784 190.321,-279.773 179.883,-283.135 179.883,-283.135"/>
<text text-anchor="middle" x="236.783" y="-168.4" font-family="Courier,monospace" font-size="12.00" fill="white">4</text>
</g>
<!-- Ramp&#45;&gt;Aggro -->
<g id="edge13" class="edge"><title>Ramp&#45;&gt;Aggro</title>
<path fill="none" stroke="lightblue" d="M90.5613,-58.3961C74.0946,-70.0847 52.3496,-88.6519 41.7832,-111 30.6844,-134.474 29.9842,-164.427 31.4226,-185.789"/>
<polygon fill="lightblue" stroke="lightblue" points="32.2949,-195.808 26.9444,-186.236 31.8612,-190.827 31.4274,-185.845 31.4274,-185.845 31.4274,-185.845 31.8612,-190.827 35.9105,-185.455 32.2949,-195.808 32.2949,-195.808"/>
<text text-anchor="middle" x="45.7832" y="-125.9" font-family="Courier,monospace" font-size="12.00" fill="white">7</text>
</g>
<!-- Ramp&#45;&gt;Ramp -->
<g id="edge11" class="edge"><title>Ramp&#45;&gt;Ramp</title>
<path fill="none" stroke="lightblue" d="M143.012,-51.8577C154.65,-52.1153 164.23,-49.4961 164.23,-44 164.23,-40.2214 159.702,-37.8026 153.09,-36.7436"/>
<polygon fill="lightblue" stroke="lightblue" points="143.012,-36.1423 153.263,-32.246 148.003,-36.4401 152.994,-36.738 152.994,-36.738 152.994,-36.738 148.003,-36.4401 152.726,-41.23 143.012,-36.1423 143.012,-36.1423"/>
<text text-anchor="middle" x="168.23" y="-40.9" font-family="Courier,monospace" font-size="12.00" fill="white">1</text>
</g>
<!-- Ramp&#45;&gt;Mid&#45;Range -->
<g id="edge15" class="edge"><title>Ramp&#45;&gt;Mid&#45;Range</title>
<path fill="none" stroke="lightblue" d="M111.99,-62.1756C112.124,-73.2997 112.302,-88.0274 112.455,-100.731"/>
<polygon fill="lightblue" stroke="lightblue" points="112.576,-110.802 107.956,-100.857 112.516,-105.803 112.455,-100.803 112.455,-100.803 112.455,-100.803 112.516,-105.803 116.955,-100.749 112.576,-110.802 112.576,-110.802"/>
<text text-anchor="middle" x="116.783" y="-83.4" font-family="Courier,monospace" font-size="12.00" fill="white">4</text>
</g>
<!-- Mid&#45;Range&#45;&gt;Control -->
<g id="edge12" class="edge"><title>Mid&#45;Range&#45;&gt;Control</title>
<path fill="none" stroke="lightblue" d="M117.663,-147.078C126.009,-176.291 143.089,-236.071 153.066,-270.99"/>
<polygon fill="lightblue" stroke="lightblue" points="155.917,-280.967 148.842,-272.588 154.543,-276.159 153.169,-271.351 153.169,-271.351 153.169,-271.351 154.543,-276.159 157.496,-270.115 155.917,-280.967 155.917,-280.967"/>
<text text-anchor="middle" x="145.783" y="-210.9" font-family="Courier,monospace" font-size="12.00" fill="white">5</text>
</g>
<!-- Mid&#45;Range&#45;&gt;Aggro -->
<g id="edge8" class="edge"><title>Mid&#45;Range&#45;&gt;Aggro</title>
<path fill="none" stroke="lightblue" d="M93.006,-146.055C86.3415,-151.786 79.0183,-158.45 72.7832,-165 65.7867,-172.349 58.7238,-180.893 52.617,-188.717"/>
<polygon fill="lightblue" stroke="lightblue" points="46.4142,-196.835 48.9099,-186.157 49.4499,-192.862 52.4856,-188.889 52.4856,-188.889 52.4856,-188.889 49.4499,-192.862 56.0613,-191.622 46.4142,-196.835 46.4142,-196.835"/>
<text text-anchor="middle" x="76.7832" y="-168.4" font-family="Courier,monospace" font-size="12.00" fill="white">5</text>
</g>
<!-- Mid&#45;Range&#45;&gt;Ramp -->
<g id="edge7" class="edge"><title>Mid&#45;Range&#45;&gt;Ramp</title>
<path fill="none" stroke="lightblue" d="M104.457,-110.948C102.143,-105.364 99.9465,-99.0408 98.7832,-93 97.4229,-85.937 98.3249,-78.3874 100.161,-71.416"/>
<polygon fill="lightblue" stroke="lightblue" points="103.364,-61.7398 104.493,-72.6474 101.792,-66.4865 100.221,-71.2332 100.221,-71.2332 100.221,-71.2332 101.792,-66.4865 95.9491,-69.819 103.364,-61.7398 103.364,-61.7398"/>
<text text-anchor="middle" x="102.783" y="-83.4" font-family="Courier,monospace" font-size="12.00" fill="white">2</text>
</g>
<!-- Mid&#45;Range&#45;&gt;Mid&#45;Range -->
<g id="edge9" class="edge"><title>Mid&#45;Range&#45;&gt;Mid&#45;Range</title>
<path fill="none" stroke="lightblue" d="M161.541,-136.817C174.71,-136.404 184.728,-133.799 184.728,-129 184.728,-125.551 179.553,-123.235 171.752,-122.052"/>
<polygon fill="lightblue" stroke="lightblue" points="161.541,-121.183 171.886,-117.547 166.523,-121.607 171.505,-122.031 171.505,-122.031 171.505,-122.031 166.523,-121.607 171.124,-126.514 161.541,-121.183 161.541,-121.183"/>
<text text-anchor="middle" x="188.728" y="-125.9" font-family="Courier,monospace" font-size="12.00" fill="white">4</text>
</g>
</g>
</svg>
