<?xml version="1.0" encoding="UTF-8" standalone="no"?>
<!DOCTYPE svg PUBLIC "-//W3C//DTD SVG 1.1//EN"
 "http://www.w3.org/Graphics/SVG/1.1/DTD/svg11.dtd">
<!-- Generated by graphviz version 2.38.0 (20140413.2041)
 -->
<!-- Title: %3 Pages: 1 -->
<svg width="613pt" height="410pt"
 viewBox="0.00 0.00 613.29 410.00" xmlns="http://www.w3.org/2000/svg" xmlns:xlink="http://www.w3.org/1999/xlink">
<g id="graph0" class="graph" transform="scale(1 1) rotate(0) translate(4 406)">
<title>%3</title>
<polygon fill="#333333" stroke="none" points="-4,4 -4,-406 609.293,-406 609.293,4 -4,4"/>
<text text-anchor="middle" x="302.646" y="-9.2" font-family="Times,serif" font-size="16.00" fill="yellow">Seeding Engine</text>
<!-- A -->
<g id="node1" class="node"><title>A</title>
<polygon fill="green" stroke="white" points="149.293,-402 3.29296,-402 3.29296,-366 149.293,-366 149.293,-402"/>
<text text-anchor="middle" x="76.293" y="-380.3" font-family="Helvetica,sans-Serif" font-size="14.00" fill="white">Historical Match Data</text>
</g>
<!-- D -->
<g id="node4" class="node"><title>D</title>
<ellipse fill="#006699" stroke="white" cx="79.293" cy="-299" rx="79.0865" ry="18"/>
<text text-anchor="middle" x="79.293" y="-295.3" font-family="Helvetica,sans-Serif" font-size="14.00" fill="white">Win Ratio Builder</text>
</g>
<!-- A&#45;&gt;D -->
<g id="edge4" class="edge"><title>A&#45;&gt;D</title>
<path fill="none" stroke="white" d="M76.5026,-365.666C76.6513,-356.539 76.8969,-345.161 77.293,-335 77.3925,-332.446 77.5132,-329.787 77.6455,-327.128"/>
<polygon fill="white" stroke="white" points="78.1924,-317.084 82.142,-327.314 77.9205,-322.076 77.6486,-327.069 77.6486,-327.069 77.6486,-327.069 77.9205,-322.076 73.1553,-326.824 78.1924,-317.084 78.1924,-317.084"/>
<text text-anchor="middle" x="115.293" y="-338.4" font-family="Courier,monospace" font-size="12.00" fill="white">match data</text>
</g>
<!-- B -->
<g id="node2" class="node"><title>B</title>
<ellipse fill="#006699" stroke="white" cx="305.293" cy="-299" rx="80.6858" ry="18"/>
<text text-anchor="middle" x="305.293" y="-295.3" font-family="Helvetica,sans-Serif" font-size="14.00" fill="white">Adam&#39;s Algorithm</text>
</g>
<!-- E -->
<g id="node5" class="node"><title>E</title>
<ellipse fill="#006699" stroke="white" cx="310.293" cy="-214" rx="91.784" ry="18"/>
<text text-anchor="middle" x="310.293" y="-210.3" font-family="Helvetica,sans-Serif" font-size="14.00" fill="white">Swiss Round Builder</text>
</g>
<!-- B&#45;&gt;E -->
<g id="edge3" class="edge"><title>B&#45;&gt;E</title>
<path fill="none" stroke="white" d="M304.049,-280.642C303.617,-271.509 303.431,-260.132 304.293,-250 304.513,-247.42 304.822,-244.745 305.185,-242.074"/>
<polygon fill="white" stroke="white" points="306.779,-232.015 309.658,-242.596 305.997,-236.953 305.214,-241.892 305.214,-241.892 305.214,-241.892 305.997,-236.953 300.769,-241.187 306.779,-232.015 306.779,-232.015"/>
<text text-anchor="middle" x="379.793" y="-253.4" font-family="Courier,monospace" font-size="12.00" fill="white">generated partitions</text>
</g>
<!-- C -->
<g id="node3" class="node"><title>C</title>
<polygon fill="green" stroke="white" points="374.793,-402 247.793,-402 247.793,-366 374.793,-366 374.793,-402"/>
<text text-anchor="middle" x="311.293" y="-380.3" font-family="Helvetica,sans-Serif" font-size="14.00" fill="white">Current Draft Data</text>
</g>
<!-- C&#45;&gt;B -->
<g id="edge2" class="edge"><title>C&#45;&gt;B</title>
<path fill="none" stroke="white" d="M310.05,-365.802C309.245,-354.674 308.181,-339.945 307.262,-327.244"/>
<polygon fill="white" stroke="white" points="306.535,-317.176 311.744,-326.825 306.895,-322.163 307.256,-327.15 307.256,-327.15 307.256,-327.15 306.895,-322.163 302.767,-327.474 306.535,-317.176 306.535,-317.176"/>
<text text-anchor="middle" x="373.293" y="-338.4" font-family="Courier,monospace" font-size="12.00" fill="white">number of players</text>
</g>
<!-- C&#45;&gt;D -->
<g id="edge8" class="edge"><title>C&#45;&gt;D</title>
<path fill="none" stroke="white" d="M247.619,-365.983C229.291,-360.667 209.371,-354.483 191.293,-348 167.981,-339.639 142.568,-328.887 121.851,-319.68"/>
<polygon fill="white" stroke="white" points="112.687,-315.572 123.653,-315.556 117.249,-317.617 121.812,-319.662 121.812,-319.662 121.812,-319.662 117.249,-317.617 119.971,-323.769 112.687,-315.572 112.687,-315.572"/>
<text text-anchor="middle" x="247.793" y="-338.4" font-family="Courier,monospace" font-size="12.00" fill="white">list of players</text>
</g>
<!-- F -->
<g id="node6" class="node"><title>F</title>
<ellipse fill="#006699" stroke="white" cx="310.293" cy="-129" rx="93.6835" ry="18"/>
<text text-anchor="middle" x="310.293" y="-125.3" font-family="Helvetica,sans-Serif" font-size="14.00" fill="white">Matchmaking Engine</text>
</g>
<!-- C&#45;&gt;F -->
<g id="edge1" class="edge"><title>C&#45;&gt;F</title>
<path fill="none" stroke="white" d="M375.092,-380.078C399.049,-375.701 424.512,-366.544 441.293,-348 496.258,-287.259 514.353,-229.059 463.293,-165 454.443,-153.897 427.441,-146.033 398.534,-140.611"/>
<polygon fill="white" stroke="white" points="388.681,-138.865 399.313,-136.179 393.604,-139.738 398.528,-140.61 398.528,-140.61 398.528,-140.61 393.604,-139.738 397.742,-145.041 388.681,-138.865 388.681,-138.865"/>
<text text-anchor="middle" x="548.793" y="-253.4" font-family="Courier,monospace" font-size="12.00" fill="white">list of players</text>
</g>
<!-- D&#45;&gt;F -->
<g id="edge6" class="edge"><title>D&#45;&gt;F</title>
<path fill="none" stroke="white" d="M75.4486,-280.682C71.5995,-258.468 68.725,-219.956 88.293,-196 117.735,-159.956 165.935,-143.013 209.913,-135.268"/>
<polygon fill="white" stroke="white" points="219.809,-133.664 210.658,-139.706 214.874,-134.464 209.938,-135.264 209.938,-135.264 209.938,-135.264 214.874,-134.464 209.218,-130.822 219.809,-133.664 219.809,-133.664"/>
<text text-anchor="middle" x="148.793" y="-210.9" font-family="Courier,monospace" font-size="12.00" fill="white">win ratio matrix</text>
</g>
<!-- E&#45;&gt;F -->
<g id="edge5" class="edge"><title>E&#45;&gt;F</title>
<path fill="none" stroke="white" d="M310.293,-195.802C310.293,-184.674 310.293,-169.945 310.293,-157.244"/>
<polygon fill="white" stroke="white" points="310.293,-147.176 314.793,-157.176 310.293,-152.176 310.293,-157.176 310.293,-157.176 310.293,-157.176 310.293,-152.176 305.793,-157.176 310.293,-147.176 310.293,-147.176"/>
<text text-anchor="middle" x="385.793" y="-168.4" font-family="Courier,monospace" font-size="12.00" fill="white">all valid round sets</text>
</g>
<!-- G -->
<g id="node7" class="node"><title>G</title>
<polygon fill="orange" stroke="white" points="371.793,-62 248.793,-62 248.793,-26 371.793,-26 371.793,-62"/>
<text text-anchor="middle" x="310.293" y="-40.3" font-family="Helvetica,sans-Serif" font-size="14.00">Generated Seeds</text>
</g>
<!-- F&#45;&gt;G -->
<g id="edge7" class="edge"><title>F&#45;&gt;G</title>
<path fill="none" stroke="white" d="M310.293,-110.802C310.293,-99.6736 310.293,-84.9448 310.293,-72.2439"/>
<polygon fill="white" stroke="white" points="310.293,-62.1756 314.793,-72.1756 310.293,-67.1756 310.293,-72.1756 310.293,-72.1756 310.293,-72.1756 310.293,-67.1756 305.793,-72.1757 310.293,-62.1756 310.293,-62.1756"/>
<text text-anchor="middle" x="374.293" y="-83.4" font-family="Courier,monospace" font-size="12.00" fill="white">ordered round set</text>
</g>
</g>
</svg>
