<?xml version="1.0" encoding="UTF-8" standalone="no"?>
<!DOCTYPE svg PUBLIC "-//W3C//DTD SVG 1.1//EN"
 "http://www.w3.org/Graphics/SVG/1.1/DTD/svg11.dtd">
<!-- Generated by graphviz version 2.38.0 (20140413.2041)
 -->
<!-- Title: %3 Pages: 1 -->
<svg width="632pt" height="410pt"
 viewBox="0.00 0.00 631.89 410.00" xmlns="http://www.w3.org/2000/svg" xmlns:xlink="http://www.w3.org/1999/xlink">
<g id="graph0" class="graph" transform="scale(1 1) rotate(0) translate(4 406)">
<title>%3</title>
<polygon fill="#333333" stroke="none" points="-4,4 -4,-406 627.892,-406 627.892,4 -4,4"/>
<text text-anchor="middle" x="311.946" y="-9.2" font-family="Times,serif" font-size="16.00" fill="yellow">Players and games</text>
<!-- A -->
<g id="node1" class="node"><title>A</title>
<ellipse fill="#006699" stroke="white" cx="94.8916" cy="-384" rx="94.7833" ry="18"/>
<text text-anchor="middle" x="94.8916" y="-380.3" font-family="Helvetica,sans-Serif" font-size="14.00" fill="white">Historical Match Data</text>
</g>
<!-- D -->
<g id="node4" class="node"><title>D</title>
<ellipse fill="#006699" stroke="white" cx="97.8916" cy="-299" rx="79.0865" ry="18"/>
<text text-anchor="middle" x="97.8916" y="-295.3" font-family="Helvetica,sans-Serif" font-size="14.00" fill="white">Win Ratio Builder</text>
</g>
<!-- A&#45;&gt;D -->
<g id="edge4" class="edge"><title>A&#45;&gt;D</title>
<path fill="none" stroke="white" d="M95.1012,-365.666C95.2499,-356.539 95.4955,-345.161 95.8916,-335 95.9911,-332.446 96.1119,-329.787 96.2441,-327.128"/>
<polygon fill="white" stroke="white" points="96.7911,-317.084 100.741,-327.314 96.5191,-322.076 96.2472,-327.069 96.2472,-327.069 96.2472,-327.069 96.5191,-322.076 91.7539,-326.824 96.7911,-317.084 96.7911,-317.084"/>
<text text-anchor="middle" x="133.892" y="-338.4" font-family="Courier,monospace" font-size="12.00" fill="white">match data</text>
</g>
<!-- B -->
<g id="node2" class="node"><title>B</title>
<ellipse fill="#006699" stroke="white" cx="323.892" cy="-299" rx="80.6858" ry="18"/>
<text text-anchor="middle" x="323.892" y="-295.3" font-family="Helvetica,sans-Serif" font-size="14.00" fill="white">Adam&#39;s Algorithm</text>
</g>
<!-- E -->
<g id="node5" class="node"><title>E</title>
<ellipse fill="#006699" stroke="white" cx="328.892" cy="-214" rx="91.784" ry="18"/>
<text text-anchor="middle" x="328.892" y="-210.3" font-family="Helvetica,sans-Serif" font-size="14.00" fill="white">Swiss Round Builder</text>
</g>
<!-- B&#45;&gt;E -->
<g id="edge3" class="edge"><title>B&#45;&gt;E</title>
<path fill="none" stroke="white" d="M322.648,-280.642C322.216,-271.509 322.029,-260.132 322.892,-250 323.111,-247.42 323.42,-244.745 323.783,-242.074"/>
<polygon fill="white" stroke="white" points="325.378,-232.015 328.257,-242.596 324.595,-236.953 323.812,-241.892 323.812,-241.892 323.812,-241.892 324.595,-236.953 319.368,-241.187 325.378,-232.015 325.378,-232.015"/>
<text text-anchor="middle" x="398.392" y="-253.4" font-family="Courier,monospace" font-size="12.00" fill="white">generated partitions</text>
</g>
<!-- C -->
<g id="node3" class="node"><title>C</title>
<polygon fill="green" stroke="white" points="393.392,-402 266.392,-402 266.392,-366 393.392,-366 393.392,-402"/>
<text text-anchor="middle" x="329.892" y="-380.3" font-family="Helvetica,sans-Serif" font-size="14.00" fill="white">Current Draft Data</text>
</g>
<!-- C&#45;&gt;B -->
<g id="edge2" class="edge"><title>C&#45;&gt;B</title>
<path fill="none" stroke="white" d="M328.648,-365.802C327.844,-354.674 326.779,-339.945 325.861,-327.244"/>
<polygon fill="white" stroke="white" points="325.133,-317.176 330.343,-326.825 325.494,-322.163 325.854,-327.15 325.854,-327.15 325.854,-327.15 325.494,-322.163 321.366,-327.474 325.133,-317.176 325.133,-317.176"/>
<text text-anchor="middle" x="391.892" y="-338.4" font-family="Courier,monospace" font-size="12.00" fill="white">number of players</text>
</g>
<!-- C&#45;&gt;D -->
<g id="edge8" class="edge"><title>C&#45;&gt;D</title>
<path fill="none" stroke="white" d="M266.218,-365.983C247.89,-360.667 227.97,-354.483 209.892,-348 186.579,-339.639 161.166,-328.887 140.449,-319.68"/>
<polygon fill="white" stroke="white" points="131.285,-315.572 142.251,-315.556 135.848,-317.617 140.41,-319.662 140.41,-319.662 140.41,-319.662 135.848,-317.617 138.57,-323.769 131.285,-315.572 131.285,-315.572"/>
<text text-anchor="middle" x="266.392" y="-338.4" font-family="Courier,monospace" font-size="12.00" fill="white">list of players</text>
</g>
<!-- F -->
<g id="node6" class="node"><title>F</title>
<ellipse fill="#006699" stroke="white" cx="328.892" cy="-129" rx="93.6835" ry="18"/>
<text text-anchor="middle" x="328.892" y="-125.3" font-family="Helvetica,sans-Serif" font-size="14.00" fill="white">Matchmaking Engine</text>
</g>
<!-- C&#45;&gt;F -->
<g id="edge1" class="edge"><title>C&#45;&gt;F</title>
<path fill="none" stroke="white" d="M393.69,-380.078C417.647,-375.701 443.111,-366.544 459.892,-348 514.857,-287.259 532.952,-229.059 481.892,-165 473.041,-153.897 446.04,-146.033 417.133,-140.611"/>
<polygon fill="white" stroke="white" points="407.28,-138.865 417.911,-136.179 412.203,-139.738 417.126,-140.61 417.126,-140.61 417.126,-140.61 412.203,-139.738 416.341,-145.041 407.28,-138.865 407.28,-138.865"/>
<text text-anchor="middle" x="567.392" y="-253.4" font-family="Courier,monospace" font-size="12.00" fill="white">list of players</text>
</g>
<!-- D&#45;&gt;F -->
<g id="edge6" class="edge"><title>D&#45;&gt;F</title>
<path fill="none" stroke="white" d="M94.0472,-280.682C90.1981,-258.468 87.3237,-219.956 106.892,-196 136.333,-159.956 184.534,-143.013 228.512,-135.268"/>
<polygon fill="white" stroke="white" points="238.408,-133.664 229.257,-139.706 233.472,-134.464 228.537,-135.264 228.537,-135.264 228.537,-135.264 233.472,-134.464 227.817,-130.822 238.408,-133.664 238.408,-133.664"/>
<text text-anchor="middle" x="167.392" y="-210.9" font-family="Courier,monospace" font-size="12.00" fill="white">win ratio matrix</text>
</g>
<!-- E&#45;&gt;F -->
<g id="edge5" class="edge"><title>E&#45;&gt;F</title>
<path fill="none" stroke="white" d="M328.892,-195.802C328.892,-184.674 328.892,-169.945 328.892,-157.244"/>
<polygon fill="white" stroke="white" points="328.892,-147.176 333.392,-157.176 328.892,-152.176 328.892,-157.176 328.892,-157.176 328.892,-157.176 328.892,-152.176 324.392,-157.176 328.892,-147.176 328.892,-147.176"/>
<text text-anchor="middle" x="404.392" y="-168.4" font-family="Courier,monospace" font-size="12.00" fill="white">all valid round sets</text>
</g>
<!-- G -->
<g id="node7" class="node"><title>G</title>
<polygon fill="orange" stroke="white" points="390.392,-62 267.392,-62 267.392,-26 390.392,-26 390.392,-62"/>
<text text-anchor="middle" x="328.892" y="-40.3" font-family="Helvetica,sans-Serif" font-size="14.00">Generated Seeds</text>
</g>
<!-- F&#45;&gt;G -->
<g id="edge7" class="edge"><title>F&#45;&gt;G</title>
<path fill="none" stroke="white" d="M328.892,-110.802C328.892,-99.6736 328.892,-84.9448 328.892,-72.2439"/>
<polygon fill="white" stroke="white" points="328.892,-62.1756 333.392,-72.1756 328.892,-67.1756 328.892,-72.1756 328.892,-72.1756 328.892,-72.1756 328.892,-67.1756 324.392,-72.1757 328.892,-62.1756 328.892,-62.1756"/>
<text text-anchor="middle" x="392.892" y="-83.4" font-family="Courier,monospace" font-size="12.00" fill="white">ordered round set</text>
</g>
</g>
</svg>
